<svg width="220" viewBox="0 0 393 852" fill="none" xmlns="http://www.w3.org/2000/svg">
<rect width="393" height="1057" fill="#101010"/>
<rect x="124.5" y="268.5" width="145" height="32" rx="16" fill="#5D9EFF"/>
<rect x="124.5" y="268.5" width="145" height="32" rx="16" stroke="#5D9EFF" stroke-width="3"/>
<path d="M163.874 283.297H160.085V281.695H163.874V283.297ZM157.827 280.43C157.827 281.648 157.684 282.792 157.397 283.859C157.111 284.927 156.673 285.872 156.085 286.695C155.496 287.518 154.767 288.148 153.897 288.586L152.647 286.953C153.429 286.599 154.085 286.083 154.616 285.406C155.152 284.729 155.551 283.964 155.811 283.109C156.077 282.255 156.21 281.362 156.21 280.43V278.305H157.827V280.43ZM158.233 280.43C158.233 281.362 158.358 282.242 158.608 283.07C158.858 283.893 159.241 284.625 159.757 285.266C160.272 285.906 160.913 286.396 161.679 286.734L160.46 288.328C159.606 287.906 158.892 287.305 158.319 286.523C157.751 285.737 157.327 284.828 157.046 283.797C156.77 282.766 156.632 281.643 156.632 280.43V278.305H158.233V280.43ZM164.85 291.477H162.874V277.203H164.85V291.477ZM178.409 291.477H176.385V277.203H178.409V291.477ZM169.206 281.812H172.276V278.352H174.237V288.148H167.213V278.352H169.206V281.812ZM172.276 286.523V283.359H169.206V286.523H172.276ZM187.264 279.086C187.264 280.117 187.022 281.083 186.537 281.984C186.053 282.885 185.363 283.656 184.467 284.297C183.577 284.932 182.532 285.37 181.334 285.609L180.483 283.953C181.504 283.76 182.394 283.414 183.155 282.914C183.92 282.414 184.504 281.828 184.905 281.156C185.311 280.484 185.514 279.794 185.514 279.086V278.07H187.264V279.086ZM187.631 279.086C187.631 279.799 187.832 280.495 188.233 281.172C188.639 281.849 189.225 282.438 189.991 282.938C190.761 283.432 191.662 283.771 192.694 283.953L191.819 285.609C190.631 285.37 189.59 284.935 188.694 284.305C187.803 283.674 187.118 282.909 186.639 282.008C186.16 281.107 185.92 280.133 185.92 279.086V278.07H187.631V279.086ZM193.162 289.695H180.162V288.062H193.162V289.695ZM207.834 279.633H198.818V278.055H207.834V279.633ZM210.31 285.711H197.342V284.102H210.31V285.711ZM204.756 291.453H202.756V285.219H204.756V291.453ZM208.787 279.32C208.787 280.039 208.777 280.648 208.756 281.148C208.74 281.648 208.688 282.232 208.6 282.898C208.516 283.56 208.389 284.281 208.217 285.062L206.248 284.844C206.42 284.104 206.545 283.414 206.623 282.773C206.706 282.128 206.756 281.557 206.771 281.062C206.787 280.568 206.795 279.99 206.795 279.328V278.055H208.787V279.32ZM223.963 285.695H210.994V284.102H223.963V285.695ZM218.463 284.625H216.463V281.797H218.463V284.625ZM222.416 291.484H220.455V288.234H212.424V286.672H222.416V291.484ZM222.564 282.836H212.564V281.25H222.564V282.836ZM222.424 279.359H214.549V282.117H212.564V277.789H222.424V279.359ZM235.626 286.859H233.665V284.336H235.626V286.859ZM241.142 285.273H228.173V283.68H241.142V285.273ZM234.634 286.297C235.665 286.297 236.551 286.398 237.29 286.602C238.03 286.799 238.598 287.091 238.993 287.477C239.389 287.857 239.587 288.323 239.587 288.875C239.587 289.417 239.389 289.878 238.993 290.258C238.598 290.643 238.03 290.935 237.29 291.133C236.551 291.336 235.665 291.438 234.634 291.438C233.598 291.438 232.707 291.336 231.962 291.133C231.217 290.935 230.644 290.643 230.243 290.258C229.848 289.878 229.65 289.417 229.65 288.875C229.65 288.323 229.848 287.857 230.243 287.477C230.639 287.091 231.21 286.799 231.954 286.602C232.704 286.398 233.598 286.297 234.634 286.297ZM234.634 287.797C233.973 287.797 233.423 287.839 232.986 287.922C232.553 288.005 232.228 288.125 232.009 288.281C231.79 288.438 231.681 288.635 231.681 288.875C231.681 289.099 231.79 289.292 232.009 289.453C232.228 289.615 232.556 289.737 232.993 289.82C233.431 289.898 233.978 289.938 234.634 289.938C235.275 289.938 235.816 289.896 236.259 289.812C236.702 289.724 237.032 289.602 237.251 289.445C237.47 289.289 237.579 289.099 237.579 288.875C237.579 288.635 237.47 288.438 237.251 288.281C237.032 288.125 236.704 288.005 236.267 287.922C235.835 287.839 235.29 287.797 234.634 287.797ZM235.04 278.914C235.04 279.633 234.822 280.292 234.384 280.891C233.947 281.49 233.306 281.987 232.462 282.383C231.618 282.773 230.598 283.026 229.4 283.141L228.743 281.57C229.723 281.482 230.553 281.302 231.236 281.031C231.923 280.76 232.436 280.438 232.775 280.062C233.113 279.688 233.282 279.305 233.282 278.914V278.539H235.04V278.914ZM236.009 278.914C236.009 279.31 236.176 279.695 236.509 280.07C236.848 280.44 237.361 280.76 238.048 281.031C238.736 281.302 239.582 281.482 240.587 281.57L239.884 283.141C238.702 283.026 237.683 282.773 236.829 282.383C235.98 281.987 235.332 281.492 234.884 280.898C234.441 280.299 234.22 279.638 234.22 278.914V278.539H236.009V278.914ZM239.97 279.391H229.345V277.82H239.97V279.391Z" fill="#101010"/>
<path d="M144.41 148.6C144.41 148.696 144.41 148.744 144.362 148.792C144.41 148.888 144.41 148.936 144.41 149.032V160.696C144.41 162.04 143.306 163.096 142.01 163.096C140.714 163.096 139.658 162.04 139.658 160.696V149.032C139.658 148.936 139.658 148.888 139.658 148.792C139.658 148.744 139.658 148.696 139.658 148.6C139.658 145.912 137.45 143.752 134.762 143.752C132.074 143.752 129.866 145.912 129.866 148.6V160.696C129.866 162.04 128.81 163.096 127.514 163.096C126.218 163.096 125.114 162.04 125.114 160.696V148.6C125.114 145.912 122.954 143.752 120.266 143.752C117.578 143.752 115.37 145.912 115.37 148.6V160.696C115.37 162.04 114.314 163.096 113.018 163.096C111.674 163.096 110.618 162.04 110.618 160.696V148.6C110.618 143.32 114.938 139 120.266 139C123.146 139 125.738 140.248 127.514 142.312C129.29 140.248 131.882 139 134.762 139C140.09 139 144.41 143.32 144.41 148.6ZM165.945 139.096C167.289 139.096 168.345 140.152 168.345 141.448V165.112C168.345 170.536 163.881 175 158.409 175C154.617 175 151.209 172.84 149.529 169.432C148.953 168.28 149.433 166.84 150.633 166.264C151.785 165.688 153.225 166.216 153.753 167.368C154.665 169.144 156.441 170.248 158.409 170.248C161.289 170.248 163.593 167.944 163.593 165.112V161.656C162.153 162.52 160.473 163 158.649 163C153.369 163 149.049 158.728 149.001 153.448C149.001 153.4 149.001 153.4 149.001 153.4V141.448C149.001 140.152 150.057 139.096 151.353 139.096C152.649 139.096 153.705 140.152 153.705 141.448V153.352C153.705 156.088 155.961 158.296 158.649 158.296C161.385 158.296 163.593 156.088 163.593 153.352V141.448C163.593 140.152 164.649 139.096 165.945 139.096ZM185.186 163.192C182.45 163.192 179.906 162.28 177.89 160.744V172.696C177.89 173.992 176.834 175.048 175.538 175.048C174.194 175.048 173.138 173.992 173.138 172.696V151.192V151.144C173.138 144.52 178.562 139.096 185.186 139.096C191.858 139.096 197.234 144.52 197.234 151.144C197.234 157.816 191.858 163.192 185.186 163.192ZM185.186 143.848C181.154 143.848 177.89 147.112 177.89 151.144V151.192C177.89 155.176 181.154 158.44 185.186 158.44C189.218 158.44 192.482 155.176 192.482 151.144C192.482 147.16 189.218 143.848 185.186 143.848ZM214.109 139C220.877 139 225.917 144.376 225.917 151.144V160.552C225.917 161.944 224.909 162.952 223.517 162.952C222.557 162.952 221.213 161.944 221.213 160.552C219.149 162.28 216.845 162.952 214.109 162.952C207.341 162.952 201.965 157.912 201.965 151.144C201.965 144.376 207.341 139 214.109 139ZM214.109 158.248C218.141 158.248 221.213 155.176 221.213 151.144C221.213 147.112 218.141 143.704 214.109 143.704C210.077 143.704 206.669 147.112 206.669 151.144C206.669 155.176 210.077 158.248 214.109 158.248ZM254.794 150.952C254.794 150.952 254.794 150.952 254.794 163C254.794 169.624 249.37 175.048 242.746 175.048C238.09 175.048 233.962 172.456 231.898 168.28C231.322 167.08 231.802 165.688 233.002 165.112C234.154 164.536 235.594 165.016 236.17 166.168C237.418 168.712 239.914 170.296 242.746 170.296C246.73 170.296 249.946 167.08 250.042 163.144C250.042 163.096 250.042 163.048 250.042 160.504C247.978 162.04 245.482 163 242.746 163C236.074 163 230.698 157.576 230.698 150.952C230.698 144.28 236.074 138.904 242.746 138.904C249.37 138.904 254.794 144.28 254.794 150.952ZM242.746 158.248C246.73 158.248 250.042 154.936 250.042 150.952C250.042 146.92 246.73 143.656 242.746 143.656C238.714 143.656 235.45 146.92 235.45 150.952C235.45 154.936 238.714 158.248 242.746 158.248ZM271.597 138.904C277.405 138.904 283.645 143.128 283.645 150.952C283.645 152.248 282.589 153.304 281.245 153.304H264.685C265.693 156.184 268.381 158.248 271.597 158.248C272.701 158.248 274.669 158.152 276.973 156.664C278.077 155.944 279.565 156.616 280.141 157.768C280.717 158.968 280.093 160.216 278.989 160.936C275.821 163.048 273.373 163 271.597 163C264.925 163 259.549 157.576 259.549 150.952C259.549 144.28 264.925 138.904 271.597 138.904ZM271.597 143.656C268.381 143.656 265.693 145.72 264.685 148.552H278.557C277.549 145.192 274.477 143.656 271.597 143.656Z" fill="#FFFA87"/>
<path d="M109.555 246.367H106.566V230.84H109.555V246.367ZM112.438 239.43H108.688V236.969H112.438V239.43ZM110.316 251.793H95.7148V249.379H110.316V251.793ZM98.7031 250.457H95.7148V244.738H98.7031V250.457ZM98.6211 232.199C99.707 232.199 100.695 232.43 101.586 232.891C102.477 233.352 103.176 233.996 103.684 234.824C104.199 235.645 104.457 236.574 104.457 237.613C104.457 238.645 104.199 239.574 103.684 240.402C103.176 241.223 102.477 241.867 101.586 242.336C100.695 242.805 99.707 243.039 98.6211 243.039C97.5508 243.039 96.5664 242.805 95.668 242.336C94.7773 241.867 94.0703 241.219 93.5469 240.391C93.0312 239.562 92.7734 238.637 92.7734 237.613C92.7734 236.574 93.0312 235.645 93.5469 234.824C94.0703 233.996 94.7734 233.352 95.6562 232.891C96.5469 232.43 97.5352 232.199 98.6211 232.199ZM98.6211 234.801C98.0898 234.793 97.6016 234.902 97.1562 235.129C96.7109 235.355 96.3594 235.684 96.1016 236.113C95.8438 236.543 95.7148 237.043 95.7148 237.613C95.7148 238.184 95.8438 238.68 96.1016 239.102C96.3594 239.523 96.7109 239.852 97.1562 240.086C97.6016 240.312 98.0898 240.426 98.6211 240.426C99.1836 240.426 99.6836 240.312 100.121 240.086C100.566 239.859 100.914 239.535 101.164 239.113C101.414 238.684 101.539 238.184 101.539 237.613C101.539 237.035 101.414 236.535 101.164 236.113C100.914 235.684 100.566 235.355 100.121 235.129C99.6836 234.902 99.1836 234.793 98.6211 234.801ZM117.353 240.906H114.341V231.941H117.353V240.906ZM116.076 240.285C118.037 240.301 119.713 240.262 121.103 240.168C122.502 240.066 123.904 239.883 125.31 239.617L125.615 242.031C124.177 242.297 122.728 242.484 121.267 242.594C119.814 242.695 118.084 242.742 116.076 242.734H114.341V240.285H116.076ZM131.088 243.648H128.111V230.805H131.088V243.648ZM128.838 235.059H122.884V232.75H128.838V235.059ZM128.838 238.727H122.884V236.453H128.838V238.727ZM123.799 243.895C125.314 243.887 126.623 244.047 127.724 244.375C128.834 244.703 129.681 245.18 130.267 245.805C130.861 246.43 131.158 247.18 131.158 248.055C131.158 248.906 130.861 249.641 130.267 250.258C129.681 250.883 128.838 251.359 127.736 251.688C126.634 252.016 125.322 252.184 123.799 252.191C122.291 252.184 120.986 252.016 119.884 251.688C118.791 251.359 117.947 250.883 117.353 250.258C116.767 249.641 116.474 248.906 116.474 248.055C116.474 247.18 116.767 246.43 117.353 245.805C117.947 245.18 118.791 244.703 119.884 244.375C120.986 244.047 122.291 243.887 123.799 243.895ZM123.799 246.227C122.861 246.219 122.068 246.281 121.42 246.414C120.771 246.547 120.279 246.75 119.943 247.023C119.607 247.297 119.439 247.641 119.439 248.055C119.439 248.438 119.607 248.766 119.943 249.039C120.279 249.305 120.771 249.508 121.42 249.648C122.068 249.789 122.861 249.859 123.799 249.859C124.759 249.859 125.564 249.789 126.213 249.648C126.861 249.508 127.349 249.305 127.677 249.039C128.006 248.766 128.17 248.438 128.17 248.055C128.17 247.641 128.006 247.297 127.677 247.023C127.349 246.75 126.861 246.547 126.213 246.414C125.564 246.281 124.759 246.219 123.799 246.227ZM150.417 252.156H147.464V230.805H150.417V252.156ZM153.581 241.633H149.761V239.184H153.581V241.633ZM146.011 236.406H133.484V234.004H146.011V236.406ZM139.8 237.59C140.839 237.59 141.773 237.809 142.601 238.246C143.429 238.676 144.077 239.277 144.546 240.051C145.023 240.824 145.261 241.699 145.261 242.676C145.261 243.652 145.023 244.527 144.546 245.301C144.077 246.074 143.429 246.68 142.601 247.117C141.773 247.547 140.839 247.762 139.8 247.762C138.761 247.762 137.827 247.547 136.999 247.117C136.171 246.68 135.523 246.074 135.054 245.301C134.585 244.527 134.351 243.652 134.351 242.676C134.351 241.699 134.585 240.824 135.054 240.051C135.523 239.277 136.171 238.676 136.999 238.246C137.827 237.809 138.761 237.59 139.8 237.59ZM139.8 240.027C139.308 240.027 138.863 240.137 138.464 240.355C138.074 240.566 137.765 240.875 137.538 241.281C137.32 241.68 137.21 242.145 137.21 242.676C137.21 243.215 137.32 243.684 137.538 244.082C137.765 244.48 138.074 244.789 138.464 245.008C138.863 245.219 139.308 245.324 139.8 245.324C140.308 245.324 140.757 245.219 141.148 245.008C141.538 244.789 141.839 244.48 142.05 244.082C142.269 243.684 142.378 243.215 142.378 242.676C142.378 242.145 142.269 241.68 142.05 241.281C141.839 240.875 141.538 240.566 141.148 240.355C140.757 240.137 140.308 240.027 139.8 240.027ZM141.288 234.918H138.312V231.145H141.288V234.918ZM166.173 240.473H162.54V238.023H166.173V240.473ZM160.302 236.336C160.302 238 160.13 239.582 159.786 241.082C159.45 242.582 158.923 243.922 158.204 245.102C157.493 246.281 156.591 247.207 155.497 247.879L153.669 245.652C154.677 245.027 155.505 244.223 156.153 243.238C156.802 242.246 157.271 241.168 157.56 240.004C157.856 238.84 158.005 237.617 158.005 236.336V232.656H160.302V236.336ZM160.899 236.195C160.899 237.453 161.024 238.633 161.274 239.734C161.524 240.828 161.938 241.844 162.517 242.781C163.103 243.719 163.856 244.488 164.778 245.09L163.161 247.387C162.075 246.73 161.2 245.824 160.536 244.668C159.872 243.512 159.392 242.227 159.095 240.812C158.806 239.398 158.661 237.859 158.661 236.195V232.656H160.899V236.195ZM172.56 252.156H169.688V230.805H172.56V252.156ZM168.095 251.172H165.294V231.133H168.095V251.172ZM181.87 247.668H178.905V241.68H181.87V247.668ZM189.721 247.668H186.71V241.68H189.721V247.668ZM194.057 249.66H174.557V247.211H194.057V249.66ZM184.272 231.859C185.811 231.859 187.186 232.098 188.397 232.574C189.616 233.051 190.569 233.723 191.257 234.59C191.952 235.457 192.299 236.453 192.299 237.578C192.299 238.711 191.956 239.711 191.268 240.578C190.581 241.438 189.628 242.105 188.409 242.582C187.198 243.051 185.819 243.289 184.272 243.297C182.733 243.289 181.354 243.051 180.135 242.582C178.924 242.105 177.975 241.438 177.288 240.578C176.6 239.711 176.257 238.711 176.257 237.578C176.257 236.453 176.6 235.457 177.288 234.59C177.975 233.723 178.928 233.051 180.147 232.574C181.366 232.098 182.741 231.859 184.272 231.859ZM184.272 234.227C183.257 234.219 182.37 234.348 181.612 234.613C180.854 234.879 180.264 235.266 179.842 235.773C179.421 236.273 179.21 236.875 179.21 237.578C179.21 238.273 179.421 238.879 179.842 239.395C180.264 239.902 180.854 240.297 181.612 240.578C182.378 240.852 183.264 240.988 184.272 240.988C185.272 240.988 186.155 240.852 186.921 240.578C187.686 240.297 188.28 239.902 188.702 239.395C189.132 238.879 189.346 238.273 189.346 237.578C189.346 236.875 189.135 236.273 188.714 235.773C188.292 235.273 187.698 234.891 186.932 234.625C186.174 234.352 185.288 234.219 184.272 234.227ZM197.496 254.945H195.012L196.172 248.277H199.524L197.496 254.945ZM215.871 245.512C217.449 245.512 218.789 245.641 219.89 245.898C221 246.156 221.843 246.535 222.422 247.035C223.007 247.527 223.3 248.133 223.3 248.852C223.3 249.922 222.656 250.742 221.367 251.312C220.078 251.883 218.246 252.164 215.871 252.156C213.472 252.164 211.625 251.883 210.328 251.312C209.039 250.742 208.394 249.922 208.394 248.852C208.394 248.133 208.683 247.527 209.261 247.035C209.847 246.535 210.699 246.156 211.816 245.898C212.933 245.641 214.285 245.512 215.871 245.512ZM215.871 247.68C214.855 247.68 214.023 247.723 213.375 247.809C212.726 247.895 212.242 248.023 211.922 248.195C211.609 248.367 211.453 248.586 211.453 248.852C211.453 249.117 211.609 249.336 211.922 249.508C212.242 249.672 212.722 249.793 213.363 249.871C214.004 249.949 214.84 249.988 215.871 249.988C216.902 249.988 217.734 249.949 218.367 249.871C219.007 249.793 219.484 249.672 219.797 249.508C220.117 249.336 220.277 249.117 220.277 248.852C220.277 248.586 220.117 248.367 219.797 248.195C219.484 248.023 219.004 247.895 218.355 247.809C217.715 247.723 216.886 247.68 215.871 247.68ZM224.601 234.613H207.093V232.34H224.601V234.613ZM215.894 235.176C218.23 235.176 220.007 235.438 221.226 235.961C222.445 236.484 223.054 237.254 223.054 238.27C223.054 239.254 222.441 240.008 221.215 240.531C219.996 241.047 218.222 241.305 215.894 241.305C213.59 241.305 211.816 241.047 210.574 240.531C209.332 240.008 208.711 239.254 208.711 238.27C208.711 237.254 209.328 236.484 210.562 235.961C211.804 235.438 213.582 235.176 215.894 235.176ZM215.894 237.191C214.972 237.191 214.222 237.23 213.644 237.309C213.066 237.379 212.632 237.492 212.343 237.648C212.054 237.805 211.91 238.012 211.91 238.27C211.91 238.488 212.054 238.672 212.343 238.82C212.632 238.969 213.066 239.082 213.644 239.16C214.222 239.23 214.972 239.27 215.894 239.277C216.824 239.27 217.578 239.23 218.156 239.16C218.734 239.082 219.164 238.969 219.445 238.82C219.726 238.672 219.867 238.488 219.867 238.27C219.867 238.012 219.726 237.805 219.445 237.648C219.164 237.492 218.734 237.379 218.156 237.309C217.586 237.23 216.832 237.191 215.894 237.191ZM217.382 233.934H214.382V230.664H217.382V233.934ZM225.632 244.68H206.179V242.371H225.632V244.68ZM217.382 243.367H214.382V240.367H217.382V243.367ZM244.493 241.562H241.505V230.805H244.493V241.562ZM238.025 231.602C238.025 233.547 237.661 235.211 236.935 236.594C236.208 237.969 235.107 239.102 233.63 239.992C232.154 240.875 230.275 241.543 227.993 241.996L226.951 239.594C228.81 239.25 230.318 238.773 231.474 238.164C232.63 237.555 233.466 236.848 233.982 236.043C234.505 235.238 234.767 234.34 234.767 233.348V231.602H238.025ZM236.829 234.004H228.099V231.602H236.829V234.004ZM244.493 248.172H233.255V250.562H230.243V246.004H241.493V244.715H230.197V242.406H244.493V248.172ZM245.079 251.945H230.243V249.637H245.079V251.945ZM266.624 243.262H247.136V240.895H266.624V243.262ZM258.339 241.832H255.409V237.684H258.339V241.832ZM264.397 239.066H249.491V236.723H264.397V239.066ZM264.28 234.098H252.456V238.258H249.491V231.766H264.28V234.098ZM256.827 244.316C258.374 244.316 259.702 244.469 260.811 244.773C261.929 245.078 262.78 245.527 263.366 246.121C263.96 246.715 264.257 247.43 264.257 248.266C264.257 249.094 263.96 249.801 263.366 250.387C262.78 250.973 261.929 251.418 260.811 251.723C259.702 252.027 258.374 252.184 256.827 252.191C255.28 252.184 253.944 252.027 252.819 251.723C251.702 251.418 250.843 250.973 250.241 250.387C249.647 249.801 249.351 249.094 249.351 248.266C249.351 247.43 249.647 246.715 250.241 246.121C250.843 245.527 251.702 245.078 252.819 244.773C253.936 244.469 255.272 244.316 256.827 244.316ZM256.827 246.602C255.843 246.602 255.022 246.664 254.366 246.789C253.71 246.906 253.218 247.09 252.89 247.34C252.561 247.59 252.397 247.898 252.397 248.266C252.397 248.641 252.561 248.949 252.89 249.191C253.218 249.434 253.706 249.613 254.354 249.73C255.011 249.848 255.835 249.906 256.827 249.906C257.811 249.906 258.628 249.848 259.276 249.73C259.933 249.613 260.425 249.434 260.753 249.191C261.081 248.941 261.245 248.633 261.245 248.266C261.245 247.898 261.081 247.59 260.753 247.34C260.425 247.09 259.929 246.906 259.265 246.789C258.608 246.664 257.796 246.602 256.827 246.602ZM290.717 242.805H287.752V230.805H290.717V242.805ZM277.112 240.836H274.112V232.047H277.112V240.836ZM275.963 239.266C277.94 239.266 279.717 239.199 281.295 239.066C282.873 238.934 284.42 238.699 285.936 238.363L286.287 240.801C284.678 241.137 283.049 241.379 281.401 241.527C279.752 241.676 277.94 241.75 275.963 241.75H274.112V239.266H275.963ZM290.717 251.91H276.479V243.66H290.717V251.91ZM279.408 249.555H287.787V246.004H279.408V249.555ZM297.906 244.926H294.918L294.602 233.031H298.234L297.906 244.926ZM296.418 250.211C296.066 250.211 295.738 250.121 295.434 249.941C295.129 249.754 294.887 249.512 294.707 249.215C294.535 248.91 294.449 248.582 294.449 248.23C294.449 247.887 294.535 247.566 294.707 247.27C294.887 246.965 295.129 246.727 295.434 246.555C295.738 246.383 296.066 246.297 296.418 246.297C296.762 246.297 297.082 246.383 297.379 246.555C297.684 246.727 297.926 246.965 298.105 247.27C298.293 247.566 298.387 247.887 298.387 248.23C298.387 248.582 298.293 248.91 298.105 249.215C297.926 249.512 297.684 249.754 297.379 249.941C297.082 250.121 296.762 250.211 296.418 250.211Z" fill="white"/>
<rect x="90" y="664" width="212" height="55" rx="15" stroke="#FFFA87" stroke-width="2"/>
<path d="M136.072 689.945H130.388V687.543H136.072V689.945ZM127.001 685.645C127.001 687.473 126.786 689.188 126.357 690.789C125.927 692.391 125.271 693.809 124.388 695.043C123.505 696.277 122.411 697.223 121.107 697.879L119.232 695.43C120.404 694.898 121.388 694.125 122.185 693.109C122.99 692.094 123.587 690.945 123.978 689.664C124.376 688.383 124.576 687.043 124.576 685.645V682.457H127.001V685.645ZM127.611 685.645C127.611 687.043 127.798 688.363 128.173 689.605C128.548 690.84 129.122 691.938 129.896 692.898C130.669 693.859 131.63 694.594 132.779 695.102L130.951 697.492C129.669 696.859 128.599 695.957 127.74 694.785C126.888 693.605 126.251 692.242 125.829 690.695C125.415 689.148 125.208 687.465 125.208 685.645V682.457H127.611V685.645ZM137.536 702.215H134.572V680.805H137.536V702.215ZM157.874 702.215H154.839V680.805H157.874V702.215ZM144.069 687.719H148.675V682.527H151.616V697.223H141.081V682.527H144.069V687.719ZM148.675 694.785V690.039H144.069V694.785H148.675ZM171.157 683.629C171.157 685.176 170.794 686.625 170.067 687.977C169.34 689.328 168.305 690.484 166.962 691.445C165.626 692.398 164.059 693.055 162.262 693.414L160.985 690.93C162.516 690.641 163.852 690.121 164.993 689.371C166.141 688.621 167.016 687.742 167.618 686.734C168.227 685.727 168.532 684.691 168.532 683.629V682.105H171.157V683.629ZM171.708 683.629C171.708 684.699 172.008 685.742 172.61 686.758C173.219 687.773 174.098 688.656 175.247 689.406C176.403 690.148 177.755 690.656 179.301 690.93L177.989 693.414C176.208 693.055 174.645 692.402 173.301 691.457C171.965 690.512 170.938 689.363 170.219 688.012C169.501 686.66 169.141 685.199 169.141 683.629V682.105H171.708V683.629ZM180.005 699.543H160.505V697.094H180.005V699.543ZM202.012 684.449H188.488V682.082H202.012V684.449ZM205.727 693.566H186.273V691.152H205.727V693.566ZM197.395 702.18H194.395V692.828H197.395V702.18ZM203.441 683.98C203.441 685.059 203.426 685.973 203.395 686.723C203.371 687.473 203.293 688.348 203.16 689.348C203.035 690.34 202.844 691.422 202.586 692.594L199.633 692.266C199.891 691.156 200.078 690.121 200.195 689.16C200.32 688.191 200.395 687.336 200.418 686.594C200.441 685.852 200.453 684.984 200.453 683.992V682.082H203.441V683.98ZM226.205 693.543H206.752V691.152H226.205V693.543ZM217.955 691.938H214.955V687.695H217.955V691.938ZM223.884 702.227H220.943V697.352H208.896V695.008H223.884V702.227ZM224.107 689.254H209.107V686.875H224.107V689.254ZM223.896 684.039H212.084V688.176H209.107V681.684H223.896V684.039ZM250.485 697.094H247.509V680.852H250.485V697.094ZM248.622 688.562H244.626V686.148H248.622V688.562ZM248.622 693.074H244.626V690.695H248.622V693.074ZM244.403 685.434H232.556V683.078H244.403V685.434ZM238.603 686.184C239.571 686.184 240.438 686.363 241.204 686.723C241.978 687.074 242.579 687.57 243.009 688.211C243.438 688.844 243.653 689.566 243.653 690.379C243.653 691.184 243.438 691.906 243.009 692.547C242.579 693.188 241.978 693.688 241.204 694.047C240.438 694.398 239.571 694.574 238.603 694.574C237.649 694.574 236.794 694.398 236.036 694.047C235.278 693.688 234.685 693.188 234.255 692.547C233.825 691.906 233.61 691.184 233.61 690.379C233.61 689.574 233.825 688.852 234.255 688.211C234.685 687.57 235.278 687.074 236.036 686.723C236.802 686.363 237.657 686.184 238.603 686.184ZM238.603 688.516C238.173 688.516 237.79 688.59 237.454 688.738C237.118 688.879 236.856 689.09 236.669 689.371C236.481 689.652 236.388 689.988 236.388 690.379C236.388 690.777 236.481 691.121 236.669 691.41C236.856 691.691 237.114 691.906 237.442 692.055C237.778 692.203 238.165 692.277 238.603 692.277C239.048 692.277 239.435 692.203 239.763 692.055C240.099 691.906 240.36 691.691 240.548 691.41C240.743 691.121 240.841 690.777 240.841 690.379C240.841 689.988 240.743 689.652 240.548 689.371C240.36 689.09 240.099 688.879 239.763 688.738C239.435 688.59 239.048 688.516 238.603 688.516ZM240.126 684.531H237.138V680.793H240.126V684.531ZM250.942 701.793H236.282V699.379H250.942V701.793ZM239.306 700.492H236.282V695.699H239.306V700.492ZM270.049 695.242H267.038V680.852H270.049V695.242ZM272.78 689.348H268.983V686.898H272.78V689.348ZM262.854 695.418C264.401 695.402 265.714 695.527 266.792 695.793C267.878 696.059 268.702 696.449 269.264 696.965C269.835 697.473 270.12 698.086 270.12 698.805C270.12 699.531 269.835 700.148 269.264 700.656C268.702 701.164 267.878 701.543 266.792 701.793C265.714 702.051 264.401 702.184 262.854 702.191C261.307 702.184 259.991 702.051 258.905 701.793C257.819 701.543 256.991 701.164 256.421 700.656C255.858 700.148 255.577 699.531 255.577 698.805C255.577 698.078 255.862 697.461 256.432 696.953C257.003 696.445 257.831 696.059 258.917 695.793C260.01 695.527 261.323 695.402 262.854 695.418ZM262.854 697.598C261.862 697.598 261.049 697.641 260.417 697.727C259.792 697.805 259.327 697.938 259.022 698.125C258.717 698.305 258.565 698.531 258.565 698.805C258.565 699.078 258.717 699.301 259.022 699.473C259.327 699.645 259.792 699.777 260.417 699.871C261.049 699.957 261.862 700 262.854 700C263.839 700 264.639 699.957 265.257 699.871C265.882 699.777 266.346 699.645 266.651 699.473C266.964 699.301 267.12 699.078 267.12 698.805C267.12 698.531 266.964 698.305 266.651 698.125C266.346 697.938 265.882 697.805 265.257 697.727C264.639 697.641 263.839 697.598 262.854 697.598ZM260.909 693.379H257.932V690.25H260.909V693.379ZM252.764 692.395C255.366 692.395 257.749 692.355 259.913 692.277C262.077 692.199 264.124 692.039 266.053 691.797L266.276 693.824C264.26 694.168 262.182 694.395 260.042 694.504C257.901 694.605 255.573 694.656 253.057 694.656L252.764 692.395ZM265.514 684.555H253.303V682.352H265.514V684.555ZM259.409 685.059C260.471 685.059 261.393 685.184 262.174 685.434C262.956 685.676 263.561 686.027 263.991 686.488C264.421 686.949 264.635 687.492 264.635 688.117C264.635 688.734 264.421 689.277 263.991 689.746C263.561 690.207 262.952 690.562 262.163 690.812C261.382 691.062 260.464 691.188 259.409 691.188C258.354 691.188 257.432 691.062 256.643 690.812C255.862 690.562 255.253 690.207 254.815 689.746C254.385 689.277 254.171 688.734 254.171 688.117C254.171 687.492 254.385 686.949 254.815 686.488C255.245 686.027 255.854 685.676 256.643 685.434C257.432 685.184 258.354 685.059 259.409 685.059ZM259.409 687.027C258.901 687.027 258.471 687.066 258.12 687.145C257.768 687.223 257.499 687.348 257.311 687.52C257.124 687.684 257.03 687.883 257.03 688.117C257.03 688.367 257.12 688.574 257.299 688.738C257.487 688.902 257.757 689.027 258.108 689.113C258.467 689.191 258.901 689.23 259.409 689.23C259.917 689.23 260.346 689.188 260.698 689.102C261.049 689.016 261.315 688.895 261.495 688.738C261.674 688.574 261.764 688.367 261.764 688.117C261.764 687.883 261.671 687.684 261.483 687.52C261.303 687.348 261.038 687.223 260.686 687.145C260.342 687.066 259.917 687.027 259.409 687.027ZM260.909 683.348H257.932V680.664H260.909V683.348Z" fill="#FFFA87"/>
<rect x="91" y="746" width="212" height="55" rx="15" stroke="#FFA858" stroke-width="2"/>
<path d="M137.983 765.887C137.983 767.332 137.764 768.676 137.326 769.918C136.897 771.16 136.24 772.242 135.358 773.164C134.475 774.078 133.381 774.762 132.076 775.215L130.471 772.871C131.612 772.48 132.561 771.93 133.319 771.219C134.076 770.5 134.635 769.684 134.994 768.77C135.362 767.855 135.545 766.895 135.545 765.887V763.953H137.983V765.887ZM138.545 766.18C138.545 767.07 138.721 767.918 139.072 768.723C139.432 769.52 139.975 770.23 140.701 770.855C141.436 771.473 142.346 771.953 143.432 772.297L141.838 774.617C140.596 774.195 139.545 773.57 138.686 772.742C137.826 771.914 137.186 770.941 136.764 769.824C136.342 768.699 136.131 767.484 136.131 766.18V763.953H138.545V766.18ZM147.697 775.473H144.709V762.805H147.697V775.473ZM150.58 770.305H146.854V767.809H150.58V770.305ZM140.701 775.906C142.17 775.906 143.444 776.07 144.522 776.398C145.608 776.719 146.44 777.188 147.018 777.805C147.604 778.422 147.897 779.16 147.897 780.02C147.897 780.887 147.604 781.629 147.018 782.246C146.44 782.871 145.612 783.344 144.533 783.664C143.455 783.992 142.178 784.156 140.701 784.156C139.217 784.156 137.924 783.992 136.822 783.664C135.721 783.344 134.873 782.871 134.279 782.246C133.686 781.629 133.389 780.887 133.389 780.02C133.389 779.16 133.686 778.422 134.279 777.805C134.873 777.188 135.721 776.719 136.822 776.398C137.924 776.07 139.217 775.906 140.701 775.906ZM140.701 778.25C139.779 778.25 138.994 778.316 138.346 778.449C137.705 778.574 137.221 778.773 136.893 779.047C136.565 779.312 136.401 779.637 136.401 780.02C136.401 780.418 136.565 780.75 136.893 781.016C137.221 781.281 137.701 781.48 138.334 781.613C138.975 781.738 139.764 781.805 140.701 781.812C141.647 781.805 142.432 781.738 143.057 781.613C143.682 781.48 144.154 781.281 144.475 781.016C144.795 780.75 144.955 780.418 144.955 780.02C144.955 779.629 144.791 779.301 144.463 779.035C144.143 778.77 143.666 778.574 143.033 778.449C142.401 778.316 141.623 778.25 140.701 778.25ZM162.445 777.816H159.469V774.512H162.445V777.816ZM170.719 775.18H151.265V772.824H170.719V775.18ZM168.961 765.805H152.965V763.414H168.961V765.805ZM168.832 771.453H153.117V769.051H168.832V771.453ZM158.719 770.68H155.73V764.316H158.719V770.68ZM166.195 770.68H163.195V764.316H166.195V770.68ZM168.387 783.922H153.515V777.02H168.387V783.922ZM156.457 781.52H165.457V779.316H156.457V781.52ZM192.773 766.449H179.249V764.082H192.773V766.449ZM196.487 775.566H177.034V773.152H196.487V775.566ZM188.155 784.18H185.155V774.828H188.155V784.18ZM194.202 765.98C194.202 767.059 194.187 767.973 194.155 768.723C194.132 769.473 194.054 770.348 193.921 771.348C193.796 772.34 193.605 773.422 193.347 774.594L190.394 774.266C190.652 773.156 190.839 772.121 190.956 771.16C191.081 770.191 191.155 769.336 191.179 768.594C191.202 767.852 191.214 766.984 191.214 765.992V764.082H194.202V765.98ZM215.993 784.156H213.122V762.805H215.993V784.156ZM214.071 773.398H210.462V770.973H214.071V773.398ZM211.2 783.172H208.388V763.133H211.2V783.172ZM206.583 778.801H198.098V765.031H206.583V778.801ZM200.899 776.445H203.794V767.387H200.899V776.445ZM241.129 784.215H238.094V762.805H241.129V784.215ZM229.539 764.316C230.61 764.316 231.57 764.629 232.422 765.254C233.281 765.879 233.949 766.766 234.426 767.914C234.91 769.062 235.153 770.398 235.153 771.922C235.153 773.453 234.91 774.793 234.426 775.941C233.949 777.09 233.281 777.977 232.422 778.602C231.57 779.219 230.61 779.527 229.539 779.527C228.453 779.527 227.481 779.219 226.621 778.602C225.77 777.977 225.102 777.09 224.617 775.941C224.133 774.793 223.891 773.453 223.891 771.922C223.891 770.398 224.133 769.062 224.617 767.914C225.102 766.766 225.77 765.879 226.621 765.254C227.481 764.629 228.453 764.316 229.539 764.316ZM229.539 767.023C228.992 767.016 228.508 767.203 228.086 767.586C227.672 767.961 227.352 768.52 227.125 769.262C226.906 769.996 226.797 770.883 226.797 771.922C226.797 772.961 226.906 773.848 227.125 774.582C227.352 775.316 227.672 775.875 228.086 776.258C228.508 776.633 228.992 776.82 229.539 776.82C230.078 776.82 230.555 776.633 230.969 776.258C231.383 775.875 231.703 775.316 231.93 774.582C232.156 773.848 232.27 772.961 232.27 771.922C232.27 770.883 232.156 769.996 231.93 769.262C231.703 768.52 231.383 767.961 230.969 767.586C230.563 767.203 230.086 767.016 229.539 767.023ZM246.197 773.012C248.369 773.012 250.049 772.98 251.236 772.918C252.431 772.848 253.607 772.707 254.764 772.496L255.045 774.875C253.865 775.078 252.646 775.215 251.389 775.285C250.131 775.355 248.4 775.391 246.197 775.391H244.58V773.012H246.197ZM253.978 770.715H247.545V774.57H244.58V768.512H251.002V766.414H244.545V764.07H253.978V770.715ZM261.724 775.988H258.748V762.852H261.724V775.988ZM259.299 768.172H255.221V765.793H259.299V768.172ZM259.299 772.707H255.221V770.316H259.299V772.707ZM261.724 784.168H258.748V779.316H247.017V776.926H261.724V784.168Z" fill="#FFA858"/>
<rect x="16" y="395" width="361" height="152" rx="16" fill="#282828"/>
<circle cx="65.5" cy="441.5" r="19" stroke="#5C5C5C" stroke-width="3"/>
<circle cx="65.5" cy="500.5" r="19" stroke="#5C5C5C" stroke-width="3"/>
<circle cx="131.096" cy="441.5" r="19" stroke="#5C5C5C" stroke-width="3"/>
<circle cx="131.096" cy="500.5" r="19" stroke="#5C5C5C" stroke-width="3"/>
<circle cx="196.692" cy="441.5" r="19" stroke="#5C5C5C" stroke-width="3"/>
<circle cx="196.692" cy="500.5" r="19" stroke="#5C5C5C" stroke-width="3"/>
<circle cx="262.289" cy="441.5" r="19" stroke="#5C5C5C" stroke-width="3"/>
<circle cx="262.289" cy="500.5" r="19" stroke="#5C5C5C" stroke-width="3"/>
<circle cx="327.885" cy="441.5" r="19" stroke="#5C5C5C" stroke-width="3"/>
<circle cx="327.885" cy="500.5" r="19" stroke="#5C5C5C" stroke-width="3"/>
<path d="M82.4286 423.313C82.4286 423.313 82.4286 423.312 82.4286 423.311C82.4286 423.306 82.4286 423.302 82.428 423.298C82.428 423.28 82.4262 423.262 82.4244 423.245C82.4238 423.238 82.4227 423.232 82.4215 423.226C82.4191 423.21 82.4162 423.193 82.412 423.178C82.4102 423.172 82.4091 423.166 82.4073 423.159C82.4026 423.142 82.3972 423.126 82.3913 423.11C82.3902 423.107 82.3896 423.104 82.3884 423.1L81.4296 420.676L80.5181 418.372C80.4295 418.148 80.2108 418 79.9678 418H51.4608C51.2172 418 50.9991 418.148 50.9104 418.372L49.0402 423.1C49.039 423.104 49.0384 423.107 49.0372 423.11C49.0313 423.127 49.026 423.143 49.0213 423.159C49.0195 423.166 49.0177 423.172 49.0166 423.178C49.013 423.194 49.01 423.21 49.0071 423.226C49.0059 423.232 49.0047 423.238 49.0041 423.245C49.0024 423.262 49.0012 423.28 49.0006 423.298C49.0006 423.302 49 423.307 49 423.311C49 423.312 49 423.313 49 423.313V460.687C49 460.687 49 460.689 49 460.69C49 460.694 49 460.699 49.0006 460.704C49.0006 460.721 49.0024 460.739 49.0041 460.756C49.0047 460.763 49.0059 460.769 49.0071 460.776C49.0095 460.791 49.0124 460.807 49.016 460.823C49.0177 460.829 49.0189 460.835 49.0207 460.842C49.0254 460.859 49.0307 460.875 49.0366 460.891C49.0378 460.894 49.0384 460.897 49.0396 460.901L49.9984 463.324L50.9098 465.628C50.9985 465.852 51.2172 466 51.4602 466H79.9672C80.2108 466 80.4289 465.852 80.5175 465.628L82.3878 460.901C82.389 460.897 82.3902 460.894 82.3913 460.89C82.3972 460.875 82.4026 460.858 82.4073 460.842C82.4091 460.835 82.4108 460.829 82.412 460.823C82.4156 460.808 82.4185 460.792 82.4209 460.776C82.4221 460.77 82.4232 460.763 82.4238 460.757C82.4256 460.739 82.4268 460.722 82.4274 460.704C82.4274 460.7 82.428 460.695 82.428 460.69C82.428 460.69 82.428 460.688 82.428 460.688V423.313H82.4286ZM80.9715 422.728H50.4565L50.9288 421.534H80.4998L80.9721 422.728H80.9715ZM71.1113 451.513C68.501 450.097 67.0972 448.543 65.74 447.039C64.0489 445.165 62.4517 443.396 58.8673 442.116C56.1896 441.161 53.2695 440.523 50.1804 440.219V429.32C53.1294 429.619 55.9141 430.231 58.4659 431.141C61.769 432.32 63.2006 433.906 64.8581 435.742C66.282 437.32 67.7545 438.951 70.5427 440.464C73.4355 442.033 77.0348 443.139 81.2458 443.755V454.647C77.2487 454.047 73.8416 452.994 71.1108 451.513L71.1113 451.513ZM50.4565 461.273H80.9715L80.4998 462.466H50.9288L50.4571 461.273H50.4565ZM51.8633 419.171H79.5641L80.0364 420.364H51.3916L51.8639 419.171H51.8633ZM79.5641 464.829H51.8633L51.391 463.636H80.0358L79.5635 464.829H79.5641Z" fill="#5D9EFF"/>
<path d="M147.183 427.431L148.812 423.543C148.842 423.472 148.857 423.395 148.857 423.317V418.59C148.857 418.376 148.74 418.179 148.551 418.075C148.362 417.97 148.131 417.976 147.946 418.088L145.713 419.453L143.479 418.088C143.287 417.971 143.044 417.971 142.851 418.088L140.618 419.453L138.385 418.088C138.192 417.971 137.949 417.971 137.757 418.088L135.523 419.453L133.29 418.088C133.098 417.971 132.854 417.971 132.662 418.088L130.429 419.453L128.195 418.088C128.003 417.971 127.759 417.971 127.567 418.088L125.334 419.453L123.1 418.088C122.908 417.971 122.665 417.971 122.472 418.088L120.239 419.453L118.006 418.089C117.814 417.972 117.57 417.972 117.378 418.089L115.144 419.454L112.911 418.089C112.727 417.976 112.496 417.972 112.306 418.075C112.117 418.179 112 418.377 112 418.59V423.317C112 423.395 112.016 423.471 112.045 423.543L113.675 427.431V456.568L112.045 460.457C112.016 460.528 112 460.605 112 460.683V465.41C112 465.624 112.117 465.821 112.306 465.925C112.496 466.029 112.727 466.024 112.911 465.912L115.144 464.547L117.378 465.912C117.57 466.029 117.814 466.029 118.006 465.912L120.239 464.547L122.472 465.912C122.665 466.029 122.908 466.029 123.1 465.912L125.334 464.547L127.567 465.912C127.759 466.029 128.003 466.029 128.195 465.912L130.429 464.547L132.662 465.912C132.854 466.029 133.098 466.029 133.29 465.912L135.523 464.547L137.757 465.912C137.949 466.029 138.192 466.029 138.385 465.912L140.618 464.547L142.851 465.912C142.948 465.971 143.057 466 143.165 466C143.274 466 143.383 465.971 143.479 465.912L145.713 464.547L147.946 465.912C148.131 466.024 148.362 466.029 148.551 465.925C148.74 465.821 148.857 465.624 148.857 465.41V460.683C148.857 460.606 148.842 460.529 148.812 460.457L147.183 456.569V427.431ZM147.663 460.8V462.456H113.194V460.8L113.243 460.682H147.614L147.663 460.8ZM113.194 423.201V421.544H147.663V423.201L147.614 423.318H113.243L113.194 423.201ZM114.869 447.996V434.956H145.989V447.996H114.869Z" fill="#FF5858"/>
<path d="M157.431 373.477H155.407V359.203H157.431V373.477ZM149.704 360.211C150.418 360.211 151.058 360.419 151.626 360.836C152.199 361.253 152.644 361.844 152.962 362.609C153.285 363.375 153.446 364.266 153.446 365.281C153.446 366.302 153.285 367.195 152.962 367.961C152.644 368.727 152.199 369.318 151.626 369.734C151.058 370.146 150.418 370.352 149.704 370.352C148.98 370.352 148.332 370.146 147.759 369.734C147.191 369.318 146.746 368.727 146.423 367.961C146.1 367.195 145.938 366.302 145.938 365.281C145.938 364.266 146.1 363.375 146.423 362.609C146.746 361.844 147.191 361.253 147.759 360.836C148.332 360.419 148.98 360.211 149.704 360.211ZM149.704 362.016C149.339 362.01 149.016 362.135 148.735 362.391C148.459 362.641 148.246 363.013 148.095 363.508C147.949 363.997 147.876 364.589 147.876 365.281C147.876 365.974 147.949 366.565 148.095 367.055C148.246 367.544 148.459 367.917 148.735 368.172C149.016 368.422 149.339 368.547 149.704 368.547C150.063 368.547 150.381 368.422 150.657 368.172C150.933 367.917 151.147 367.544 151.298 367.055C151.449 366.565 151.524 365.974 151.524 365.281C151.524 364.589 151.449 363.997 151.298 363.508C151.147 363.013 150.933 362.641 150.657 362.391C150.386 362.135 150.069 362.01 149.704 362.016ZM169.661 364.602H165.958V363H169.661V364.602ZM171.161 369.719H169.176V359.234H171.161V369.719ZM171.465 373.195H161.692V371.586H171.465V373.195ZM163.708 372.5H161.692V368.672H163.708V372.5ZM161.786 362.336H164.583V360.164H166.559V367.477H159.778V360.164H161.786V362.336ZM164.583 365.898V363.859H161.786V365.898H164.583ZM174.516 364.414C176.047 364.414 177.279 364.38 178.211 364.312C179.144 364.245 180.055 364.122 180.946 363.945L181.164 365.484C180.571 365.62 179.961 365.724 179.336 365.797C178.717 365.865 178.045 365.909 177.321 365.93C176.597 365.951 175.662 365.961 174.516 365.961H173.329V364.414H174.516ZM179.727 361.523H175.305V365.281H173.329V359.961H179.727V361.523ZM184.11 366.297H182.118V359.203H184.11V366.297ZM186.032 363.531H183.547V361.914H186.032V363.531ZM184.11 370.789H176.664V372.508H174.704V369.305H182.125V368.453H174.68V366.867H184.11V370.789ZM184.524 373.281H174.704V371.68H184.524V373.281ZM200.508 361.633H191.492V360.055H200.508V361.633ZM202.984 367.711H190.016V366.102H202.984V367.711ZM197.43 373.453H195.43V367.219H197.43V373.453ZM201.461 361.32C201.461 362.039 201.451 362.648 201.43 363.148C201.414 363.648 201.362 364.232 201.273 364.898C201.19 365.56 201.062 366.281 200.891 367.062L198.922 366.844C199.094 366.104 199.219 365.414 199.297 364.773C199.38 364.128 199.43 363.557 199.445 363.062C199.461 362.568 199.469 361.99 199.469 361.328V360.055H201.461V361.32ZM215.988 373.438H214.074V359.203H215.988V373.438ZM214.707 366.266H212.301V364.648H214.707V366.266ZM212.793 372.781H210.918V359.422H212.793V372.781ZM209.715 369.867H204.058V360.688H209.715V369.867ZM205.926 368.297H207.855V362.258H205.926V368.297ZM232.738 369.453H230.745V359.234H232.738V369.453ZM233.128 373.195H223.214V371.586H233.128V373.195ZM225.23 372.242H223.214V368.43H225.23V372.242ZM224.949 360.133C225.673 360.133 226.331 360.286 226.925 360.594C227.524 360.896 227.993 361.323 228.331 361.875C228.67 362.422 228.839 363.034 228.839 363.711C228.839 364.409 228.67 365.031 228.331 365.578C227.993 366.125 227.524 366.555 226.925 366.867C226.331 367.174 225.673 367.328 224.949 367.328C224.225 367.328 223.566 367.174 222.972 366.867C222.383 366.555 221.917 366.125 221.574 365.578C221.23 365.031 221.058 364.409 221.058 363.711C221.058 363.034 221.23 362.422 221.574 361.875C221.917 361.323 222.383 360.896 222.972 360.594C223.566 360.286 224.225 360.133 224.949 360.133ZM224.949 361.867C224.579 361.862 224.245 361.935 223.949 362.086C223.657 362.232 223.425 362.445 223.253 362.727C223.087 363.008 223.003 363.336 223.003 363.711C223.003 364.096 223.087 364.432 223.253 364.719C223.425 365 223.657 365.216 223.949 365.367C224.245 365.513 224.579 365.586 224.949 365.586C225.313 365.586 225.639 365.513 225.925 365.367C226.217 365.216 226.446 365 226.613 364.719C226.779 364.432 226.863 364.096 226.863 363.711C226.863 363.336 226.779 363.008 226.613 362.727C226.446 362.445 226.217 362.232 225.925 362.086C225.639 361.935 225.313 361.862 224.949 361.867ZM247.468 367.375H234.499V365.773H247.468V367.375ZM240.96 368.164C241.986 368.164 242.872 368.268 243.616 368.477C244.361 368.685 244.929 368.987 245.319 369.383C245.715 369.779 245.913 370.253 245.913 370.805C245.913 371.362 245.715 371.839 245.319 372.234C244.929 372.63 244.361 372.93 243.616 373.133C242.877 373.336 241.991 373.438 240.96 373.438C239.929 373.438 239.038 373.336 238.288 373.133C237.543 372.93 236.97 372.63 236.569 372.234C236.174 371.839 235.976 371.362 235.976 370.805C235.976 370.253 236.176 369.779 236.577 369.383C236.978 368.987 237.551 368.685 238.296 368.477C239.046 368.268 239.934 368.164 240.96 368.164ZM240.96 369.711C240.299 369.711 239.749 369.75 239.312 369.828C238.874 369.906 238.546 370.029 238.327 370.195C238.114 370.357 238.007 370.56 238.007 370.805C238.007 371.044 238.116 371.245 238.335 371.406C238.554 371.568 238.879 371.69 239.312 371.773C239.744 371.852 240.293 371.891 240.96 371.891C241.616 371.891 242.161 371.852 242.593 371.773C243.03 371.69 243.359 371.568 243.577 371.406C243.796 371.245 243.905 371.044 243.905 370.805C243.905 370.56 243.796 370.357 243.577 370.195C243.359 370.029 243.03 369.906 242.593 369.828C242.161 369.75 241.616 369.711 240.96 369.711ZM241.366 361.023C241.366 361.747 241.15 362.409 240.718 363.008C240.286 363.602 239.645 364.096 238.796 364.492C237.947 364.883 236.924 365.133 235.726 365.242L235.069 363.688C236.049 363.594 236.879 363.411 237.562 363.141C238.249 362.865 238.762 362.542 239.101 362.172C239.439 361.802 239.609 361.419 239.609 361.023V360.641H241.366V361.023ZM242.335 361.023C242.335 361.419 242.502 361.802 242.835 362.172C243.174 362.542 243.687 362.865 244.374 363.141C245.062 363.411 245.908 363.594 246.913 363.688L246.21 365.242C245.023 365.133 244.004 364.883 243.155 364.492C242.306 364.096 241.658 363.602 241.21 363.008C240.767 362.409 240.546 361.747 240.546 361.023V360.641H242.335V361.023ZM246.296 361.469H235.671V359.875H246.296V361.469Z" fill="white"/>
<path d="M95.6719 572.219V586.469H93.6562V572.219H95.6719ZM87.9531 573.219C90.0938 573.219 91.6875 575.188 91.6875 578.281C91.6875 581.406 90.0938 583.359 87.9531 583.359C85.7656 583.359 84.1719 581.406 84.1875 578.281C84.1719 575.188 85.7656 573.219 87.9531 573.219ZM87.9531 575.016C86.8438 575.016 86.1094 576.172 86.1094 578.281C86.1094 580.406 86.8438 581.547 87.9531 581.547C89.0312 581.547 89.7656 580.406 89.7656 578.281C89.7656 576.172 89.0312 575.016 87.9531 575.016ZM109.578 572.234V582.719H107.594V577.594H104.969V580.469H98.2031V573.156H100.203V575.344H103V573.156H104.969V576H107.594V572.234H109.578ZM109.875 584.594V586.188H100.109V581.672H102.125V584.594H109.875ZM100.203 578.906H103V576.859H100.203V578.906ZM122 572.953V574.531H117.594V577.406C120.07 577.398 121.562 577.289 123.234 576.938L123.438 578.484C121.594 578.906 119.859 578.969 116.797 578.953H115.609V572.953H122ZM126.391 572.219V574.906H128.312V576.531H126.391V579.297H124.391V572.219H126.391ZM126.391 579.875V583.797H118.938V584.688H126.797V586.281H116.984V582.297H124.406V581.453H116.953V579.875H126.391ZM141.266 572.219V586.438H139.359V572.219H141.266ZM138.297 572.422V585.781H136.422V579.062H135.281C135.094 581.859 133.906 583.547 132.156 583.547C130.281 583.547 129.062 581.578 129.062 578.375C129.062 575.188 130.281 573.234 132.156 573.234C133.867 573.234 135.039 574.828 135.266 577.484H136.422V572.422H138.297ZM132.156 575.109C131.359 575.109 130.891 576.203 130.906 578.375C130.891 580.562 131.359 581.641 132.156 581.625C132.969 581.641 133.453 580.562 133.453 578.375C133.453 576.203 132.969 575.109 132.156 575.109ZM154.312 576.094V577.656H144.375V572.719H146.359V576.094H154.312ZM155.766 579.188V580.75H142.75V579.188H155.766ZM154.406 584.531V586.125H144.25V581.906H146.25V584.531H154.406ZM171.734 573.047V574.328C171.734 575.656 171.734 577.109 171.375 579.094H173.25V580.703H167.703V586.453H165.703V580.703H160.281V579.094H169.359C169.719 577.258 169.75 575.867 169.75 574.641H161.766V573.047H171.734ZM186.438 572.219V586.438H184.531V579.266H183.25V585.781H181.359V572.422H183.25V577.641H184.531V572.219H186.438ZM180.172 573.688V582.859H174.516V573.688H180.172ZM176.375 575.266V581.297H178.312V575.266H176.375ZM203.531 572.234V582.453H201.531V572.234H203.531ZM203.906 584.594V586.188H194V581.422H196.016V584.594H203.906ZM195.734 573.141C197.922 573.141 199.625 574.641 199.625 576.719C199.625 578.844 197.922 580.328 195.734 580.328C193.547 580.328 191.844 578.844 191.844 576.719C191.844 574.641 193.547 573.141 195.734 573.141ZM195.734 574.875C194.625 574.859 193.781 575.562 193.797 576.719C193.781 577.906 194.625 578.594 195.734 578.594C196.812 578.594 197.656 577.906 197.656 576.719C197.656 575.562 196.812 574.859 195.734 574.875ZM218.422 578.766V580.375H205.453V578.766H218.422ZM211.922 581.172C215 581.172 216.859 582.141 216.875 583.812C216.859 585.5 215 586.438 211.922 586.438C208.812 586.438 206.938 585.5 206.938 583.812C206.938 582.141 208.812 581.172 211.922 581.172ZM211.922 582.719C209.953 582.719 208.953 583.062 208.969 583.812C208.953 584.547 209.953 584.891 211.922 584.891C213.844 584.891 214.859 584.547 214.875 583.812C214.859 583.062 213.844 582.719 211.922 582.719ZM217.25 572.875V574.469H213.375C213.695 575.461 215.141 576.445 217.875 576.688L217.172 578.25C214.492 577.992 212.68 576.977 211.922 575.594C211.172 576.977 209.391 577.992 206.688 578.25L206.031 576.688C208.703 576.445 210.164 575.469 210.5 574.469H206.641V572.875H217.25ZM225.766 572.422C229.031 572.422 230.922 573.281 230.938 574.844C230.922 576.422 229.031 577.281 225.766 577.281C222.484 577.281 220.578 576.422 220.578 574.844C220.578 573.281 222.484 572.422 225.766 572.422ZM225.766 573.875C223.672 573.875 222.656 574.219 222.672 574.844C222.656 575.547 223.672 575.812 225.766 575.812C227.875 575.812 228.875 575.547 228.875 574.844C228.875 574.219 227.875 573.875 225.766 573.875ZM232.25 577.953V579.531H219.281V577.953H232.25ZM230.672 580.359V583.984H222.75V584.844H231.047V586.344H220.797V582.594H228.703V581.812H220.781V580.359H230.672ZM237.266 585L237.25 583.297L241.312 579.562C242.375 578.547 242.938 577.922 242.938 577.031C242.938 576.031 242.172 575.406 241.141 575.406C240.078 575.406 239.391 576.078 239.391 577.156H237.156C237.141 574.938 238.781 573.531 241.172 573.531C243.594 573.531 245.203 574.906 245.203 576.875C245.203 578.156 244.578 579.219 242.25 581.328L240.531 583V583.062H245.359V585H237.266ZM258.516 572.219V586.438H256.531V572.219H258.516ZM246.625 582.422C247.711 582.414 248.953 582.414 250.25 582.375V581.172C248.688 580.898 247.672 579.93 247.688 578.594C247.672 577 249.125 575.922 251.219 575.922C253.328 575.922 254.797 577 254.797 578.594C254.797 579.922 253.781 580.891 252.219 581.172V582.312C253.406 582.258 254.609 582.164 255.75 582.016L255.891 583.484C252.781 584.016 249.422 584.047 246.891 584.047L246.625 582.422ZM255.547 573.797V575.359H246.906V573.797H250.25V572.281H252.234V573.797H255.547ZM251.219 577.438C250.25 577.438 249.562 577.859 249.578 578.594C249.562 579.344 250.25 579.75 251.219 579.75C252.219 579.75 252.891 579.344 252.891 578.594C252.891 577.859 252.219 577.438 251.219 577.438ZM276.297 572.234V580.984H274.406V577.484H273.297V580.828H271.438V572.422H273.297V575.875H274.406V572.234H276.297ZM270.984 573.578V575.156H264V573.578H266.516V572.297H268.5V573.578H270.984ZM267.516 575.609C269.328 575.609 270.609 576.609 270.625 578.094C270.609 579.547 269.328 580.578 267.516 580.578C265.734 580.578 264.438 579.547 264.438 578.094C264.438 576.609 265.734 575.609 267.516 575.609ZM267.516 577.031C266.734 577.031 266.219 577.391 266.219 578.094C266.219 578.766 266.734 579.141 267.516 579.141C268.297 579.141 268.812 578.766 268.828 578.094C268.812 577.391 268.297 577.031 267.516 577.031ZM269.531 581.719C269.516 582.758 269.977 583.828 271.109 584.531C272.234 583.789 272.734 582.664 272.75 581.719V581.422H274.734V581.719C274.719 583.047 275.516 584.297 277.406 584.781L276.484 586.266C275.109 585.852 274.203 585.023 273.719 583.969C273.25 585.016 272.43 585.938 271.141 586.406C269.812 585.945 268.977 585.078 268.531 584.031C268.008 585.031 267.117 585.844 265.812 586.266L264.875 584.781C266.719 584.25 267.547 582.969 267.547 581.719V581.422H269.531V581.719ZM281.828 573.219C283.75 573.219 285.18 574.805 285.469 577.359H287.938V572.219H289.906V586.469H287.938V578.953H285.484C285.273 581.688 283.812 583.359 281.828 583.359C279.672 583.359 278.125 581.406 278.141 578.281C278.125 575.188 279.672 573.219 281.828 573.219ZM281.828 575.016C280.766 575.016 280.031 576.172 280.047 578.281C280.031 580.406 280.766 581.547 281.828 581.547C282.906 581.547 283.609 580.406 283.609 578.281C283.609 576.172 282.906 575.016 281.828 575.016ZM304.75 583.141V584.781H291.734V583.141H294.641V579.656C293.539 579 292.875 577.992 292.875 576.734C292.875 574.438 295.125 572.906 298.219 572.906C301.297 572.906 303.562 574.438 303.578 576.734C303.57 577.961 302.922 578.961 301.859 579.625V583.141H304.75ZM298.219 574.484C296.188 574.484 294.844 575.297 294.844 576.734C294.844 578.125 296.188 578.984 298.219 578.984C300.234 578.984 301.594 578.125 301.609 576.734C301.594 575.297 300.234 574.484 298.219 574.484ZM296.609 583.141H299.844V580.375C299.336 580.477 298.789 580.531 298.219 580.531C297.648 580.531 297.109 580.484 296.609 580.375V583.141ZM307.406 585.141C306.672 585.141 306.078 584.547 306.094 583.828C306.078 583.109 306.672 582.531 307.406 582.531C308.094 582.531 308.703 583.109 308.703 583.828C308.703 584.547 308.094 585.141 307.406 585.141ZM40.5938 604.156C38.0156 604.156 36.1562 602.797 36.1562 600.953C36.1562 599.531 37.25 598.375 38.6562 598.156V598.078C37.4375 597.844 36.5938 596.812 36.5938 595.578C36.5938 593.812 38.2812 592.531 40.5938 592.531C42.9062 592.531 44.5938 593.812 44.6094 595.578C44.5938 596.828 43.7344 597.844 42.5469 598.078V598.156C43.9219 598.375 45.0312 599.531 45.0312 600.953C45.0312 602.797 43.1719 604.156 40.5938 604.156ZM40.5938 602.359C41.7812 602.359 42.5781 601.688 42.5781 600.719C42.5781 599.734 41.75 599.016 40.5938 599.016C39.4375 599.016 38.5938 599.734 38.6094 600.719C38.5938 601.688 39.3906 602.359 40.5938 602.359ZM40.5938 597.359C41.5938 597.359 42.3125 596.719 42.3125 595.812C42.3125 594.938 41.6094 594.312 40.5938 594.312C39.5781 594.312 38.8906 594.922 38.8906 595.812C38.8906 596.719 39.5938 597.359 40.5938 597.359ZM58.125 591.219V605.438H56.1406V591.219H58.125ZM46.2344 601.422C47.3203 601.414 48.5625 601.414 49.8594 601.375V600.172C48.2969 599.898 47.2812 598.93 47.2969 597.594C47.2812 596 48.7344 594.922 50.8281 594.922C52.9375 594.922 54.4062 596 54.4062 597.594C54.4062 598.922 53.3906 599.891 51.8281 600.172V601.312C53.0156 601.258 54.2188 601.164 55.3594 601.016L55.5 602.484C52.3906 603.016 49.0312 603.047 46.5 603.047L46.2344 601.422ZM55.1562 592.797V594.359H46.5156V592.797H49.8594V591.281H51.8438V592.797H55.1562ZM50.8281 596.438C49.8594 596.438 49.1719 596.859 49.1875 597.594C49.1719 598.344 49.8594 598.75 50.8281 598.75C51.8281 598.75 52.5 598.344 52.5 597.594C52.5 596.859 51.8281 596.438 50.8281 596.438ZM70.8438 592.469V594.094H66.375V600.406C68.4453 600.383 69.9375 600.289 71.6094 599.984L71.8125 601.594C69.8594 601.969 68.1406 602.047 65.5156 602.031H64.3594V592.469H70.8438ZM75.7031 591.219V605.469H73.7188V597.766H70.1406V596.141H73.7188V591.219H75.7031ZM93.1094 591.234V601.453H91.1094V591.234H93.1094ZM93.4844 603.594V605.188H83.5781V600.422H85.5938V603.594H93.4844ZM85.3125 592.141C87.5 592.141 89.2031 593.641 89.2031 595.719C89.2031 597.844 87.5 599.328 85.3125 599.328C83.125 599.328 81.4219 597.844 81.4219 595.719C81.4219 593.641 83.125 592.141 85.3125 592.141ZM85.3125 593.875C84.2031 593.859 83.3594 594.562 83.375 595.719C83.3594 596.906 84.2031 597.594 85.3125 597.594C86.3906 597.594 87.2344 596.906 87.2344 595.719C87.2344 594.562 86.3906 593.859 85.3125 593.875ZM108 597.766V599.375H95.0312V597.766H108ZM101.5 600.172C104.578 600.172 106.438 601.141 106.453 602.812C106.438 604.5 104.578 605.438 101.5 605.438C98.3906 605.438 96.5156 604.5 96.5156 602.812C96.5156 601.141 98.3906 600.172 101.5 600.172ZM101.5 601.719C99.5312 601.719 98.5312 602.062 98.5469 602.812C98.5312 603.547 99.5312 603.891 101.5 603.891C103.422 603.891 104.438 603.547 104.453 602.812C104.438 602.062 103.422 601.719 101.5 601.719ZM106.828 591.875V593.469H102.953C103.273 594.461 104.719 595.445 107.453 595.688L106.75 597.25C104.07 596.992 102.258 595.977 101.5 594.594C100.75 595.977 98.9688 596.992 96.2656 597.25L95.6094 595.688C98.2812 595.445 99.7422 594.469 100.078 593.469H96.2188V591.875H106.828ZM118.078 594.438C118.078 597.047 119.266 599.672 121.672 600.688L120.5 602.281C118.875 601.547 117.75 600.133 117.109 598.375C116.461 600.289 115.297 601.836 113.562 602.625L112.359 600.969C114.844 599.922 116.047 597.203 116.062 594.438V592.312H118.078V594.438ZM124.453 591.219V605.469H122.438V591.219H124.453ZM141.516 592.047V593.328C141.516 594.656 141.516 596.109 141.156 598.094H143.031V599.703H137.484V605.453H135.484V599.703H130.062V598.094H139.141C139.5 596.258 139.531 594.867 139.531 593.641H131.547V592.047H141.516ZM156.859 598.109V599.688H143.891V598.109H149.375V596.844H145.469V591.781H155.328V593.359H147.453V595.234H155.469V596.844H151.375V598.109H156.859ZM155.312 600.672V605.484H153.359V602.25H145.328V600.672H155.312ZM170.734 602.219V603.859H157.719V602.219H161.047V600.047H159.219V595.266H167.266V593.734H159.203V592.141H169.234V596.859H161.219V598.438H169.562V600.047H167.547V602.219H170.734ZM162.984 602.219H165.594V600.047H162.984V602.219ZM180.578 592.688V604H178.219V594.922H178.156L175.562 596.547V594.469L178.359 592.688H180.578ZM185.125 602.844L183.781 607.297H182.125L182.906 602.844H185.125ZM191.109 604.156C188.281 604.156 186.562 602.047 186.562 598.344C186.562 594.641 188.281 592.531 191.109 592.531C193.938 592.531 195.656 594.656 195.656 598.344C195.656 602.062 193.938 604.156 191.109 604.156ZM191.109 602.219C192.422 602.219 193.266 600.953 193.25 598.344C193.25 595.766 192.422 594.453 191.109 594.453C189.797 594.453 188.969 595.766 188.969 598.344C188.953 600.953 189.797 602.219 191.109 602.219ZM201.672 604.156C198.844 604.156 197.125 602.047 197.125 598.344C197.125 594.641 198.844 592.531 201.672 592.531C204.5 592.531 206.219 594.656 206.219 598.344C206.219 602.062 204.5 604.156 201.672 604.156ZM201.672 602.219C202.984 602.219 203.828 600.953 203.812 598.344C203.812 595.766 202.984 594.453 201.672 594.453C200.359 594.453 199.531 595.766 199.531 598.344C199.516 600.953 200.359 602.219 201.672 602.219ZM212.234 604.156C209.406 604.156 207.688 602.047 207.688 598.344C207.688 594.641 209.406 592.531 212.234 592.531C215.062 592.531 216.781 594.656 216.781 598.344C216.781 602.062 215.062 604.156 212.234 604.156ZM212.234 602.219C213.547 602.219 214.391 600.953 214.375 598.344C214.375 595.766 213.547 594.453 212.234 594.453C210.922 594.453 210.094 595.766 210.094 598.344C210.078 600.953 210.922 602.219 212.234 602.219ZM229.984 591.234V601.969H227.984V600.844H225.266V599.484H227.984V591.234H229.984ZM230.297 603.594V605.188H219.703V600.938H221.688V599.047C220.414 599.102 219.203 599.109 218.125 599.109L217.891 597.531C220.5 597.516 224.016 597.484 227.016 597.109L227.125 598.531C226 598.719 224.836 598.852 223.688 598.938V601.641H221.688V603.594H230.297ZM222.516 591.719C224.578 591.703 226.062 592.75 226.062 594.266C226.062 595.781 224.578 596.766 222.516 596.766C220.406 596.766 218.938 595.781 218.938 594.266C218.938 592.75 220.391 591.703 222.516 591.719ZM222.516 593.172C221.5 593.172 220.812 593.562 220.828 594.266C220.812 594.953 221.5 595.328 222.516 595.328C223.469 595.328 224.156 594.953 224.172 594.266C224.156 593.562 223.469 593.172 222.516 593.172ZM246.734 591.188V594.281H248.656V595.875H246.734V598.891H244.734V591.188H246.734ZM246.734 599.469V603.062H239.281V603.875H247.141V605.344H237.328V601.703H244.75V600.906H237.297V599.469H246.734ZM243.891 592.281V593.797H235.453V592.281H238.688V591.125H240.672V592.281H243.891ZM239.672 594.141C241.797 594.141 243.172 595.047 243.172 596.469C243.172 597.922 241.797 598.797 239.672 598.797C237.547 598.797 236.141 597.922 236.141 596.469C236.141 595.047 237.547 594.141 239.672 594.141ZM239.672 595.547C238.688 595.547 238.078 595.875 238.094 596.469C238.078 597.078 238.688 597.375 239.672 597.375C240.656 597.375 241.281 597.078 241.281 596.469C241.281 595.875 240.656 595.547 239.672 595.547ZM261.188 591.234V601.453H259.188V591.234H261.188ZM261.562 603.594V605.188H251.656V600.422H253.672V603.594H261.562ZM253.391 592.141C255.578 592.141 257.281 593.641 257.281 595.719C257.281 597.844 255.578 599.328 253.391 599.328C251.203 599.328 249.5 597.844 249.5 595.719C249.5 593.641 251.203 592.141 253.391 592.141ZM253.391 593.875C252.281 593.859 251.438 594.562 251.453 595.719C251.438 596.906 252.281 597.594 253.391 597.594C254.469 597.594 255.312 596.906 255.312 595.719C255.312 594.562 254.469 593.859 253.391 593.875ZM279.125 591.219V605.438H277.219V591.219H279.125ZM276.312 591.453V604.812H274.453V600.703H272.844C272.344 601.781 271.352 602.453 270.125 602.453C268.375 602.453 267.078 601.047 267.094 599.031C267.078 597.016 268.375 595.609 270.125 595.609C271.906 595.609 273.188 597.016 273.188 599.031V599.141H274.453V597.438H272.891V595.812H274.453V591.453H276.312ZM273.547 593.375V594.953H266.781V593.375H269.188V591.562H271.172V593.375H273.547ZM270.125 597.297C269.344 597.297 268.828 597.906 268.828 599.031C268.828 600.125 269.344 600.766 270.125 600.766C270.922 600.766 271.453 600.125 271.469 599.031C271.453 597.906 270.922 597.297 270.125 597.297ZM286.75 592.172V593.766H283.031V594.938H286.609V596.453H283.031V597.703C284.609 597.695 285.781 597.633 287.094 597.406L287.297 599C285.625 599.297 284.234 599.344 282.094 599.344H281.125V592.172H286.75ZM292.844 591.234V599.906H290.953V596.297H289.719V599.797H287.859V591.484H289.719V594.703H290.953V591.234H292.844ZM292.844 600.5V605.438H290.859V602.094H283.016V600.5H292.844ZM306.359 591.219V605.469H304.344V591.219H306.359ZM298.641 592.219C300.781 592.219 302.375 594.188 302.375 597.281C302.375 600.406 300.781 602.359 298.641 602.359C296.453 602.359 294.859 600.406 294.875 597.281C294.859 594.188 296.453 592.219 298.641 592.219ZM298.641 594.016C297.531 594.016 296.797 595.172 296.797 597.281C296.797 599.406 297.531 600.547 298.641 600.547C299.719 600.547 300.453 599.406 300.453 597.281C300.453 595.172 299.719 594.016 298.641 594.016ZM317.141 600.344C317.141 601.492 317.617 602.672 318.781 603.453C319.953 602.625 320.469 601.398 320.469 600.344V599.859H322.438V600.344C322.422 601.828 323.219 603.203 325.109 603.781L324.141 605.234C322.781 604.773 321.891 603.906 321.406 602.812C320.93 603.906 320.102 604.859 318.828 605.359C317.484 604.875 316.648 603.953 316.188 602.859C315.688 603.922 314.812 604.781 313.516 605.234L312.531 603.781C314.406 603.141 315.188 601.734 315.203 600.344V599.859H317.141V600.344ZM323.875 591.234V599.266H321.875V591.234H323.875ZM316.078 591.953C318.297 591.953 319.969 593.359 319.969 595.375C319.969 597.359 318.297 598.766 316.078 598.766C313.859 598.766 312.188 597.359 312.188 595.375C312.188 593.359 313.859 591.953 316.078 591.953ZM316.078 593.625C314.938 593.625 314.125 594.281 314.141 595.375C314.125 596.453 314.938 597.109 316.078 597.109C317.188 597.109 318 596.453 318 595.375C318 594.281 317.188 593.625 316.078 593.625ZM329.719 592.219C331.641 592.219 333.07 593.805 333.359 596.359H335.828V591.219H337.797V605.469H335.828V597.953H333.375C333.164 600.688 331.703 602.359 329.719 602.359C327.562 602.359 326.016 600.406 326.031 597.281C326.016 594.188 327.562 592.219 329.719 592.219ZM329.719 594.016C328.656 594.016 327.922 595.172 327.938 597.281C327.922 599.406 328.656 600.547 329.719 600.547C330.797 600.547 331.5 599.406 331.5 597.281C331.5 595.172 330.797 594.016 329.719 594.016ZM352.641 602.141V603.781H339.625V602.141H342.531V598.656C341.43 598 340.766 596.992 340.766 595.734C340.766 593.438 343.016 591.906 346.109 591.906C349.188 591.906 351.453 593.438 351.469 595.734C351.461 596.961 350.812 597.961 349.75 598.625V602.141H352.641ZM346.109 593.484C344.078 593.484 342.734 594.297 342.734 595.734C342.734 597.125 344.078 597.984 346.109 597.984C348.125 597.984 349.484 597.125 349.5 595.734C349.484 594.297 348.125 593.484 346.109 593.484ZM344.5 602.141H347.734V599.375C347.227 599.477 346.68 599.531 346.109 599.531C345.539 599.531 345 599.484 344.5 599.375V602.141ZM355.297 604.141C354.562 604.141 353.969 603.547 353.984 602.828C353.969 602.109 354.562 601.531 355.297 601.531C355.984 601.531 356.594 602.109 356.594 602.828C356.594 603.547 355.984 604.141 355.297 604.141Z" fill="#FFFA87"/>
</svg>
