<svg width="220" viewBox="0 0 393 852" fill="none" xmlns="http://www.w3.org/2000/svg">
<g clip-path="url(#clip0_1043_4888)">
<rect width="393" height="852" fill="#101010"/>
<rect width="393" height="1005" fill="#101010"/>
<rect y="808" width="393" height="197" fill="#282828"/>
<rect width="208" height="50" transform="translate(93 236)" fill="#FFFA87"/>
<path d="M116.978 263.73H112.056V257.461H116.978V263.73ZM133.384 263.672H128.384V243.086H133.384V263.672ZM103.286 255.586C107.713 255.599 111.802 255.553 115.552 255.449C119.302 255.345 122.876 255.143 126.274 254.844L126.509 257.93C122.954 258.398 119.269 258.711 115.454 258.867C111.652 259.01 107.765 259.062 103.794 259.023L103.286 255.586ZM133.384 273.047H113.423V275.918H108.501V269.805H128.423V268.105H108.364V264.727H133.384V273.047ZM134.204 278.34H108.501V274.863H134.204V278.34ZM129.985 262.539H121.958V259.531H129.985V262.539ZM114.692 243.574C116.437 243.574 117.987 243.796 119.341 244.238C120.695 244.681 121.75 245.306 122.505 246.113C123.273 246.908 123.657 247.839 123.657 248.906C123.657 249.987 123.28 250.931 122.524 251.738C121.782 252.546 120.734 253.164 119.38 253.594C118.026 254.023 116.463 254.238 114.692 254.238C112.908 254.238 111.339 254.023 109.985 253.594C108.631 253.164 107.576 252.546 106.821 251.738C106.066 250.931 105.688 249.987 105.688 248.906C105.688 247.839 106.066 246.908 106.821 246.113C107.576 245.306 108.631 244.681 109.985 244.238C111.353 243.796 112.922 243.574 114.692 243.574ZM114.692 246.816C113.82 246.816 113.058 246.901 112.407 247.07C111.756 247.227 111.255 247.461 110.903 247.773C110.565 248.086 110.395 248.464 110.395 248.906C110.395 249.336 110.565 249.707 110.903 250.02C111.255 250.319 111.756 250.553 112.407 250.723C113.058 250.879 113.82 250.957 114.692 250.957C115.578 250.957 116.346 250.879 116.997 250.723C117.648 250.553 118.143 250.319 118.481 250.02C118.833 249.707 119.009 249.336 119.009 248.906C119.009 248.464 118.833 248.086 118.481 247.773C118.143 247.461 117.648 247.227 116.997 247.07C116.346 246.901 115.578 246.816 114.692 246.816ZM157.875 275.391C155.818 275.391 153.975 275.039 152.347 274.336C150.72 273.633 149.444 272.643 148.519 271.367C147.608 270.091 147.133 268.646 147.094 267.031H153.012C153.051 267.695 153.285 268.294 153.715 268.828C154.144 269.362 154.724 269.779 155.453 270.078C156.182 270.378 156.989 270.527 157.875 270.527C158.799 270.527 159.633 270.365 160.375 270.039C161.13 269.701 161.709 269.245 162.113 268.672C162.517 268.086 162.712 267.422 162.699 266.68C162.712 265.911 162.504 265.228 162.074 264.629C161.644 264.03 161.019 263.568 160.199 263.242C159.392 262.904 158.441 262.734 157.347 262.734H154.711V258.398H157.347C158.272 258.398 159.099 258.242 159.828 257.93C160.557 257.604 161.117 257.155 161.508 256.582C161.898 256.009 162.087 255.358 162.074 254.629C162.087 253.913 161.924 253.281 161.586 252.734C161.247 252.174 160.759 251.745 160.121 251.445C159.483 251.146 158.754 250.996 157.933 250.996C157.1 250.996 156.338 251.146 155.648 251.445C154.958 251.732 154.398 252.148 153.969 252.695C153.552 253.229 153.324 253.854 153.285 254.57H147.66C147.712 252.969 148.187 251.543 149.086 250.293C149.984 249.043 151.202 248.073 152.738 247.383C154.288 246.68 156.019 246.328 157.933 246.328C159.874 246.328 161.586 246.673 163.07 247.363C164.555 248.053 165.707 249.004 166.527 250.215C167.347 251.426 167.745 252.78 167.719 254.277C167.745 255.306 167.53 256.243 167.074 257.09C166.631 257.936 166 258.633 165.18 259.18C164.372 259.714 163.435 260.078 162.367 260.273V260.488C163.747 260.658 164.919 261.042 165.883 261.641C166.859 262.227 167.595 262.982 168.09 263.906C168.584 264.831 168.819 265.885 168.793 267.07C168.819 268.646 168.363 270.072 167.426 271.348C166.488 272.611 165.186 273.6 163.519 274.316C161.853 275.033 159.971 275.391 157.875 275.391ZM174.622 283.242H170.482L172.415 272.129H178.001L174.622 283.242ZM192.522 275.391C190.165 275.391 188.134 274.824 186.428 273.691C184.736 272.559 183.434 270.905 182.522 268.73C181.624 266.543 181.175 263.919 181.175 260.859C181.175 257.799 181.624 255.182 182.522 253.008C183.434 250.833 184.742 249.18 186.448 248.047C188.154 246.901 190.178 246.328 192.522 246.328C194.866 246.328 196.891 246.901 198.596 248.047C200.302 249.18 201.611 250.84 202.522 253.027C203.434 255.202 203.889 257.812 203.889 260.859C203.889 263.932 203.434 266.556 202.522 268.73C201.624 270.905 200.322 272.559 198.616 273.691C196.91 274.824 194.879 275.391 192.522 275.391ZM192.522 270.547C193.616 270.547 194.566 270.189 195.374 269.473C196.194 268.757 196.819 267.676 197.249 266.23C197.678 264.772 197.887 262.982 197.874 260.859C197.874 258.75 197.659 256.973 197.229 255.527C196.8 254.069 196.181 252.975 195.374 252.246C194.566 251.517 193.616 251.152 192.522 251.152C191.428 251.152 190.478 251.517 189.671 252.246C188.876 252.975 188.258 254.069 187.815 255.527C187.372 256.973 187.151 258.75 187.151 260.859C187.151 262.982 187.366 264.772 187.796 266.23C188.238 267.676 188.863 268.757 189.671 269.473C190.478 270.189 191.428 270.547 192.522 270.547ZM218.488 275.391C216.132 275.391 214.1 274.824 212.395 273.691C210.702 272.559 209.4 270.905 208.488 268.73C207.59 266.543 207.141 263.919 207.141 260.859C207.141 257.799 207.59 255.182 208.488 253.008C209.4 250.833 210.708 249.18 212.414 248.047C214.12 246.901 216.145 246.328 218.488 246.328C220.832 246.328 222.857 246.901 224.563 248.047C226.268 249.18 227.577 250.84 228.488 253.027C229.4 255.202 229.856 257.812 229.856 260.859C229.856 263.932 229.4 266.556 228.488 268.73C227.59 270.905 226.288 272.559 224.582 273.691C222.876 274.824 220.845 275.391 218.488 275.391ZM218.488 270.547C219.582 270.547 220.533 270.189 221.34 269.473C222.16 268.757 222.785 267.676 223.215 266.23C223.645 264.772 223.853 262.982 223.84 260.859C223.84 258.75 223.625 256.973 223.195 255.527C222.766 254.069 222.147 252.975 221.34 252.246C220.533 251.517 219.582 251.152 218.488 251.152C217.395 251.152 216.444 251.517 215.637 252.246C214.843 252.975 214.224 254.069 213.781 255.527C213.339 256.973 213.117 258.75 213.117 260.859C213.117 262.982 213.332 264.772 213.762 266.23C214.205 267.676 214.83 268.757 215.637 269.473C216.444 270.189 217.395 270.547 218.488 270.547ZM244.455 275.391C242.098 275.391 240.067 274.824 238.361 273.691C236.668 272.559 235.366 270.905 234.455 268.73C233.556 266.543 233.107 263.919 233.107 260.859C233.107 257.799 233.556 255.182 234.455 253.008C235.366 250.833 236.675 249.18 238.38 248.047C240.086 246.901 242.111 246.328 244.455 246.328C246.798 246.328 248.823 246.901 250.529 248.047C252.235 249.18 253.543 250.84 254.455 253.027C255.366 255.202 255.822 257.812 255.822 260.859C255.822 263.932 255.366 266.556 254.455 268.73C253.556 270.905 252.254 272.559 250.548 273.691C248.843 274.824 246.811 275.391 244.455 275.391ZM244.455 270.547C245.548 270.547 246.499 270.189 247.306 269.473C248.127 268.757 248.752 267.676 249.181 266.23C249.611 264.772 249.819 262.982 249.806 260.859C249.806 258.75 249.591 256.973 249.162 255.527C248.732 254.069 248.114 252.975 247.306 252.246C246.499 251.517 245.548 251.152 244.455 251.152C243.361 251.152 242.41 251.517 241.603 252.246C240.809 252.975 240.19 254.069 239.748 255.527C239.305 256.973 239.084 258.75 239.084 260.859C239.084 262.982 239.298 264.772 239.728 266.23C240.171 267.676 240.796 268.757 241.603 269.473C242.41 270.189 243.361 270.547 244.455 270.547ZM272.667 269.082H267.647V261.23H272.667V269.082ZM288.39 269.941H283.39V243.086H288.39V269.941ZM289.171 277.988H262.647V273.965H289.171V277.988ZM267.667 275.039H262.647V267.363H267.667V275.039ZM258.136 258.848C263.006 258.783 267.205 258.691 270.733 258.574C274.275 258.444 277.693 258.171 280.987 257.754L281.241 261.328C277.791 261.914 274.177 262.305 270.401 262.5C266.638 262.695 262.745 262.786 258.722 262.773L258.136 258.848ZM284.522 267.109H276.593V263.711H284.522V267.109ZM269.698 244.277C271.404 244.264 272.927 244.531 274.269 245.078C275.623 245.612 276.677 246.367 277.433 247.344C278.201 248.307 278.585 249.408 278.585 250.645C278.585 251.908 278.201 253.008 277.433 253.945C276.677 254.883 275.629 255.618 274.288 256.152C272.947 256.673 271.417 256.934 269.698 256.934C267.967 256.934 266.424 256.673 265.069 256.152C263.715 255.618 262.661 254.883 261.905 253.945C261.15 253.008 260.772 251.908 260.772 250.645C260.772 249.408 261.15 248.301 261.905 247.324C262.661 246.348 263.715 245.592 265.069 245.059C266.424 244.525 267.967 244.264 269.698 244.277ZM269.698 247.93C268.865 247.917 268.129 248.021 267.491 248.242C266.853 248.451 266.358 248.763 266.007 249.18C265.668 249.596 265.499 250.085 265.499 250.645C265.499 251.204 265.668 251.693 266.007 252.109C266.358 252.513 266.853 252.819 267.491 253.027C268.129 253.236 268.865 253.34 269.698 253.34C270.519 253.34 271.235 253.236 271.847 253.027C272.472 252.819 272.96 252.513 273.312 252.109C273.663 251.693 273.839 251.204 273.839 250.645C273.839 250.085 273.663 249.596 273.312 249.18C272.96 248.763 272.472 248.451 271.847 248.242C271.235 248.021 270.519 247.917 269.698 247.93Z" fill="#101010"/>
<path d="M163.469 300.219V305.5H165.562V307.125H163.469V314.469H161.469V300.219H163.469ZM159.484 301.531V303.141H154.797V309.375C156.859 309.352 158.562 309.258 160.453 308.922L160.672 310.594C158.469 310.969 156.531 311.031 154.016 311.016H152.812V301.531H159.484ZM172.562 300.484C175.719 300.484 177.719 301.531 177.734 303.266C177.719 304.984 175.719 306.031 172.562 306.016C169.422 306.031 167.375 304.984 167.375 303.266C167.375 301.531 169.422 300.484 172.562 300.484ZM172.562 302.031C170.578 302.031 169.438 302.453 169.453 303.266C169.438 304.062 170.578 304.469 172.562 304.469C174.531 304.469 175.672 304.062 175.672 303.266C175.672 302.453 174.531 302.031 172.562 302.031ZM177.5 309.438V314.281H167.578V309.438H177.5ZM169.547 311.016V312.688H175.547V311.016H169.547ZM179.047 306.844V308.438H166.078V306.844H179.047ZM195.578 300.219V307.375H193.594V306.281H190.344V304.766H193.594V303.516H190.5C189.617 305.656 187.586 307.023 184.438 307.703L183.766 306.078C187.023 305.43 188.531 304.086 188.797 302.375H184.562V300.766H191C191 301.195 190.969 301.609 190.906 302H193.594V300.219H195.578ZM195.578 307.891V311.781H188.141V312.719H195.891V314.297H186.141V310.312H193.578V309.453H186.125V307.891H195.578ZM209.719 300.219V314.438H207.828V300.219H209.719ZM206.812 300.453V313.781H204.938V306.703H203.062V305.094H204.938V300.453H206.812ZM201.922 304.031C201.922 306.391 202.656 308.781 204.734 309.969L203.562 311.438C202.297 310.688 201.461 309.414 200.984 307.891C200.492 309.547 199.633 310.953 198.328 311.75L197.125 310.281C199.219 309 200 306.438 200 304.031V303.266H197.672V301.672H204.078V303.266H201.922V304.031ZM226.219 300.219V302.875H228.141V304.516H226.219V307.25H224.219V300.219H226.219ZM217.516 300.844V305.203C219.227 305.18 221.07 305.023 223.031 304.641L223.266 306.266C220.922 306.734 218.75 306.859 216.734 306.844H215.516V300.844H217.516ZM226.219 307.828V311.75H218.797V312.688H226.625V314.281H216.812V310.25H224.203V309.391H216.781V307.828H226.219ZM240.453 300.219V305.578H242.047V307.234H240.453V314.438H238.453V310.016L237.234 311.422C236.32 310.703 235.766 309.625 235.438 308.375C235.062 309.664 234.453 310.797 233.438 311.531C232.445 310.805 231.844 309.68 231.484 308.391C231.141 309.641 230.586 310.711 229.672 311.422L228.422 309.969C230.219 308.641 230.484 306.125 230.5 303.781V303.047H228.984V301.453H233.203V303.047H232.375V303.781C232.375 305.453 232.516 307.414 233.453 308.891C234.367 307.422 234.531 305.477 234.531 303.781V303.047H233.703V301.453H237.703V303.047H236.438V303.781C236.422 306.133 236.695 308.609 238.453 309.938V300.219H240.453ZM135.219 332L135.203 330.297L139.266 326.562C140.328 325.547 140.891 324.922 140.891 324.031C140.891 323.031 140.125 322.406 139.094 322.406C138.031 322.406 137.344 323.078 137.344 324.156H135.109C135.094 321.938 136.734 320.531 139.125 320.531C141.547 320.531 143.156 321.906 143.156 323.875C143.156 325.156 142.531 326.219 140.203 328.328L138.484 330V330.062H143.312V332H135.219ZM149.375 332.156C146.547 332.156 144.828 330.047 144.828 326.344C144.828 322.641 146.547 320.531 149.375 320.531C152.203 320.531 153.922 322.656 153.922 326.344C153.922 330.062 152.203 332.156 149.375 332.156ZM149.375 330.219C150.688 330.219 151.531 328.953 151.516 326.344C151.516 323.766 150.688 322.453 149.375 322.453C148.062 322.453 147.234 323.766 147.234 326.344C147.219 328.953 148.062 330.219 149.375 330.219ZM155.547 332L155.531 330.297L159.594 326.562C160.656 325.547 161.219 324.922 161.219 324.031C161.219 323.031 160.453 322.406 159.422 322.406C158.359 322.406 157.672 323.078 157.672 324.156H155.438C155.422 321.938 157.062 320.531 159.453 320.531C161.875 320.531 163.484 321.906 163.484 323.875C163.484 325.156 162.859 326.219 160.531 328.328L158.812 330V330.062H163.641V332H155.547ZM164.875 330V328.141L169.656 320.688H172.609V328.109H174.047V330H172.609V332H170.375V330H164.875ZM167.25 328.109H170.406V323.266H170.297L167.25 328.016V328.109ZM187.094 319.234V329.688H185.109V325.031H181.578V323.469H185.109V322.375H181.578V320.812H185.109V319.234H187.094ZM187.438 331.594V333.188H177.641V328.75H179.641V331.594H187.438ZM177.875 320.125V326.203C179.617 326.188 181.242 326.07 183.016 325.75L183.219 327.359C181.094 327.766 179.172 327.844 177.047 327.844H175.906V320.125H177.875ZM197.484 332.156C194.656 332.156 192.938 330.047 192.938 326.344C192.938 322.641 194.656 320.531 197.484 320.531C200.312 320.531 202.031 322.656 202.031 326.344C202.031 330.062 200.312 332.156 197.484 332.156ZM197.484 330.219C198.797 330.219 199.641 328.953 199.625 326.344C199.625 323.766 198.797 322.453 197.484 322.453C196.172 322.453 195.344 323.766 195.344 326.344C195.328 328.953 196.172 330.219 197.484 330.219ZM208.531 320.688V332H206.172V322.922H206.109L203.516 324.547V322.469L206.312 320.688H208.531ZM222.734 319.234V327.469H220.734V327.016H218.156V325.812H220.734V319.234H222.734ZM210.688 324.234C213.438 324.25 216.844 324.219 219.891 323.938L219.984 325.172C218.727 325.344 217.438 325.453 216.172 325.516V327.5H214.203V325.594C213.039 325.625 211.922 325.625 210.891 325.609L210.688 324.234ZM222.734 327.891V331.219H214.734V331.953H223.062V333.344H212.781V329.938H220.75V329.234H212.719V327.891H222.734ZM215.266 319.422C217.375 319.422 218.828 320.281 218.844 321.562C218.828 322.891 217.375 323.688 215.266 323.688C213.094 323.688 211.656 322.891 211.656 321.562C211.656 320.281 213.094 319.422 215.266 319.422ZM215.266 320.734C214.188 320.719 213.531 321.047 213.547 321.562C213.531 322.094 214.188 322.391 215.266 322.391C216.312 322.391 216.984 322.094 216.984 321.562C216.984 321.047 216.312 320.719 215.266 320.734ZM233.062 332.156C230.234 332.156 228.516 330.047 228.516 326.344C228.516 322.641 230.234 320.531 233.062 320.531C235.891 320.531 237.609 322.656 237.609 326.344C237.609 330.062 235.891 332.156 233.062 332.156ZM233.062 330.219C234.375 330.219 235.219 328.953 235.203 326.344C235.203 323.766 234.375 322.453 233.062 322.453C231.75 322.453 230.922 323.766 230.922 326.344C230.906 328.953 231.75 330.219 233.062 330.219ZM244.109 320.688V332H241.75V322.922H241.688L239.094 324.547V322.469L241.891 320.688H244.109ZM250.312 319.641C252.469 319.641 254.109 320.984 254.109 322.891C254.109 324.766 252.469 326.125 250.312 326.125C248.109 326.125 246.484 324.766 246.484 322.891C246.484 320.984 248.109 319.641 250.312 319.641ZM250.312 321.266C249.219 321.266 248.406 321.859 248.422 322.891C248.406 323.906 249.219 324.516 250.312 324.516C251.391 324.516 252.188 323.906 252.188 322.891C252.188 321.859 251.391 321.266 250.312 321.266ZM258.172 319.219V326.344H256.172V319.219H258.172ZM258.172 326.938V330.797H250.609V331.719H258.562V333.281H248.656V329.344H256.188V328.469H248.625V326.938H258.172Z" fill="white"/>
<path d="M189.906 207.484C193.062 207.484 195.062 208.531 195.078 210.266C195.062 211.984 193.062 213.031 189.906 213.016C186.766 213.031 184.719 211.984 184.719 210.266C184.719 208.531 186.766 207.484 189.906 207.484ZM189.906 209.031C187.922 209.031 186.781 209.453 186.797 210.266C186.781 211.062 187.922 211.469 189.906 211.469C191.875 211.469 193.016 211.062 193.016 210.266C193.016 209.453 191.875 209.031 189.906 209.031ZM194.844 216.438V221.281H184.922V216.438H194.844ZM186.891 218.016V219.688H192.891V218.016H186.891ZM196.391 213.844V215.438H183.422V213.844H196.391ZM210.266 218.219V219.859H197.25V218.219H200.578V216.047H198.75V211.266H206.797V209.734H198.734V208.141H208.766V212.859H200.75V214.438H209.094V216.047H207.078V218.219H210.266ZM202.516 218.219H205.125V216.047H202.516V218.219Z" fill="#FFFA87"/>
<path d="M178.875 397.047V398.328C178.875 399.656 178.875 401.109 178.516 403.094H180.391V404.703H174.844V410.453H172.844V404.703H167.422V403.094H176.5C176.859 401.258 176.891 399.867 176.891 398.641H168.906V397.047H178.875ZM194.219 403.109V404.688H181.25V403.109H186.734V401.844H182.828V396.781H192.688V398.359H184.812V400.234H192.828V401.844H188.734V403.109H194.219ZM192.672 405.672V410.484H190.719V407.25H182.688V405.672H192.672ZM210.578 396.609V398.094H208.719V399.969H210.484V401.453H200V399.969H201.75V398.094H199.906V396.609H210.578ZM211.734 402.203V403.766H198.766V402.203H211.734ZM210.156 404.578V408.094H202.234V408.875H210.531V410.344H200.281V406.734H208.188V406.016H200.266V404.578H210.156ZM203.75 399.969H206.719V398.094H203.75V399.969ZM224.812 396.234V406.781H222.922V401.875H221.688V406.484H219.828V396.484H221.688V400.266H222.922V396.234H224.812ZM225.172 408.594V410.188H215.172V405.781H217.172V408.594H225.172ZM218.578 397.375V401.797H215.094V403.25C216.648 403.242 217.805 403.172 219.156 402.906L219.328 404.484C217.672 404.781 216.266 404.828 214.156 404.828H213.172V400.328H216.656V398.938H213.156V397.375H218.578Z" fill="white"/>
<rect x="88" y="684" width="212" height="55" rx="15" stroke="#FF5858" stroke-width="2"/>
<path d="M166.649 704.949H153.126V702.582H166.649V704.949ZM170.364 714.066H150.911V711.652H170.364V714.066ZM162.032 722.68H159.032V713.328H162.032V722.68ZM168.079 704.48C168.079 705.559 168.063 706.473 168.032 707.223C168.008 707.973 167.93 708.848 167.798 709.848C167.673 710.84 167.481 711.922 167.223 713.094L164.27 712.766C164.528 711.656 164.715 710.621 164.833 709.66C164.958 708.691 165.032 707.836 165.055 707.094C165.079 706.352 165.09 705.484 165.09 704.492V702.582H168.079V704.48ZM190.842 714.043H171.389V711.652H190.842V714.043ZM182.592 712.438H179.592V708.195H182.592V712.438ZM188.522 722.727H185.58V717.852H173.534V715.508H188.522V722.727ZM188.744 709.754H173.744V707.375H188.744V709.754ZM188.534 704.539H176.721V708.676H173.744V702.184H188.534V704.539ZM205.138 705.629C205.138 706.684 204.916 707.656 204.47 708.547C204.033 709.43 203.365 710.188 202.466 710.82C201.568 711.453 200.463 711.906 199.15 712.18L197.908 709.848C198.978 709.652 199.873 709.344 200.591 708.922C201.318 708.492 201.857 707.996 202.209 707.434C202.56 706.871 202.736 706.27 202.736 705.629V705.359H205.138V705.629ZM205.736 705.629C205.736 706.23 205.912 706.793 206.263 707.316C206.615 707.832 207.142 708.289 207.845 708.688C208.556 709.086 209.435 709.379 210.482 709.566L209.31 711.863C208.006 711.613 206.904 711.191 206.006 710.598C205.115 709.996 204.447 709.273 204.002 708.43C203.556 707.578 203.334 706.645 203.334 705.629V705.359H205.736V705.629ZM209.966 705.77H198.482V703.461H209.966V705.77ZM205.736 705.125H202.759V701.363H205.736V705.125ZM205.736 722H202.736V713.434H205.736V722ZM215.123 722.645H212.146V701.352H215.123V722.645ZM197.193 713.094C199.873 713.094 202.326 713.055 204.552 712.977C206.787 712.898 208.896 712.734 210.881 712.484L211.068 714.652C208.998 715.004 206.861 715.238 204.658 715.355C202.455 715.465 200.091 715.52 197.568 715.52L197.193 713.094ZM237.136 720.113H217.636V717.723H237.136V720.113ZM228.757 718.355H225.781V712.883H228.757V718.355ZM228.288 704.07C228.288 705.578 227.925 706.996 227.199 708.324C226.48 709.645 225.445 710.766 224.093 711.688C222.742 712.609 221.167 713.238 219.37 713.574L218.081 711.078C219.644 710.836 220.995 710.355 222.136 709.637C223.285 708.91 224.16 708.062 224.761 707.094C225.363 706.117 225.663 705.109 225.663 704.07V702.559H228.288V704.07ZM228.839 704.07C228.839 705.117 229.14 706.129 229.742 707.105C230.351 708.074 231.23 708.918 232.378 709.637C233.535 710.355 234.898 710.836 236.468 711.078L235.191 713.574C233.37 713.23 231.785 712.605 230.433 711.699C229.089 710.793 228.054 709.684 227.327 708.371C226.609 707.051 226.249 705.617 226.249 704.07V702.559H228.839V704.07Z" fill="#FF5858"/>
<path d="M92.1878 148.156H89.305V126.805H92.1878V148.156ZM90.0902 137.492H86.4691V135.066H90.0902V137.492ZM87.3128 147.125H84.5121V127.191H87.3128V147.125ZM77.6449 141.512H74.6566V129.195H77.6449V141.512ZM76.0863 140.363C77.3207 140.363 78.5238 140.316 79.6957 140.223C80.8675 140.129 82.0667 139.969 83.2933 139.742L83.6097 142.32C82.266 142.547 80.9769 142.711 79.7425 142.812C78.516 142.906 77.2972 142.953 76.0863 142.953H74.6566V140.363H76.0863ZM117.886 139.145H115.015V126.852H117.886V139.145ZM113.55 138.91H110.726V127.203H113.55V138.91ZM111.535 134.293H108.043V131.844H111.535V134.293ZM108.793 137.855H100.308V128.387H108.793V137.855ZM103.132 135.641H106.004V130.66H103.132V135.641ZM117.886 147.922H103.343V140H117.886V147.922ZM106.285 145.52H114.922V142.32H106.285V145.52ZM138.036 148.215H135.072V126.805H138.036V148.215ZM135.915 136.766H130.15V134.34H135.915V136.766ZM123.81 133.648H128.181V128.48H131.111V143.141H120.822V128.48H123.81V133.648ZM128.181 140.75V135.992H123.81V140.75H128.181ZM148.073 129.453C148.073 130.797 147.839 132.051 147.37 133.215C146.901 134.379 146.206 135.391 145.284 136.25C144.362 137.109 143.229 137.742 141.886 138.148L140.433 135.793C141.581 135.449 142.542 134.953 143.315 134.305C144.089 133.648 144.659 132.902 145.026 132.066C145.401 131.23 145.589 130.359 145.589 129.453V127.461H148.073V129.453ZM148.694 129.453C148.694 130.32 148.874 131.152 149.233 131.949C149.593 132.738 150.147 133.441 150.897 134.059C151.647 134.676 152.589 135.145 153.722 135.465L152.28 137.785C150.952 137.387 149.831 136.781 148.917 135.969C148.011 135.156 147.327 134.195 146.866 133.086C146.413 131.969 146.187 130.758 146.187 129.453V127.461H148.694V129.453ZM158.362 138.301H155.374V126.805H158.362V138.301ZM147.054 141.207H155.386V139.227H158.362V147.922H144.112V139.227H147.054V141.207ZM155.386 145.508V143.527H147.054V145.508H155.386ZM182.819 135.945H177.135V133.543H182.819V135.945ZM173.748 131.645C173.748 133.473 173.534 135.188 173.104 136.789C172.674 138.391 172.018 139.809 171.135 141.043C170.252 142.277 169.159 143.223 167.854 143.879L165.979 141.43C167.151 140.898 168.135 140.125 168.932 139.109C169.737 138.094 170.334 136.945 170.725 135.664C171.123 134.383 171.323 133.043 171.323 131.645V128.457H173.748V131.645ZM174.358 131.645C174.358 133.043 174.545 134.363 174.92 135.605C175.295 136.84 175.869 137.938 176.643 138.898C177.416 139.859 178.377 140.594 179.526 141.102L177.698 143.492C176.416 142.859 175.346 141.957 174.487 140.785C173.635 139.605 172.998 138.242 172.576 136.695C172.162 135.148 171.955 133.465 171.955 131.645V128.457H174.358V131.645ZM184.284 148.215H181.319V126.805H184.284V148.215ZM204.621 148.215H201.586V126.805H204.621V148.215ZM190.816 133.719H195.422V128.527H198.363V143.223H187.828V128.527H190.816V133.719ZM195.422 140.785V136.039H190.816V140.785H195.422ZM217.904 129.629C217.904 131.176 217.541 132.625 216.814 133.977C216.088 135.328 215.052 136.484 213.709 137.445C212.373 138.398 210.806 139.055 209.009 139.414L207.732 136.93C209.263 136.641 210.599 136.121 211.74 135.371C212.888 134.621 213.763 133.742 214.365 132.734C214.974 131.727 215.279 130.691 215.279 129.629V128.105H217.904V129.629ZM218.455 129.629C218.455 130.699 218.756 131.742 219.357 132.758C219.966 133.773 220.845 134.656 221.994 135.406C223.15 136.148 224.502 136.656 226.048 136.93L224.736 139.414C222.955 139.055 221.392 138.402 220.048 137.457C218.713 136.512 217.685 135.363 216.966 134.012C216.248 132.66 215.888 131.199 215.888 129.629V128.105H218.455V129.629ZM226.752 145.543H207.252V143.094H226.752V145.543ZM248.759 130.449H235.235V128.082H248.759V130.449ZM252.474 139.566H233.021V137.152H252.474V139.566ZM244.142 148.18H241.142V138.828H244.142V148.18ZM250.188 129.98C250.188 131.059 250.173 131.973 250.142 132.723C250.118 133.473 250.04 134.348 249.907 135.348C249.782 136.34 249.591 137.422 249.333 138.594L246.38 138.266C246.638 137.156 246.825 136.121 246.942 135.16C247.067 134.191 247.142 133.336 247.165 132.594C247.188 131.852 247.2 130.984 247.2 129.992V128.082H250.188V129.98ZM272.952 139.543H253.499V137.152H272.952V139.543ZM264.702 137.938H261.702V133.695H264.702V137.938ZM270.632 148.227H267.69V143.352H255.643V141.008H270.632V148.227ZM270.854 135.254H255.854V132.875H270.854V135.254ZM270.643 130.039H258.831V134.176H255.854V127.684H270.643V130.039ZM297.232 143.094H294.256V126.852H297.232V143.094ZM295.369 134.562H291.373V132.148H295.369V134.562ZM295.369 139.074H291.373V136.695H295.369V139.074ZM291.15 131.434H279.303V129.078H291.15V131.434ZM285.35 132.184C286.318 132.184 287.186 132.363 287.951 132.723C288.725 133.074 289.326 133.57 289.756 134.211C290.186 134.844 290.4 135.566 290.4 136.379C290.4 137.184 290.186 137.906 289.756 138.547C289.326 139.188 288.725 139.688 287.951 140.047C287.186 140.398 286.318 140.574 285.35 140.574C284.396 140.574 283.541 140.398 282.783 140.047C282.025 139.688 281.432 139.188 281.002 138.547C280.572 137.906 280.357 137.184 280.357 136.379C280.357 135.574 280.572 134.852 281.002 134.211C281.432 133.57 282.025 133.074 282.783 132.723C283.549 132.363 284.404 132.184 285.35 132.184ZM285.35 134.516C284.92 134.516 284.537 134.59 284.201 134.738C283.865 134.879 283.603 135.09 283.416 135.371C283.228 135.652 283.135 135.988 283.135 136.379C283.135 136.777 283.228 137.121 283.416 137.41C283.603 137.691 283.861 137.906 284.189 138.055C284.525 138.203 284.912 138.277 285.35 138.277C285.795 138.277 286.182 138.203 286.51 138.055C286.846 137.906 287.107 137.691 287.295 137.41C287.49 137.121 287.588 136.777 287.588 136.379C287.588 135.988 287.49 135.652 287.295 135.371C287.107 135.09 286.846 134.879 286.51 134.738C286.182 134.59 285.795 134.516 285.35 134.516ZM286.873 130.531H283.885V126.793H286.873V130.531ZM297.689 147.793H283.029V145.379H297.689V147.793ZM286.053 146.492H283.029V141.699H286.053V146.492ZM316.797 141.242H313.785V126.852H316.797V141.242ZM319.527 135.348H315.73V132.898H319.527V135.348ZM309.601 141.418C311.148 141.402 312.461 141.527 313.539 141.793C314.625 142.059 315.449 142.449 316.011 142.965C316.582 143.473 316.867 144.086 316.867 144.805C316.867 145.531 316.582 146.148 316.011 146.656C315.449 147.164 314.625 147.543 313.539 147.793C312.461 148.051 311.148 148.184 309.601 148.191C308.054 148.184 306.738 148.051 305.652 147.793C304.566 147.543 303.738 147.164 303.168 146.656C302.605 146.148 302.324 145.531 302.324 144.805C302.324 144.078 302.609 143.461 303.179 142.953C303.75 142.445 304.578 142.059 305.664 141.793C306.757 141.527 308.07 141.402 309.601 141.418ZM309.601 143.598C308.609 143.598 307.797 143.641 307.164 143.727C306.539 143.805 306.074 143.938 305.769 144.125C305.465 144.305 305.312 144.531 305.312 144.805C305.312 145.078 305.465 145.301 305.769 145.473C306.074 145.645 306.539 145.777 307.164 145.871C307.797 145.957 308.609 146 309.601 146C310.586 146 311.386 145.957 312.004 145.871C312.629 145.777 313.093 145.645 313.398 145.473C313.711 145.301 313.867 145.078 313.867 144.805C313.867 144.531 313.711 144.305 313.398 144.125C313.093 143.938 312.629 143.805 312.004 143.727C311.386 143.641 310.586 143.598 309.601 143.598ZM307.656 139.379H304.679V136.25H307.656V139.379ZM299.511 138.395C302.113 138.395 304.496 138.355 306.66 138.277C308.824 138.199 310.871 138.039 312.8 137.797L313.023 139.824C311.007 140.168 308.929 140.395 306.789 140.504C304.648 140.605 302.32 140.656 299.804 140.656L299.511 138.395ZM312.261 130.555H300.05V128.352H312.261V130.555ZM306.156 131.059C307.218 131.059 308.14 131.184 308.922 131.434C309.703 131.676 310.308 132.027 310.738 132.488C311.168 132.949 311.382 133.492 311.382 134.117C311.382 134.734 311.168 135.277 310.738 135.746C310.308 136.207 309.699 136.562 308.91 136.812C308.129 137.062 307.211 137.188 306.156 137.188C305.101 137.188 304.179 137.062 303.39 136.812C302.609 136.562 302 136.207 301.562 135.746C301.132 135.277 300.918 134.734 300.918 134.117C300.918 133.492 301.132 132.949 301.562 132.488C301.992 132.027 302.601 131.676 303.39 131.434C304.179 131.184 305.101 131.059 306.156 131.059ZM306.156 133.027C305.648 133.027 305.218 133.066 304.867 133.145C304.515 133.223 304.246 133.348 304.058 133.52C303.871 133.684 303.777 133.883 303.777 134.117C303.777 134.367 303.867 134.574 304.047 134.738C304.234 134.902 304.504 135.027 304.855 135.113C305.215 135.191 305.648 135.23 306.156 135.23C306.664 135.23 307.093 135.188 307.445 135.102C307.797 135.016 308.062 134.895 308.242 134.738C308.422 134.574 308.511 134.367 308.511 134.117C308.511 133.883 308.418 133.684 308.23 133.52C308.05 133.348 307.785 133.223 307.433 133.145C307.09 133.066 306.664 133.027 306.156 133.027ZM307.656 129.348H304.679V126.664H307.656V129.348Z" fill="white"/>
<rect x="62" y="587" width="270" height="37" rx="15" stroke="#FFFA87" stroke-width="2"/>
<path d="M96.3203 609.117H94.3281V598.734H96.3203V609.117ZM96.7109 612.695H86.7969V611.086H96.7109V612.695ZM88.8125 611.938H86.7969V608.102H88.8125V611.938ZM89.4609 600.883C89.4609 601.841 89.3073 602.737 89 603.57C88.6979 604.404 88.2422 605.135 87.6328 605.766C87.0286 606.396 86.2839 606.865 85.3984 607.172L84.3672 605.602C85.138 605.346 85.7812 604.974 86.2969 604.484C86.8125 603.99 87.1927 603.432 87.4375 602.812C87.6823 602.193 87.8047 601.549 87.8047 600.883V599.516H89.4609V600.883ZM89.875 600.883C89.875 601.529 89.9922 602.146 90.2266 602.734C90.4609 603.318 90.8281 603.839 91.3281 604.297C91.8333 604.755 92.4583 605.107 93.2031 605.352L92.1875 606.93C91.3073 606.633 90.5703 606.19 89.9766 605.602C89.388 605.008 88.9453 604.31 88.6484 603.508C88.3516 602.701 88.2031 601.826 88.2031 600.883V599.516H89.875V600.883ZM108.746 603.367H105.402V601.75H108.746V603.367ZM102.996 601.141C102.996 602.13 102.85 603.044 102.558 603.883C102.267 604.716 101.827 605.445 101.238 606.07C100.655 606.69 99.9282 607.159 99.0584 607.477L97.9803 605.898C98.7459 605.643 99.3813 605.273 99.8865 604.789C100.397 604.305 100.775 603.753 101.019 603.133C101.264 602.513 101.387 601.849 101.387 601.141V599.594H102.996V601.141ZM103.394 601.156C103.394 601.797 103.512 602.406 103.746 602.984C103.98 603.557 104.34 604.073 104.824 604.531C105.314 604.984 105.923 605.336 106.652 605.586L105.566 607.133C104.743 606.82 104.051 606.37 103.488 605.781C102.931 605.188 102.512 604.497 102.23 603.711C101.949 602.924 101.808 602.073 101.808 601.156V599.594H103.394V601.156ZM110.058 609.234H108.074V598.734H110.058V609.234ZM110.363 612.695H100.59V611.086H110.363V612.695ZM102.605 611.961H100.59V608.133H102.605V611.961ZM116.765 600.734C116.765 601.651 116.612 602.51 116.304 603.312C115.997 604.109 115.536 604.805 114.921 605.398C114.312 605.992 113.562 606.435 112.671 606.727L111.679 605.164C112.445 604.914 113.086 604.56 113.601 604.102C114.117 603.643 114.497 603.125 114.742 602.547C114.987 601.964 115.109 601.359 115.109 600.734V599.367H116.765V600.734ZM117.179 600.734C117.179 601.354 117.296 601.938 117.531 602.484C117.765 603.031 118.132 603.521 118.632 603.953C119.138 604.38 119.765 604.706 120.515 604.93L119.531 606.5C118.645 606.219 117.903 605.797 117.304 605.234C116.705 604.667 116.255 604 115.953 603.234C115.656 602.469 115.507 601.635 115.507 600.734V599.367H117.179V600.734ZM123.625 612.938H121.632V609.414H113.859V607.812H123.625V612.938ZM123.625 607.203H121.632V598.703H123.625V607.203ZM132.839 608.711H130.855V606.508H132.839V608.711ZM138.355 606.953H125.386V605.383H138.355V606.953ZM137.183 600.703H126.519V599.109H137.183V600.703ZM137.097 604.469H126.62V602.867H137.097V604.469ZM130.355 603.953H128.363V599.711H130.355V603.953ZM135.339 603.953H133.339V599.711H135.339V603.953ZM136.8 612.781H126.886V608.18H136.8V612.781ZM128.847 611.18H134.847V609.711H128.847V611.18ZM155.565 611.359H142.565V609.688H155.565V611.359ZM150.003 610.445H148.026V606.438H150.003V610.445ZM154.479 601.508H143.573V599.914H154.479V601.508ZM154.417 607.125H143.643V605.562H154.417V607.125ZM147.534 605.758H145.542V601.195H147.534V605.758ZM152.479 605.758H150.518V601.195H152.479V605.758ZM167.491 607.297H165.499V598.703H167.491V607.297ZM169.413 603.883H166.928V602.227H169.413V603.883ZM167.491 612.781H158.194V607.922H167.491V612.781ZM160.171 611.18H165.522V609.484H160.171V611.18ZM164.647 601.586H156.202V600.008H164.647V601.586ZM160.436 602.008C161.118 602.008 161.723 602.117 162.249 602.336C162.78 602.549 163.194 602.849 163.491 603.234C163.788 603.62 163.936 604.065 163.936 604.57C163.936 605.076 163.788 605.523 163.491 605.914C163.194 606.299 162.78 606.602 162.249 606.82C161.723 607.034 161.118 607.141 160.436 607.141C159.743 607.141 159.129 607.034 158.592 606.82C158.061 606.602 157.647 606.299 157.35 605.914C157.053 605.523 156.905 605.076 156.905 604.57C156.905 604.065 157.053 603.62 157.35 603.234C157.647 602.849 158.061 602.549 158.592 602.336C159.129 602.117 159.743 602.008 160.436 602.008ZM160.436 603.508C160.113 603.508 159.832 603.549 159.592 603.633C159.353 603.711 159.168 603.831 159.038 603.992C158.908 604.148 158.842 604.341 158.842 604.57C158.842 604.805 158.908 605.005 159.038 605.172C159.168 605.333 159.353 605.456 159.592 605.539C159.832 605.622 160.113 605.667 160.436 605.672C160.759 605.667 161.04 605.622 161.28 605.539C161.52 605.456 161.707 605.333 161.842 605.172C161.978 605.005 162.046 604.805 162.046 604.57C162.046 604.341 161.975 604.148 161.835 603.992C161.699 603.831 161.512 603.711 161.272 603.633C161.033 603.549 160.754 603.508 160.436 603.508ZM161.428 600.859H159.436V598.633H161.428V600.859ZM186.397 611.273H173.397V609.641H186.397V611.273ZM180.85 610.031H178.889V606.445H180.85V610.031ZM184.951 606.734H174.772V599.773H184.951V606.734ZM176.74 605.172H182.99V601.359H176.74V605.172ZM200.041 607.336H187.049V605.742H200.041V607.336ZM198.619 604.578H188.619V602.984H198.619V604.578ZM198.479 600.82H190.604V603.57H188.619V599.234H198.479V600.82ZM198.689 612.672H188.611V611.07H198.689V612.672ZM190.572 611.492H188.611V608.438H190.572V611.492ZM216.173 612.938H214.15V598.703H216.173V612.938ZM211.916 600.203C211.916 601.729 211.71 603.115 211.298 604.359C210.892 605.599 210.202 606.74 209.228 607.781C208.254 608.818 206.949 609.724 205.314 610.5L204.267 608.906C205.637 608.26 206.736 607.534 207.564 606.727C208.392 605.919 208.994 605.013 209.369 604.008C209.744 603.003 209.931 601.852 209.931 600.555V600.203H211.916ZM210.845 601.773H205.025V600.203H210.845V601.773ZM229.404 603.875H219.521V602.273H229.404V603.875ZM221.505 603.008H219.521V598.938H221.505V603.008ZM230.872 606.711H217.88V605.094H230.872V606.711ZM224.341 607.617C225.372 607.617 226.258 607.721 226.997 607.93C227.742 608.133 228.31 608.432 228.701 608.828C229.096 609.219 229.294 609.693 229.294 610.25C229.294 610.802 229.096 611.276 228.701 611.672C228.31 612.068 227.745 612.37 227.005 612.578C226.266 612.786 225.378 612.891 224.341 612.891C223.305 612.891 222.414 612.786 221.669 612.578C220.924 612.37 220.352 612.068 219.951 611.672C219.555 611.276 219.357 610.802 219.357 610.25C219.357 609.693 219.555 609.219 219.951 608.828C220.352 608.432 220.924 608.133 221.669 607.93C222.419 607.721 223.31 607.617 224.341 607.617ZM224.341 609.164C223.674 609.164 223.122 609.203 222.685 609.281C222.247 609.354 221.922 609.471 221.708 609.633C221.495 609.794 221.388 610 221.388 610.25C221.388 610.495 221.497 610.701 221.716 610.867C221.935 611.034 222.263 611.159 222.701 611.242C223.138 611.326 223.685 611.367 224.341 611.367C224.987 611.367 225.529 611.326 225.966 611.242C226.409 611.159 226.74 611.034 226.958 610.867C227.177 610.701 227.286 610.495 227.286 610.25C227.286 610 227.177 609.794 226.958 609.633C226.74 609.471 226.414 609.354 225.982 609.281C225.549 609.203 225.003 609.164 224.341 609.164Z" fill="#FFFA87"/>
<path d="M250.587 609.805L254.658 606.062C255.059 605.677 255.371 605.359 255.595 605.109C255.819 604.854 255.988 604.599 256.103 604.344C256.223 604.083 256.283 603.807 256.283 603.516C256.283 603.193 256.204 602.909 256.048 602.664C255.892 602.414 255.678 602.224 255.408 602.094C255.137 601.964 254.829 601.898 254.486 601.898C254.137 601.898 253.827 601.969 253.556 602.109C253.29 602.25 253.085 602.456 252.939 602.727C252.798 602.992 252.728 603.302 252.728 603.656H250.493C250.493 602.932 250.66 602.297 250.993 601.75C251.332 601.198 251.803 600.773 252.408 600.477C253.017 600.18 253.717 600.031 254.509 600.031C255.306 600.031 256.009 600.172 256.618 600.453C257.228 600.734 257.699 601.128 258.033 601.633C258.371 602.138 258.54 602.716 258.54 603.367C258.54 603.81 258.454 604.237 258.283 604.648C258.116 605.06 257.819 605.516 257.392 606.016C256.97 606.516 256.368 607.12 255.587 607.828L253.861 609.492V609.57H258.704V611.5H250.595L250.587 609.805ZM264.443 611.656C263.599 611.656 262.838 611.518 262.161 611.242C261.489 610.966 260.963 610.583 260.583 610.094C260.203 609.604 260.013 609.057 260.013 608.453C260.013 607.99 260.122 607.557 260.341 607.156C260.56 606.75 260.857 606.417 261.232 606.156C261.612 605.896 262.034 605.732 262.497 605.664V605.578C262.101 605.5 261.747 605.344 261.435 605.109C261.122 604.87 260.877 604.573 260.7 604.219C260.523 603.865 260.435 603.484 260.435 603.078C260.435 602.5 260.609 601.979 260.958 601.516C261.307 601.047 261.786 600.682 262.396 600.422C263.005 600.161 263.687 600.031 264.443 600.031C265.203 600.031 265.888 600.161 266.497 600.422C267.112 600.682 267.591 601.047 267.935 601.516C268.284 601.979 268.458 602.5 268.458 603.078C268.458 603.484 268.367 603.865 268.185 604.219C268.008 604.573 267.763 604.87 267.45 605.109C267.143 605.344 266.789 605.5 266.388 605.578V605.664C266.851 605.732 267.271 605.896 267.646 606.156C268.026 606.417 268.328 606.75 268.552 607.156C268.776 607.557 268.888 607.99 268.888 608.453C268.888 609.057 268.695 609.604 268.31 610.094C267.929 610.583 267.401 610.966 266.724 611.242C266.052 611.518 265.291 611.656 264.443 611.656ZM264.443 609.867C264.833 609.867 265.179 609.797 265.482 609.656C265.784 609.516 266.018 609.32 266.185 609.07C266.351 608.82 266.435 608.539 266.435 608.227C266.435 607.898 266.349 607.604 266.177 607.344C266.005 607.083 265.768 606.88 265.466 606.734C265.164 606.589 264.823 606.516 264.443 606.516C264.068 606.516 263.729 606.589 263.427 606.734C263.125 606.88 262.888 607.083 262.716 607.344C262.544 607.604 262.461 607.898 262.466 608.227C262.461 608.539 262.541 608.82 262.708 609.07C262.875 609.32 263.109 609.516 263.411 609.656C263.713 609.797 264.057 609.867 264.443 609.867ZM264.443 604.852C264.771 604.852 265.065 604.786 265.325 604.656C265.591 604.521 265.797 604.339 265.943 604.109C266.088 603.875 266.161 603.612 266.161 603.32C266.161 603.023 266.088 602.76 265.943 602.531C265.802 602.302 265.599 602.125 265.333 602C265.073 601.87 264.776 601.805 264.443 601.805C264.114 601.805 263.818 601.87 263.552 602C263.291 602.125 263.088 602.302 262.943 602.531C262.802 602.76 262.732 603.023 262.732 603.32C262.732 603.612 262.804 603.875 262.95 604.109C263.101 604.339 263.307 604.521 263.568 604.656C263.828 604.786 264.12 604.852 264.443 604.852ZM271.134 614.797H269.477L270.251 610.352H272.485L271.134 614.797ZM278.294 611.656C277.351 611.656 276.538 611.43 275.856 610.977C275.179 610.523 274.658 609.862 274.294 608.992C273.934 608.117 273.755 607.068 273.755 605.844C273.755 604.62 273.934 603.573 274.294 602.703C274.658 601.833 275.182 601.172 275.864 600.719C276.546 600.26 277.356 600.031 278.294 600.031C279.231 600.031 280.041 600.26 280.723 600.719C281.406 601.172 281.929 601.836 282.294 602.711C282.658 603.581 282.84 604.625 282.84 605.844C282.84 607.073 282.658 608.122 282.294 608.992C281.934 609.862 281.413 610.523 280.731 610.977C280.049 611.43 279.236 611.656 278.294 611.656ZM278.294 609.719C278.731 609.719 279.111 609.576 279.434 609.289C279.762 609.003 280.012 608.57 280.184 607.992C280.356 607.409 280.439 606.693 280.434 605.844C280.434 605 280.348 604.289 280.176 603.711C280.005 603.128 279.757 602.69 279.434 602.398C279.111 602.107 278.731 601.961 278.294 601.961C277.856 601.961 277.476 602.107 277.153 602.398C276.835 602.69 276.588 603.128 276.411 603.711C276.234 604.289 276.145 605 276.145 605.844C276.145 606.693 276.231 607.409 276.403 607.992C276.58 608.57 276.83 609.003 277.153 609.289C277.476 609.576 277.856 609.719 278.294 609.719ZM288.68 611.656C287.737 611.656 286.925 611.43 286.243 610.977C285.566 610.523 285.045 609.862 284.68 608.992C284.321 608.117 284.141 607.068 284.141 605.844C284.141 604.62 284.321 603.573 284.68 602.703C285.045 601.833 285.568 601.172 286.25 600.719C286.933 600.26 287.743 600.031 288.68 600.031C289.618 600.031 290.428 600.26 291.11 600.719C291.792 601.172 292.316 601.836 292.68 602.711C293.045 603.581 293.227 604.625 293.227 605.844C293.227 607.073 293.045 608.122 292.68 608.992C292.321 609.862 291.8 610.523 291.118 610.977C290.435 611.43 289.623 611.656 288.68 611.656ZM288.68 609.719C289.118 609.719 289.498 609.576 289.821 609.289C290.149 609.003 290.399 608.57 290.571 607.992C290.743 607.409 290.826 606.693 290.821 605.844C290.821 605 290.735 604.289 290.563 603.711C290.391 603.128 290.144 602.69 289.821 602.398C289.498 602.107 289.118 601.961 288.68 601.961C288.243 601.961 287.862 602.107 287.54 602.398C287.222 602.69 286.974 603.128 286.797 603.711C286.62 604.289 286.532 605 286.532 605.844C286.532 606.693 286.618 607.409 286.79 607.992C286.967 608.57 287.217 609.003 287.54 609.289C287.862 609.576 288.243 609.719 288.68 609.719ZM299.067 611.656C298.124 611.656 297.311 611.43 296.629 610.977C295.952 610.523 295.431 609.862 295.067 608.992C294.707 608.117 294.528 607.068 294.528 605.844C294.528 604.62 294.707 603.573 295.067 602.703C295.431 601.833 295.955 601.172 296.637 600.719C297.319 600.26 298.129 600.031 299.067 600.031C300.004 600.031 300.814 600.26 301.496 600.719C302.179 601.172 302.702 601.836 303.067 602.711C303.431 603.581 303.613 604.625 303.613 605.844C303.613 607.073 303.431 608.122 303.067 608.992C302.707 609.862 302.186 610.523 301.504 610.977C300.822 611.43 300.009 611.656 299.067 611.656ZM299.067 609.719C299.504 609.719 299.884 609.576 300.207 609.289C300.535 609.003 300.785 608.57 300.957 607.992C301.129 607.409 301.212 606.693 301.207 605.844C301.207 605 301.121 604.289 300.949 603.711C300.778 603.128 300.53 602.69 300.207 602.398C299.884 602.107 299.504 601.961 299.067 601.961C298.629 601.961 298.249 602.107 297.926 602.398C297.608 602.69 297.361 603.128 297.184 603.711C297.007 604.289 296.918 605 296.918 605.844C296.918 606.693 297.004 607.409 297.176 607.992C297.353 608.57 297.603 609.003 297.926 609.289C298.249 609.576 298.629 609.719 299.067 609.719ZM310.352 609.133H308.344V605.992H310.352V609.133ZM316.641 609.477H314.641V598.734H316.641V609.477ZM316.953 612.695H306.344V611.086H316.953V612.695ZM308.352 611.516H306.344V608.445H308.352V611.516ZM304.539 605.039C306.487 605.013 308.167 604.977 309.578 604.93C310.995 604.878 312.362 604.768 313.68 604.602L313.781 606.031C312.401 606.266 310.956 606.422 309.445 606.5C307.94 606.578 306.383 606.615 304.773 606.609L304.539 605.039ZM315.094 608.344H311.922V606.984H315.094V608.344ZM309.164 599.211C309.846 599.206 310.456 599.312 310.992 599.531C311.534 599.745 311.956 600.047 312.258 600.438C312.565 600.823 312.719 601.263 312.719 601.758C312.719 602.263 312.565 602.703 312.258 603.078C311.956 603.453 311.536 603.747 311 603.961C310.464 604.169 309.852 604.273 309.164 604.273C308.471 604.273 307.854 604.169 307.312 603.961C306.771 603.747 306.349 603.453 306.047 603.078C305.745 602.703 305.594 602.263 305.594 601.758C305.594 601.263 305.745 600.82 306.047 600.43C306.349 600.039 306.771 599.737 307.312 599.523C307.854 599.31 308.471 599.206 309.164 599.211ZM309.164 600.672C308.831 600.667 308.536 600.708 308.281 600.797C308.026 600.88 307.828 601.005 307.688 601.172C307.552 601.339 307.484 601.534 307.484 601.758C307.484 601.982 307.552 602.177 307.688 602.344C307.828 602.505 308.026 602.628 308.281 602.711C308.536 602.794 308.831 602.836 309.164 602.836C309.492 602.836 309.779 602.794 310.023 602.711C310.273 602.628 310.469 602.505 310.609 602.344C310.75 602.177 310.82 601.982 310.82 601.758C310.82 601.534 310.75 601.339 310.609 601.172C310.469 601.005 310.273 600.88 310.023 600.797C309.779 600.708 309.492 600.667 309.164 600.672Z" fill="#FFFA87"/>
<rect x="62" y="537" width="270" height="37" rx="15" stroke="#FFFA87" stroke-width="2"/>
<path d="M90.9062 548.977C91.9583 548.977 92.8724 549.089 93.6484 549.312C94.4245 549.531 95.0208 549.852 95.4375 550.273C95.8594 550.695 96.0703 551.193 96.0703 551.766C96.0703 552.333 95.8594 552.823 95.4375 553.234C95.0208 553.646 94.4245 553.964 93.6484 554.188C92.8724 554.406 91.9583 554.516 90.9062 554.516C89.8646 554.516 88.9531 554.406 88.1719 554.188C87.3906 553.964 86.7865 553.646 86.3594 553.234C85.9323 552.823 85.7188 552.333 85.7188 551.766C85.7188 551.193 85.9323 550.695 86.3594 550.273C86.7865 549.852 87.3906 549.531 88.1719 549.312C88.9531 549.089 89.8646 548.977 90.9062 548.977ZM90.9062 550.523C90.2448 550.523 89.6797 550.57 89.2109 550.664C88.7474 550.758 88.3932 550.898 88.1484 551.086C87.9089 551.268 87.7891 551.495 87.7891 551.766C87.7891 552.026 87.9089 552.247 88.1484 552.43C88.388 552.607 88.7396 552.742 89.2031 552.836C89.6719 552.924 90.2396 552.971 90.9062 552.977C91.5625 552.971 92.1224 552.924 92.5859 552.836C93.0495 552.742 93.4036 552.607 93.6484 552.43C93.8932 552.247 94.0156 552.026 94.0156 551.766C94.0156 551.495 93.8932 551.268 93.6484 551.086C93.4036 550.898 93.0495 550.758 92.5859 550.664C92.1224 550.57 91.5625 550.523 90.9062 550.523ZM95.8438 562.781H85.9297V557.93H95.8438V562.781ZM87.8906 561.18H93.8906V559.508H87.8906V561.18ZM97.3984 556.938H84.4297V555.344H97.3984V556.938ZM103.347 560.375H101.402V557H103.347V560.375ZM107.902 560.367H105.949V556.984H107.902V560.367ZM111.082 561.359H98.0818V559.727H111.082V561.359ZM109.582 554.352H101.566V556.781H99.5818V552.766H107.613V551.242H99.5584V549.641H109.582V554.352ZM109.918 557.547H99.5818V555.93H109.918V557.547ZM119.081 551.969H121.027V559.766H119.081V551.969ZM116.152 554.898H123.964V556.844H116.152V554.898ZM135.854 551.734H129.682V550.141H135.854V551.734ZM133.511 559.039H131.55V554.211H133.511V559.039ZM137.05 551.273C137.044 551.945 137.037 552.518 137.026 552.992C137.016 553.461 136.982 554.021 136.925 554.672C136.867 555.318 136.781 556.005 136.667 556.734L134.706 556.57C134.862 555.549 134.961 554.648 135.003 553.867C135.044 553.081 135.065 552.216 135.065 551.273V550.141H137.05V551.273ZM140.315 562.938H138.307V548.703H140.315V562.938ZM142.245 556.094H139.722V554.43H142.245V556.094ZM128.932 558.445C130.729 558.43 132.315 558.396 133.69 558.344C135.071 558.286 136.386 558.18 137.636 558.023L137.753 559.5C136.44 559.719 135.063 559.865 133.62 559.938C132.182 560.01 130.685 560.042 129.128 560.031L128.932 558.445ZM147.538 552.586C147.538 553.674 147.384 554.732 147.077 555.758C146.77 556.779 146.314 557.688 145.71 558.484C145.105 559.276 144.384 559.87 143.546 560.266L142.374 558.695C143.145 558.336 143.796 557.828 144.327 557.172C144.863 556.516 145.27 555.792 145.546 555C145.822 554.208 145.96 553.404 145.96 552.586V550.93H147.538V552.586ZM147.96 552.586C147.96 553.336 148.09 554.086 148.35 554.836C148.616 555.581 149.009 556.266 149.53 556.891C150.056 557.51 150.694 557.992 151.444 558.336L150.335 559.898C149.501 559.518 148.788 558.948 148.194 558.188C147.6 557.427 147.15 556.562 146.842 555.594C146.535 554.62 146.382 553.617 146.382 552.586V550.93H147.96V552.586ZM150.827 551.719H142.944V550.094H150.827V551.719ZM153.928 562.938H151.928V548.703H153.928V562.938ZM156.038 555.812H153.491V554.148H156.038V555.812ZM163.717 551.969H165.662V559.766H163.717V551.969ZM160.787 554.898H168.6V556.844H160.787V554.898ZM184.912 562.914H182.912V548.703H184.912V562.914ZM186.92 555.812H184.396V554.172H186.92V555.812ZM181.115 550.172C181.115 551.656 180.904 553.026 180.482 554.281C180.06 555.531 179.373 556.682 178.42 557.734C177.467 558.781 176.217 559.688 174.67 560.453L173.545 558.93C174.821 558.284 175.87 557.555 176.693 556.742C177.521 555.93 178.138 555.013 178.545 553.992C178.956 552.971 179.162 551.818 179.162 550.531V550.172H181.115ZM180.162 551.805H174.342V550.172H180.162V551.805ZM193.752 557.578C194.793 557.578 195.692 557.682 196.447 557.891C197.207 558.099 197.793 558.406 198.205 558.812C198.621 559.214 198.83 559.698 198.83 560.266C198.83 560.818 198.621 561.294 198.205 561.695C197.793 562.096 197.205 562.404 196.439 562.617C195.679 562.831 194.783 562.938 193.752 562.938C192.731 562.938 191.84 562.831 191.08 562.617C190.319 562.404 189.731 562.096 189.314 561.695C188.897 561.294 188.689 560.818 188.689 560.266C188.689 559.703 188.895 559.219 189.306 558.812C189.718 558.406 190.304 558.099 191.064 557.891C191.83 557.682 192.725 557.578 193.752 557.578ZM193.752 559.055C193.095 559.055 192.538 559.102 192.08 559.195C191.627 559.284 191.278 559.419 191.033 559.602C190.793 559.779 190.673 560 190.673 560.266C190.673 560.521 190.793 560.734 191.033 560.906C191.278 561.078 191.627 561.208 192.08 561.297C192.538 561.38 193.095 561.422 193.752 561.422C194.413 561.422 194.973 561.38 195.431 561.297C195.89 561.208 196.238 561.076 196.478 560.898C196.723 560.721 196.845 560.51 196.845 560.266C196.845 560 196.723 559.779 196.478 559.602C196.238 559.419 195.89 559.284 195.431 559.195C194.973 559.102 194.413 559.055 193.752 559.055ZM197.908 550.922H188.83V549.352H197.908V550.922ZM200.291 556.68H187.377V555.07H200.291V556.68ZM194.189 555.5H192.212V552.578H194.189V555.5ZM198.759 550.516C198.759 551.286 198.736 551.953 198.689 552.516C198.647 553.073 198.535 553.677 198.353 554.328L196.392 554.133C196.559 553.477 196.66 552.896 196.697 552.391C196.738 551.885 196.762 551.26 196.767 550.516V549.352H198.759V550.516ZM206.036 550.734C206.036 551.651 205.883 552.51 205.576 553.312C205.268 554.109 204.807 554.805 204.193 555.398C203.583 555.992 202.833 556.435 201.943 556.727L200.951 555.164C201.716 554.914 202.357 554.56 202.872 554.102C203.388 553.643 203.768 553.125 204.013 552.547C204.258 551.964 204.38 551.359 204.38 550.734V549.367H206.036V550.734ZM206.451 550.734C206.451 551.354 206.568 551.938 206.802 552.484C207.036 553.031 207.404 553.521 207.904 553.953C208.409 554.38 209.036 554.706 209.786 554.93L208.802 556.5C207.917 556.219 207.174 555.797 206.576 555.234C205.977 554.667 205.526 554 205.224 553.234C204.927 552.469 204.779 551.635 204.779 550.734V549.367H206.451V550.734ZM212.896 562.938H210.904V559.414H203.13V557.812H212.896V562.938ZM212.896 557.203H210.904V548.703H212.896V557.203ZM222.11 558.711H220.126V556.508H222.11V558.711ZM227.626 556.953H214.657V555.383H227.626V556.953ZM226.454 550.703H215.79V549.109H226.454V550.703ZM226.368 554.469H215.892V552.867H226.368V554.469ZM219.626 553.953H217.634V549.711H219.626V553.953ZM224.61 553.953H222.61V549.711H224.61V553.953ZM226.071 562.781H216.157V558.18H226.071V562.781ZM218.118 561.18H224.118V559.711H218.118V561.18Z" fill="#FFFA87"/>
<path d="M258.001 561.5H255.642V552.422H255.579L252.993 554.062V551.969L255.79 550.188H258.001V561.5ZM264.614 561.656C263.844 561.656 263.146 561.513 262.521 561.227C261.896 560.94 261.403 560.542 261.044 560.031C260.69 559.521 260.505 558.948 260.489 558.312H262.763C262.789 558.604 262.885 558.862 263.052 559.086C263.224 559.31 263.445 559.487 263.716 559.617C263.992 559.742 264.291 559.805 264.614 559.805C265 559.805 265.344 559.719 265.646 559.547C265.953 559.375 266.192 559.138 266.364 558.836C266.536 558.529 266.622 558.182 266.622 557.797C266.622 557.396 266.534 557.044 266.357 556.742C266.185 556.435 265.942 556.195 265.63 556.023C265.323 555.846 264.971 555.758 264.575 555.758C264.153 555.753 263.797 555.828 263.505 555.984C263.213 556.141 262.982 556.38 262.81 556.703H260.677L261.294 550.188H268.255V552.117H263.232L262.919 554.969H263.005C263.224 554.682 263.536 554.451 263.942 554.273C264.349 554.096 264.794 554.008 265.278 554.008C265.961 554.008 266.578 554.167 267.13 554.484C267.687 554.797 268.12 555.237 268.427 555.805C268.739 556.372 268.893 557.016 268.888 557.734C268.893 558.484 268.713 559.159 268.349 559.758C267.989 560.352 267.487 560.818 266.841 561.156C266.195 561.49 265.453 561.656 264.614 561.656ZM271.134 564.797H269.477L270.251 560.352H272.485L271.134 564.797ZM278.294 561.656C277.351 561.656 276.538 561.43 275.856 560.977C275.179 560.523 274.658 559.862 274.294 558.992C273.934 558.117 273.755 557.068 273.755 555.844C273.755 554.62 273.934 553.573 274.294 552.703C274.658 551.833 275.182 551.172 275.864 550.719C276.546 550.26 277.356 550.031 278.294 550.031C279.231 550.031 280.041 550.26 280.723 550.719C281.406 551.172 281.929 551.836 282.294 552.711C282.658 553.581 282.84 554.625 282.84 555.844C282.84 557.073 282.658 558.122 282.294 558.992C281.934 559.862 281.413 560.523 280.731 560.977C280.049 561.43 279.236 561.656 278.294 561.656ZM278.294 559.719C278.731 559.719 279.111 559.576 279.434 559.289C279.762 559.003 280.012 558.57 280.184 557.992C280.356 557.409 280.439 556.693 280.434 555.844C280.434 555 280.348 554.289 280.176 553.711C280.005 553.128 279.757 552.69 279.434 552.398C279.111 552.107 278.731 551.961 278.294 551.961C277.856 551.961 277.476 552.107 277.153 552.398C276.835 552.69 276.588 553.128 276.411 553.711C276.234 554.289 276.145 555 276.145 555.844C276.145 556.693 276.231 557.409 276.403 557.992C276.58 558.57 276.83 559.003 277.153 559.289C277.476 559.576 277.856 559.719 278.294 559.719ZM288.68 561.656C287.737 561.656 286.925 561.43 286.243 560.977C285.566 560.523 285.045 559.862 284.68 558.992C284.321 558.117 284.141 557.068 284.141 555.844C284.141 554.62 284.321 553.573 284.68 552.703C285.045 551.833 285.568 551.172 286.25 550.719C286.933 550.26 287.743 550.031 288.68 550.031C289.618 550.031 290.428 550.26 291.11 550.719C291.792 551.172 292.316 551.836 292.68 552.711C293.045 553.581 293.227 554.625 293.227 555.844C293.227 557.073 293.045 558.122 292.68 558.992C292.321 559.862 291.8 560.523 291.118 560.977C290.435 561.43 289.623 561.656 288.68 561.656ZM288.68 559.719C289.118 559.719 289.498 559.576 289.821 559.289C290.149 559.003 290.399 558.57 290.571 557.992C290.743 557.409 290.826 556.693 290.821 555.844C290.821 555 290.735 554.289 290.563 553.711C290.391 553.128 290.144 552.69 289.821 552.398C289.498 552.107 289.118 551.961 288.68 551.961C288.243 551.961 287.862 552.107 287.539 552.398C287.222 552.69 286.974 553.128 286.797 553.711C286.62 554.289 286.532 555 286.532 555.844C286.532 556.693 286.618 557.409 286.789 557.992C286.967 558.57 287.217 559.003 287.539 559.289C287.862 559.576 288.243 559.719 288.68 559.719ZM299.067 561.656C298.124 561.656 297.311 561.43 296.629 560.977C295.952 560.523 295.431 559.862 295.067 558.992C294.707 558.117 294.528 557.068 294.528 555.844C294.528 554.62 294.707 553.573 295.067 552.703C295.431 551.833 295.955 551.172 296.637 550.719C297.319 550.26 298.129 550.031 299.067 550.031C300.004 550.031 300.814 550.26 301.496 550.719C302.179 551.172 302.702 551.836 303.067 552.711C303.431 553.581 303.613 554.625 303.613 555.844C303.613 557.073 303.431 558.122 303.067 558.992C302.707 559.862 302.186 560.523 301.504 560.977C300.822 561.43 300.009 561.656 299.067 561.656ZM299.067 559.719C299.504 559.719 299.884 559.576 300.207 559.289C300.535 559.003 300.785 558.57 300.957 557.992C301.129 557.409 301.212 556.693 301.207 555.844C301.207 555 301.121 554.289 300.949 553.711C300.778 553.128 300.53 552.69 300.207 552.398C299.884 552.107 299.504 551.961 299.067 551.961C298.629 551.961 298.249 552.107 297.926 552.398C297.608 552.69 297.361 553.128 297.184 553.711C297.007 554.289 296.918 555 296.918 555.844C296.918 556.693 297.004 557.409 297.176 557.992C297.353 558.57 297.603 559.003 297.926 559.289C298.249 559.576 298.629 559.719 299.067 559.719ZM310.352 559.133H308.344V555.992H310.352V559.133ZM316.641 559.477H314.641V548.734H316.641V559.477ZM316.953 562.695H306.344V561.086H316.953V562.695ZM308.352 561.516H306.344V558.445H308.352V561.516ZM304.539 555.039C306.487 555.013 308.167 554.977 309.578 554.93C310.995 554.878 312.362 554.768 313.68 554.602L313.781 556.031C312.401 556.266 310.956 556.422 309.445 556.5C307.94 556.578 306.383 556.615 304.773 556.609L304.539 555.039ZM315.094 558.344H311.922V556.984H315.094V558.344ZM309.164 549.211C309.846 549.206 310.456 549.312 310.992 549.531C311.534 549.745 311.956 550.047 312.258 550.438C312.565 550.823 312.719 551.263 312.719 551.758C312.719 552.263 312.565 552.703 312.258 553.078C311.956 553.453 311.536 553.747 311 553.961C310.464 554.169 309.852 554.273 309.164 554.273C308.471 554.273 307.854 554.169 307.312 553.961C306.771 553.747 306.349 553.453 306.047 553.078C305.745 552.703 305.594 552.263 305.594 551.758C305.594 551.263 305.745 550.82 306.047 550.43C306.349 550.039 306.771 549.737 307.312 549.523C307.854 549.31 308.471 549.206 309.164 549.211ZM309.164 550.672C308.831 550.667 308.536 550.708 308.281 550.797C308.026 550.88 307.828 551.005 307.688 551.172C307.552 551.339 307.484 551.534 307.484 551.758C307.484 551.982 307.552 552.177 307.688 552.344C307.828 552.505 308.026 552.628 308.281 552.711C308.536 552.794 308.831 552.836 309.164 552.836C309.492 552.836 309.779 552.794 310.023 552.711C310.273 552.628 310.469 552.505 310.609 552.344C310.75 552.177 310.82 551.982 310.82 551.758C310.82 551.534 310.75 551.339 310.609 551.172C310.469 551.005 310.273 550.88 310.023 550.797C309.779 550.708 309.492 550.667 309.164 550.672Z" fill="#FFFA87"/>
<rect x="62" y="487" width="270" height="37" rx="15" stroke="#FFFA87" stroke-width="2"/>
<path d="M90.9062 498.977C91.9583 498.977 92.8724 499.089 93.6484 499.312C94.4245 499.531 95.0208 499.852 95.4375 500.273C95.8594 500.695 96.0703 501.193 96.0703 501.766C96.0703 502.333 95.8594 502.823 95.4375 503.234C95.0208 503.646 94.4245 503.964 93.6484 504.188C92.8724 504.406 91.9583 504.516 90.9062 504.516C89.8646 504.516 88.9531 504.406 88.1719 504.188C87.3906 503.964 86.7865 503.646 86.3594 503.234C85.9323 502.823 85.7188 502.333 85.7188 501.766C85.7188 501.193 85.9323 500.695 86.3594 500.273C86.7865 499.852 87.3906 499.531 88.1719 499.312C88.9531 499.089 89.8646 498.977 90.9062 498.977ZM90.9062 500.523C90.2448 500.523 89.6797 500.57 89.2109 500.664C88.7474 500.758 88.3932 500.898 88.1484 501.086C87.9089 501.268 87.7891 501.495 87.7891 501.766C87.7891 502.026 87.9089 502.247 88.1484 502.43C88.388 502.607 88.7396 502.742 89.2031 502.836C89.6719 502.924 90.2396 502.971 90.9062 502.977C91.5625 502.971 92.1224 502.924 92.5859 502.836C93.0495 502.742 93.4036 502.607 93.6484 502.43C93.8932 502.247 94.0156 502.026 94.0156 501.766C94.0156 501.495 93.8932 501.268 93.6484 501.086C93.4036 500.898 93.0495 500.758 92.5859 500.664C92.1224 500.57 91.5625 500.523 90.9062 500.523ZM95.8438 512.781H85.9297V507.93H95.8438V512.781ZM87.8906 511.18H93.8906V509.508H87.8906V511.18ZM97.3984 506.938H84.4297V505.344H97.3984V506.938ZM103.347 510.375H101.402V507H103.347V510.375ZM107.902 510.367H105.949V506.984H107.902V510.367ZM111.082 511.359H98.0818V509.727H111.082V511.359ZM109.582 504.352H101.566V506.781H99.5818V502.766H107.613V501.242H99.5584V499.641H109.582V504.352ZM109.918 507.547H99.5818V505.93H109.918V507.547ZM119.081 501.969H121.027V509.766H119.081V501.969ZM116.152 504.898H123.964V506.844H116.152V504.898ZM135.854 501.734H129.682V500.141H135.854V501.734ZM133.511 509.039H131.55V504.211H133.511V509.039ZM137.05 501.273C137.044 501.945 137.037 502.518 137.026 502.992C137.016 503.461 136.982 504.021 136.925 504.672C136.867 505.318 136.781 506.005 136.667 506.734L134.706 506.57C134.862 505.549 134.961 504.648 135.003 503.867C135.044 503.081 135.065 502.216 135.065 501.273V500.141H137.05V501.273ZM140.315 512.938H138.307V498.703H140.315V512.938ZM142.245 506.094H139.722V504.43H142.245V506.094ZM128.932 508.445C130.729 508.43 132.315 508.396 133.69 508.344C135.071 508.286 136.386 508.18 137.636 508.023L137.753 509.5C136.44 509.719 135.063 509.865 133.62 509.938C132.182 510.01 130.685 510.042 129.128 510.031L128.932 508.445ZM147.538 502.586C147.538 503.674 147.384 504.732 147.077 505.758C146.77 506.779 146.314 507.688 145.71 508.484C145.105 509.276 144.384 509.87 143.546 510.266L142.374 508.695C143.145 508.336 143.796 507.828 144.327 507.172C144.863 506.516 145.27 505.792 145.546 505C145.822 504.208 145.96 503.404 145.96 502.586V500.93H147.538V502.586ZM147.96 502.586C147.96 503.336 148.09 504.086 148.35 504.836C148.616 505.581 149.009 506.266 149.53 506.891C150.056 507.51 150.694 507.992 151.444 508.336L150.335 509.898C149.501 509.518 148.788 508.948 148.194 508.188C147.6 507.427 147.15 506.562 146.842 505.594C146.535 504.62 146.382 503.617 146.382 502.586V500.93H147.96V502.586ZM150.827 501.719H142.944V500.094H150.827V501.719ZM153.928 512.938H151.928V498.703H153.928V512.938ZM156.038 505.812H153.491V504.148H156.038V505.812Z" fill="#FFFA87"/>
<path d="M268.083 502.188V502.117H262.536V500.188H270.521V502.148L265.747 511.5H263.325L268.083 502.188ZM271.134 514.797H269.477L270.251 510.352H272.485L271.134 514.797ZM278.294 511.656C277.351 511.656 276.538 511.43 275.856 510.977C275.179 510.523 274.658 509.862 274.294 508.992C273.934 508.117 273.755 507.068 273.755 505.844C273.755 504.62 273.934 503.573 274.294 502.703C274.658 501.833 275.182 501.172 275.864 500.719C276.546 500.26 277.356 500.031 278.294 500.031C279.231 500.031 280.041 500.26 280.723 500.719C281.406 501.172 281.929 501.836 282.294 502.711C282.658 503.581 282.841 504.625 282.841 505.844C282.841 507.073 282.658 508.122 282.294 508.992C281.934 509.862 281.413 510.523 280.731 510.977C280.049 511.43 279.236 511.656 278.294 511.656ZM278.294 509.719C278.731 509.719 279.111 509.576 279.434 509.289C279.762 509.003 280.012 508.57 280.184 507.992C280.356 507.409 280.439 506.693 280.434 505.844C280.434 505 280.348 504.289 280.176 503.711C280.005 503.128 279.757 502.69 279.434 502.398C279.111 502.107 278.731 501.961 278.294 501.961C277.856 501.961 277.476 502.107 277.153 502.398C276.835 502.69 276.588 503.128 276.411 503.711C276.234 504.289 276.145 505 276.145 505.844C276.145 506.693 276.231 507.409 276.403 507.992C276.58 508.57 276.83 509.003 277.153 509.289C277.476 509.576 277.856 509.719 278.294 509.719ZM288.68 511.656C287.737 511.656 286.925 511.43 286.243 510.977C285.566 510.523 285.045 509.862 284.68 508.992C284.321 508.117 284.141 507.068 284.141 505.844C284.141 504.62 284.321 503.573 284.68 502.703C285.045 501.833 285.568 501.172 286.25 500.719C286.933 500.26 287.743 500.031 288.68 500.031C289.618 500.031 290.428 500.26 291.11 500.719C291.792 501.172 292.316 501.836 292.68 502.711C293.045 503.581 293.227 504.625 293.227 505.844C293.227 507.073 293.045 508.122 292.68 508.992C292.321 509.862 291.8 510.523 291.118 510.977C290.435 511.43 289.623 511.656 288.68 511.656ZM288.68 509.719C289.118 509.719 289.498 509.576 289.821 509.289C290.149 509.003 290.399 508.57 290.571 507.992C290.743 507.409 290.826 506.693 290.821 505.844C290.821 505 290.735 504.289 290.563 503.711C290.391 503.128 290.144 502.69 289.821 502.398C289.498 502.107 289.118 501.961 288.68 501.961C288.243 501.961 287.862 502.107 287.54 502.398C287.222 502.69 286.974 503.128 286.797 503.711C286.62 504.289 286.532 505 286.532 505.844C286.532 506.693 286.618 507.409 286.79 507.992C286.967 508.57 287.217 509.003 287.54 509.289C287.862 509.576 288.243 509.719 288.68 509.719ZM299.067 511.656C298.124 511.656 297.311 511.43 296.629 510.977C295.952 510.523 295.431 509.862 295.067 508.992C294.707 508.117 294.528 507.068 294.528 505.844C294.528 504.62 294.707 503.573 295.067 502.703C295.431 501.833 295.955 501.172 296.637 500.719C297.319 500.26 298.129 500.031 299.067 500.031C300.004 500.031 300.814 500.26 301.496 500.719C302.179 501.172 302.702 501.836 303.067 502.711C303.431 503.581 303.614 504.625 303.614 505.844C303.614 507.073 303.431 508.122 303.067 508.992C302.707 509.862 302.186 510.523 301.504 510.977C300.822 511.43 300.009 511.656 299.067 511.656ZM299.067 509.719C299.504 509.719 299.884 509.576 300.207 509.289C300.535 509.003 300.785 508.57 300.957 507.992C301.129 507.409 301.212 506.693 301.207 505.844C301.207 505 301.121 504.289 300.949 503.711C300.778 503.128 300.53 502.69 300.207 502.398C299.884 502.107 299.504 501.961 299.067 501.961C298.629 501.961 298.249 502.107 297.926 502.398C297.608 502.69 297.361 503.128 297.184 503.711C297.007 504.289 296.918 505 296.918 505.844C296.918 506.693 297.004 507.409 297.176 507.992C297.353 508.57 297.603 509.003 297.926 509.289C298.249 509.576 298.629 509.719 299.067 509.719ZM310.352 509.133H308.344V505.992H310.352V509.133ZM316.641 509.477H314.641V498.734H316.641V509.477ZM316.953 512.695H306.344V511.086H316.953V512.695ZM308.352 511.516H306.344V508.445H308.352V511.516ZM304.539 505.039C306.487 505.013 308.167 504.977 309.578 504.93C310.995 504.878 312.362 504.768 313.68 504.602L313.781 506.031C312.401 506.266 310.956 506.422 309.445 506.5C307.94 506.578 306.383 506.615 304.773 506.609L304.539 505.039ZM315.094 508.344H311.922V506.984H315.094V508.344ZM309.164 499.211C309.846 499.206 310.456 499.312 310.992 499.531C311.534 499.745 311.956 500.047 312.258 500.438C312.565 500.823 312.719 501.263 312.719 501.758C312.719 502.263 312.565 502.703 312.258 503.078C311.956 503.453 311.536 503.747 311 503.961C310.464 504.169 309.852 504.273 309.164 504.273C308.471 504.273 307.854 504.169 307.312 503.961C306.771 503.747 306.349 503.453 306.047 503.078C305.745 502.703 305.594 502.263 305.594 501.758C305.594 501.263 305.745 500.82 306.047 500.43C306.349 500.039 306.771 499.737 307.312 499.523C307.854 499.31 308.471 499.206 309.164 499.211ZM309.164 500.672C308.831 500.667 308.536 500.708 308.281 500.797C308.026 500.88 307.828 501.005 307.688 501.172C307.552 501.339 307.484 501.534 307.484 501.758C307.484 501.982 307.552 502.177 307.688 502.344C307.828 502.505 308.026 502.628 308.281 502.711C308.536 502.794 308.831 502.836 309.164 502.836C309.492 502.836 309.779 502.794 310.023 502.711C310.273 502.628 310.469 502.505 310.609 502.344C310.75 502.177 310.82 501.982 310.82 501.758C310.82 501.534 310.75 501.339 310.609 501.172C310.469 501.005 310.273 500.88 310.023 500.797C309.779 500.708 309.492 500.667 309.164 500.672Z" fill="#FFFA87"/>
<rect x="62" y="437" width="270" height="37" rx="15" stroke="#FFFA87" stroke-width="2"/>
<path d="M90.9062 448.977C91.9583 448.977 92.8724 449.089 93.6484 449.312C94.4245 449.531 95.0208 449.852 95.4375 450.273C95.8594 450.695 96.0703 451.193 96.0703 451.766C96.0703 452.333 95.8594 452.823 95.4375 453.234C95.0208 453.646 94.4245 453.964 93.6484 454.188C92.8724 454.406 91.9583 454.516 90.9062 454.516C89.8646 454.516 88.9531 454.406 88.1719 454.188C87.3906 453.964 86.7865 453.646 86.3594 453.234C85.9323 452.823 85.7188 452.333 85.7188 451.766C85.7188 451.193 85.9323 450.695 86.3594 450.273C86.7865 449.852 87.3906 449.531 88.1719 449.312C88.9531 449.089 89.8646 448.977 90.9062 448.977ZM90.9062 450.523C90.2448 450.523 89.6797 450.57 89.2109 450.664C88.7474 450.758 88.3932 450.898 88.1484 451.086C87.9089 451.268 87.7891 451.495 87.7891 451.766C87.7891 452.026 87.9089 452.247 88.1484 452.43C88.388 452.607 88.7396 452.742 89.2031 452.836C89.6719 452.924 90.2396 452.971 90.9062 452.977C91.5625 452.971 92.1224 452.924 92.5859 452.836C93.0495 452.742 93.4036 452.607 93.6484 452.43C93.8932 452.247 94.0156 452.026 94.0156 451.766C94.0156 451.495 93.8932 451.268 93.6484 451.086C93.4036 450.898 93.0495 450.758 92.5859 450.664C92.1224 450.57 91.5625 450.523 90.9062 450.523ZM95.8438 462.781H85.9297V457.93H95.8438V462.781ZM87.8906 461.18H93.8906V459.508H87.8906V461.18ZM97.3984 456.938H84.4297V455.344H97.3984V456.938ZM103.347 460.375H101.402V457H103.347V460.375ZM107.902 460.367H105.949V456.984H107.902V460.367ZM111.082 461.359H98.0818V459.727H111.082V461.359ZM109.582 454.352H101.566V456.781H99.5818V452.766H107.613V451.242H99.5584V449.641H109.582V454.352ZM109.918 457.547H99.5818V455.93H109.918V457.547Z" fill="#FFFA87"/>
<path d="M264.435 461.656C263.612 461.656 262.875 461.516 262.224 461.234C261.573 460.953 261.062 460.557 260.693 460.047C260.328 459.536 260.138 458.958 260.122 458.312H262.489C262.505 458.578 262.599 458.818 262.771 459.031C262.943 459.245 263.174 459.411 263.466 459.531C263.758 459.651 264.081 459.711 264.435 459.711C264.804 459.711 265.138 459.646 265.435 459.516C265.737 459.38 265.969 459.198 266.13 458.969C266.291 458.734 266.37 458.469 266.364 458.172C266.37 457.865 266.286 457.591 266.114 457.352C265.943 457.112 265.693 456.927 265.364 456.797C265.041 456.661 264.661 456.594 264.224 456.594H263.169V454.859H264.224C264.594 454.859 264.924 454.797 265.216 454.672C265.508 454.542 265.732 454.362 265.888 454.133C266.044 453.904 266.12 453.643 266.114 453.352C266.12 453.065 266.054 452.812 265.919 452.594C265.784 452.37 265.588 452.198 265.333 452.078C265.078 451.958 264.786 451.898 264.458 451.898C264.125 451.898 263.82 451.958 263.544 452.078C263.268 452.193 263.044 452.359 262.872 452.578C262.706 452.792 262.614 453.042 262.599 453.328H260.349C260.37 452.688 260.56 452.117 260.919 451.617C261.278 451.117 261.765 450.729 262.38 450.453C263 450.172 263.693 450.031 264.458 450.031C265.234 450.031 265.919 450.169 266.513 450.445C267.107 450.721 267.568 451.102 267.896 451.586C268.224 452.07 268.383 452.612 268.372 453.211C268.383 453.622 268.297 453.997 268.114 454.336C267.937 454.674 267.685 454.953 267.357 455.172C267.034 455.385 266.659 455.531 266.232 455.609V455.695C266.784 455.763 267.252 455.917 267.638 456.156C268.028 456.391 268.323 456.693 268.521 457.062C268.719 457.432 268.812 457.854 268.802 458.328C268.812 458.958 268.63 459.529 268.255 460.039C267.88 460.544 267.359 460.94 266.693 461.227C266.026 461.513 265.273 461.656 264.435 461.656ZM271.134 464.797H269.477L270.251 460.352H272.485L271.134 464.797ZM278.294 461.656C277.351 461.656 276.538 461.43 275.856 460.977C275.179 460.523 274.658 459.862 274.294 458.992C273.934 458.117 273.755 457.068 273.755 455.844C273.755 454.62 273.934 453.573 274.294 452.703C274.658 451.833 275.182 451.172 275.864 450.719C276.546 450.26 277.356 450.031 278.294 450.031C279.231 450.031 280.041 450.26 280.723 450.719C281.406 451.172 281.929 451.836 282.294 452.711C282.658 453.581 282.841 454.625 282.841 455.844C282.841 457.073 282.658 458.122 282.294 458.992C281.934 459.862 281.413 460.523 280.731 460.977C280.049 461.43 279.236 461.656 278.294 461.656ZM278.294 459.719C278.731 459.719 279.111 459.576 279.434 459.289C279.762 459.003 280.012 458.57 280.184 457.992C280.356 457.409 280.439 456.693 280.434 455.844C280.434 455 280.348 454.289 280.176 453.711C280.005 453.128 279.757 452.69 279.434 452.398C279.111 452.107 278.731 451.961 278.294 451.961C277.856 451.961 277.476 452.107 277.153 452.398C276.835 452.69 276.588 453.128 276.411 453.711C276.234 454.289 276.145 455 276.145 455.844C276.145 456.693 276.231 457.409 276.403 457.992C276.58 458.57 276.83 459.003 277.153 459.289C277.476 459.576 277.856 459.719 278.294 459.719ZM288.68 461.656C287.737 461.656 286.925 461.43 286.243 460.977C285.566 460.523 285.045 459.862 284.68 458.992C284.321 458.117 284.141 457.068 284.141 455.844C284.141 454.62 284.321 453.573 284.68 452.703C285.045 451.833 285.568 451.172 286.25 450.719C286.933 450.26 287.743 450.031 288.68 450.031C289.618 450.031 290.428 450.26 291.11 450.719C291.792 451.172 292.316 451.836 292.68 452.711C293.045 453.581 293.227 454.625 293.227 455.844C293.227 457.073 293.045 458.122 292.68 458.992C292.321 459.862 291.8 460.523 291.118 460.977C290.435 461.43 289.623 461.656 288.68 461.656ZM288.68 459.719C289.118 459.719 289.498 459.576 289.821 459.289C290.149 459.003 290.399 458.57 290.571 457.992C290.743 457.409 290.826 456.693 290.821 455.844C290.821 455 290.735 454.289 290.563 453.711C290.391 453.128 290.144 452.69 289.821 452.398C289.498 452.107 289.118 451.961 288.68 451.961C288.243 451.961 287.862 452.107 287.54 452.398C287.222 452.69 286.974 453.128 286.797 453.711C286.62 454.289 286.532 455 286.532 455.844C286.532 456.693 286.618 457.409 286.79 457.992C286.967 458.57 287.217 459.003 287.54 459.289C287.862 459.576 288.243 459.719 288.68 459.719ZM299.067 461.656C298.124 461.656 297.311 461.43 296.629 460.977C295.952 460.523 295.431 459.862 295.067 458.992C294.707 458.117 294.528 457.068 294.528 455.844C294.528 454.62 294.707 453.573 295.067 452.703C295.431 451.833 295.955 451.172 296.637 450.719C297.319 450.26 298.129 450.031 299.067 450.031C300.004 450.031 300.814 450.26 301.496 450.719C302.179 451.172 302.702 451.836 303.067 452.711C303.431 453.581 303.614 454.625 303.614 455.844C303.614 457.073 303.431 458.122 303.067 458.992C302.707 459.862 302.186 460.523 301.504 460.977C300.822 461.43 300.009 461.656 299.067 461.656ZM299.067 459.719C299.504 459.719 299.884 459.576 300.207 459.289C300.535 459.003 300.785 458.57 300.957 457.992C301.129 457.409 301.212 456.693 301.207 455.844C301.207 455 301.121 454.289 300.949 453.711C300.778 453.128 300.53 452.69 300.207 452.398C299.884 452.107 299.504 451.961 299.067 451.961C298.629 451.961 298.249 452.107 297.926 452.398C297.608 452.69 297.361 453.128 297.184 453.711C297.007 454.289 296.918 455 296.918 455.844C296.918 456.693 297.004 457.409 297.176 457.992C297.353 458.57 297.603 459.003 297.926 459.289C298.249 459.576 298.629 459.719 299.067 459.719ZM310.352 459.133H308.344V455.992H310.352V459.133ZM316.641 459.477H314.641V448.734H316.641V459.477ZM316.953 462.695H306.344V461.086H316.953V462.695ZM308.352 461.516H306.344V458.445H308.352V461.516ZM304.539 455.039C306.487 455.013 308.167 454.977 309.578 454.93C310.995 454.878 312.362 454.768 313.68 454.602L313.781 456.031C312.401 456.266 310.956 456.422 309.445 456.5C307.94 456.578 306.383 456.615 304.773 456.609L304.539 455.039ZM315.094 458.344H311.922V456.984H315.094V458.344ZM309.164 449.211C309.846 449.206 310.456 449.312 310.992 449.531C311.534 449.745 311.956 450.047 312.258 450.438C312.565 450.823 312.719 451.263 312.719 451.758C312.719 452.263 312.565 452.703 312.258 453.078C311.956 453.453 311.536 453.747 311 453.961C310.464 454.169 309.852 454.273 309.164 454.273C308.471 454.273 307.854 454.169 307.312 453.961C306.771 453.747 306.349 453.453 306.047 453.078C305.745 452.703 305.594 452.263 305.594 451.758C305.594 451.263 305.745 450.82 306.047 450.43C306.349 450.039 306.771 449.737 307.312 449.523C307.854 449.31 308.471 449.206 309.164 449.211ZM309.164 450.672C308.831 450.667 308.536 450.708 308.281 450.797C308.026 450.88 307.828 451.005 307.688 451.172C307.552 451.339 307.484 451.534 307.484 451.758C307.484 451.982 307.552 452.177 307.688 452.344C307.828 452.505 308.026 452.628 308.281 452.711C308.536 452.794 308.831 452.836 309.164 452.836C309.492 452.836 309.779 452.794 310.023 452.711C310.273 452.628 310.469 452.505 310.609 452.344C310.75 452.177 310.82 451.982 310.82 451.758C310.82 451.534 310.75 451.339 310.609 451.172C310.469 451.005 310.273 450.88 310.023 450.797C309.779 450.708 309.492 450.667 309.164 450.672Z" fill="#FFFA87"/>
<path d="M31 73L18 86L31 99" stroke="#101010" stroke-width="3" stroke-linecap="round" stroke-linejoin="round"/>
</g>
<defs>
<clipPath id="clip0_1043_4888">
<rect width="393" height="852" fill="white"/>
</clipPath>
</defs>
</svg>
