<svg width="220" viewBox="0 0 393 852" fill="none" xmlns="http://www.w3.org/2000/svg">
<g clip-path="url(#clip0_1043_4840)">
<rect width="393" height="852" fill="#101010"/>
<rect width="393" height="1050" fill="#101010"/>
<rect x="16" y="284" width="361" height="380" rx="16" fill="#282828"/>
<path d="M105.552 138.904C106.896 138.904 107.952 139.96 107.952 141.256C107.952 142.6 106.896 143.656 105.552 143.656H101.328V160.6C101.328 161.944 100.272 163 98.928 163C97.632 163 96.576 161.944 96.576 160.6V143.656H93.936C92.64 143.656 91.584 142.6 91.584 141.256C91.584 139.96 92.64 138.904 93.936 138.904H96.576C96.528 135.496 97.776 132.376 100.08 130.072C101.376 128.776 102.864 127.816 104.592 127.24C105.792 126.76 107.184 127.432 107.616 128.68C108.048 129.88 107.424 131.272 106.176 131.704C105.168 132.04 104.256 132.616 103.44 133.432C102 134.872 101.328 136.744 101.328 138.904H105.552ZM121.74 138.904C127.548 138.904 133.788 143.128 133.788 150.952C133.788 152.248 132.732 153.304 131.388 153.304H114.828C115.836 156.184 118.524 158.248 121.74 158.248C122.844 158.248 124.812 158.152 127.116 156.664C128.22 155.944 129.708 156.616 130.284 157.768C130.86 158.968 130.236 160.216 129.132 160.936C125.964 163.048 123.516 163 121.74 163C115.068 163 109.692 157.576 109.692 150.952C109.692 144.28 115.068 138.904 121.74 138.904ZM121.74 143.656C118.524 143.656 115.836 145.72 114.828 148.552H128.7C127.692 145.192 124.62 143.656 121.74 143.656ZM150.614 138.904C156.422 138.904 162.662 143.128 162.662 150.952C162.662 152.248 161.606 153.304 160.262 153.304H143.702C144.71 156.184 147.398 158.248 150.614 158.248C151.718 158.248 153.686 158.152 155.99 156.664C157.094 155.944 158.582 156.616 159.158 157.768C159.734 158.968 159.11 160.216 158.006 160.936C154.838 163.048 152.39 163 150.614 163C143.942 163 138.566 157.576 138.566 150.952C138.566 144.28 143.942 138.904 150.614 138.904ZM150.614 143.656C147.398 143.656 144.71 145.72 143.702 148.552H157.574C156.566 145.192 153.494 143.656 150.614 143.656ZM179.557 138.808C182.293 138.808 184.837 139.72 186.853 141.256V129.304C186.853 128.008 187.909 126.952 189.205 126.952C190.549 126.952 191.605 128.008 191.605 129.304V150.808V150.856C191.605 157.48 186.181 162.904 179.557 162.904C172.885 162.904 167.509 157.48 167.509 150.856C167.509 144.184 172.885 138.808 179.557 138.808ZM179.557 158.152C183.589 158.152 186.853 154.888 186.853 150.856V150.808C186.853 146.824 183.589 143.56 179.557 143.56C175.525 143.56 172.261 146.824 172.261 150.856C172.261 154.84 175.525 158.152 179.557 158.152ZM208.529 138.808C215.201 138.808 220.577 144.184 220.577 150.856C220.577 157.48 215.201 162.904 208.529 162.904C201.905 162.904 196.481 157.48 196.481 150.856V150.808V129.304C196.481 128.008 197.537 126.952 198.881 126.952C200.177 126.952 201.233 128.008 201.233 129.304V141.256C203.249 139.72 205.793 138.808 208.529 138.808ZM208.529 158.152C212.561 158.152 215.825 154.84 215.825 150.856C215.825 146.824 212.561 143.56 208.529 143.56C204.497 143.56 201.233 146.824 201.233 150.808V150.856C201.233 154.888 204.497 158.152 208.529 158.152ZM237.444 139C244.212 139 249.252 144.376 249.252 151.144V160.552C249.252 161.944 248.244 162.952 246.852 162.952C245.892 162.952 244.548 161.944 244.548 160.552C242.484 162.28 240.18 162.952 237.444 162.952C230.676 162.952 225.3 157.912 225.3 151.144C225.3 144.376 230.676 139 237.444 139ZM237.444 158.248C241.476 158.248 244.548 155.176 244.548 151.144C244.548 147.112 241.476 143.704 237.444 143.704C233.412 143.704 230.004 147.112 230.004 151.144C230.004 155.176 233.412 158.248 237.444 158.248ZM266.034 163.048C259.41 163.048 254.034 157.624 254.034 151C254.034 144.328 259.41 138.952 266.034 138.952C270.354 138.952 274.338 141.256 276.498 144.952C277.17 146.104 276.738 147.544 275.634 148.216C274.482 148.84 273.042 148.456 272.37 147.352C271.074 145.096 268.674 143.704 266.034 143.704C262.05 143.704 258.738 146.968 258.738 151C258.738 154.984 262.05 158.296 266.034 158.296C268.53 158.296 270.834 157.048 272.178 154.936C272.898 153.832 274.386 153.544 275.49 154.216C276.594 154.936 276.882 156.424 276.162 157.528C273.954 160.984 270.162 163.048 266.034 163.048ZM300.659 159.016C301.475 160.024 301.331 161.512 300.323 162.328C299.891 162.712 299.363 162.904 298.835 162.904C298.115 162.904 297.443 162.616 297.011 162.04L287.891 151.096L286.403 152.104V160.504C286.403 161.848 285.299 162.904 284.003 162.904C282.707 162.904 281.651 161.848 281.651 160.504V150.856V129.4C281.651 128.104 282.707 127.048 284.003 127.048C285.299 127.048 286.403 128.104 286.403 129.4V146.488L297.299 139.336C298.307 138.52 299.795 138.616 300.659 139.624C301.475 140.632 301.331 142.168 300.323 142.984L291.923 148.504L300.659 159.016Z" fill="#FFFA87"/>
<path d="M118.966 186.023H109.857V184.445H118.966V186.023ZM121.498 195.695H108.529V194.078H121.498V195.695ZM115.146 194.906H113.17V189.188H115.146V194.906ZM120.232 185.797C120.232 186.63 120.222 187.341 120.201 187.93C120.18 188.513 120.13 189.206 120.052 190.008C119.974 190.805 119.849 191.669 119.677 192.602L117.654 192.391C117.836 191.521 117.969 190.701 118.052 189.93C118.136 189.154 118.185 188.469 118.201 187.875C118.222 187.276 118.232 186.583 118.232 185.797V184.445H120.232V185.797ZM134.392 191.555H132.493V183.234H134.392V191.555ZM133.033 188.117H130.697V186.5H133.033V188.117ZM131.228 191.492H129.345V183.477H131.228V191.492ZM134.392 197.438H132.415V193.711H124.47V192.102H134.392V197.438ZM128.368 184.195C128.379 185.393 128.189 186.464 127.798 187.406C127.408 188.344 126.811 189.167 126.009 189.875C125.212 190.578 124.194 191.174 122.954 191.664L122.009 190.172C123.03 189.802 123.863 189.362 124.509 188.852C125.16 188.341 125.639 187.76 125.947 187.109C126.254 186.458 126.408 185.737 126.408 184.945V184.195H128.368ZM127.04 185.797H122.704V184.195H127.04V185.797ZM147.708 191.203H145.732V183.203H147.708V191.203ZM138.638 189.891H136.638V184.031H138.638V189.891ZM137.872 188.844C139.19 188.844 140.375 188.799 141.427 188.711C142.479 188.622 143.51 188.466 144.521 188.242L144.755 189.867C143.682 190.091 142.596 190.253 141.497 190.352C140.398 190.451 139.19 190.5 137.872 190.5H136.638V188.844H137.872ZM147.708 197.273H138.216V191.773H147.708V197.273ZM140.169 195.703H145.755V193.336H140.169V195.703ZM154.087 184.164C154.832 184.164 155.503 184.315 156.102 184.617C156.701 184.914 157.17 185.328 157.509 185.859C157.852 186.385 158.024 186.984 158.024 187.656C158.024 188.328 157.852 188.93 157.509 189.461C157.17 189.987 156.701 190.401 156.102 190.703C155.509 191 154.837 191.148 154.087 191.148C153.347 191.148 152.675 191 152.071 190.703C151.467 190.401 150.993 189.987 150.649 189.461C150.306 188.93 150.134 188.328 150.134 187.656C150.134 186.984 150.306 186.385 150.649 185.859C150.993 185.328 151.467 184.914 152.071 184.617C152.675 184.315 153.347 184.164 154.087 184.164ZM154.087 185.883C153.707 185.883 153.368 185.953 153.071 186.094C152.774 186.234 152.54 186.44 152.368 186.711C152.196 186.977 152.11 187.292 152.11 187.656C152.11 188.026 152.196 188.344 152.368 188.609C152.54 188.87 152.774 189.073 153.071 189.219C153.368 189.359 153.707 189.43 154.087 189.43C154.467 189.43 154.808 189.359 155.11 189.219C155.418 189.073 155.655 188.87 155.821 188.609C155.993 188.344 156.079 188.026 156.079 187.656C156.079 187.292 155.993 186.977 155.821 186.711C155.655 186.44 155.418 186.234 155.11 186.094C154.808 185.953 154.467 185.883 154.087 185.883ZM161.423 197.477H159.446V183.203H161.423V197.477ZM149.54 192.945C150.686 192.94 151.727 192.927 152.665 192.906C153.602 192.885 154.597 192.844 155.649 192.781C156.707 192.714 157.704 192.617 158.642 192.492L158.782 193.922C157.819 194.109 156.813 194.25 155.767 194.344C154.72 194.438 153.735 194.497 152.813 194.523C151.897 194.549 150.884 194.562 149.774 194.562L149.54 192.945ZM171.266 184.164C172.011 184.164 172.683 184.315 173.282 184.617C173.881 184.914 174.349 185.328 174.688 185.859C175.032 186.385 175.204 186.984 175.204 187.656C175.204 188.328 175.032 188.93 174.688 189.461C174.349 189.987 173.881 190.401 173.282 190.703C172.688 191 172.016 191.148 171.266 191.148C170.526 191.148 169.855 191 169.25 190.703C168.646 190.401 168.172 189.987 167.829 189.461C167.485 188.93 167.313 188.328 167.313 187.656C167.313 186.984 167.485 186.385 167.829 185.859C168.172 185.328 168.646 184.914 169.25 184.617C169.855 184.315 170.526 184.164 171.266 184.164ZM171.266 185.883C170.886 185.883 170.547 185.953 170.25 186.094C169.954 186.234 169.719 186.44 169.547 186.711C169.375 186.977 169.29 187.292 169.29 187.656C169.29 188.026 169.375 188.344 169.547 188.609C169.719 188.87 169.954 189.073 170.25 189.219C170.547 189.359 170.886 189.43 171.266 189.43C171.646 189.43 171.987 189.359 172.29 189.219C172.597 189.073 172.834 188.87 173 188.609C173.172 188.344 173.258 188.026 173.258 187.656C173.258 187.292 173.172 186.977 173 186.711C172.834 186.44 172.597 186.234 172.29 186.094C171.987 185.953 171.646 185.883 171.266 185.883ZM178.602 197.477H176.625V183.203H178.602V197.477ZM166.719 192.945C167.865 192.94 168.907 192.927 169.844 192.906C170.782 192.885 171.776 192.844 172.829 192.781C173.886 192.714 174.883 192.617 175.821 192.492L175.961 193.922C174.998 194.109 173.993 194.25 172.946 194.344C171.899 194.438 170.915 194.497 169.993 194.523C169.076 194.549 168.063 194.562 166.954 194.562L166.719 192.945ZM192.285 193.711H190.309V183.234H192.285V193.711ZM187.957 184.289C187.957 185.549 187.694 186.703 187.168 187.75C186.642 188.792 185.884 189.688 184.895 190.438C183.905 191.188 182.72 191.773 181.34 192.195L180.496 190.641C181.616 190.281 182.577 189.831 183.379 189.289C184.181 188.747 184.793 188.128 185.215 187.43C185.637 186.732 185.848 185.984 185.848 185.188V184.289H187.957ZM187.074 185.891H181.254V184.289H187.074V185.891ZM190.582 187.562H187.184V185.977H190.582V187.562ZM190.473 190.75H187.051V189.156H190.473V190.75ZM192.66 197.195H182.91V195.586H192.66V197.195ZM184.934 196.602H182.91V192.664H184.934V196.602ZM200.445 183.422C201.539 183.422 202.471 183.516 203.242 183.703C204.013 183.885 204.599 184.159 205 184.523C205.406 184.883 205.609 185.32 205.609 185.836C205.609 186.357 205.406 186.802 205 187.172C204.599 187.536 204.013 187.812 203.242 188C202.471 188.188 201.539 188.281 200.445 188.281C199.352 188.281 198.417 188.188 197.641 188C196.87 187.812 196.279 187.536 195.867 187.172C195.461 186.802 195.258 186.357 195.258 185.836C195.258 185.32 195.461 184.883 195.867 184.523C196.279 184.159 196.87 183.885 197.641 183.703C198.417 183.516 199.352 183.422 200.445 183.422ZM200.445 184.875C199.753 184.875 199.177 184.911 198.719 184.984C198.26 185.052 197.917 185.159 197.688 185.305C197.464 185.451 197.352 185.628 197.352 185.836C197.352 186.07 197.461 186.26 197.68 186.406C197.904 186.547 198.24 186.651 198.688 186.719C199.135 186.786 199.721 186.82 200.445 186.82C201.18 186.82 201.771 186.786 202.219 186.719C202.667 186.651 203 186.547 203.219 186.406C203.443 186.26 203.555 186.07 203.555 185.836C203.555 185.628 203.44 185.453 203.211 185.312C202.987 185.167 202.646 185.057 202.188 184.984C201.729 184.911 201.148 184.875 200.445 184.875ZM206.938 190.539H193.969V188.961H206.938V190.539ZM205.352 194.984H197.43V196.266H195.469V193.594H203.383V192.812H195.461V191.352H205.352V194.984ZM205.727 197.336H195.469V195.844H205.727V197.336ZM224.14 190.336H211.148V188.773H224.14V190.336ZM222.586 187.984H212.757V186.414H222.586V187.984ZM222.484 185.086H214.75V187.75H212.757V183.508H222.484V185.086ZM222.531 194.883H214.609V196.164H212.648V193.469H220.562V192.672H212.64V191.172H222.531V194.883ZM222.906 197.32H212.648V195.773H222.906V197.32ZM236.769 197.477H234.792V183.203H236.769V197.477ZM235.136 187.852H232.41V186.234H235.136V187.852ZM226.417 192.656C227.579 192.656 228.618 192.63 229.535 192.578C230.451 192.521 231.402 192.422 232.386 192.281L232.542 193.906C231.563 194.057 230.615 194.159 229.699 194.211C228.787 194.263 227.693 194.289 226.417 194.289H225.292V192.656H226.417ZM231.652 189.867H227.285V193.039H225.292V188.32H229.699V185.992H225.261V184.398H231.652V189.867ZM235.089 191.727H232.363V190.094H235.089V191.727ZM245.515 185.227C245.515 186.065 245.286 186.833 244.827 187.531C244.374 188.229 243.72 188.815 242.866 189.289C242.012 189.758 240.997 190.073 239.819 190.234L239.077 188.68C240.072 188.555 240.924 188.315 241.632 187.961C242.345 187.607 242.882 187.19 243.241 186.711C243.601 186.232 243.78 185.737 243.78 185.227V184.797H245.515V185.227ZM246.085 185.227C246.085 185.737 246.262 186.232 246.616 186.711C246.976 187.19 247.512 187.607 248.226 187.961C248.939 188.315 249.799 188.555 250.804 188.68L250.085 190.234C248.903 190.073 247.879 189.758 247.015 189.289C246.155 188.82 245.497 188.237 245.038 187.539C244.58 186.836 244.351 186.065 244.351 185.227V184.797H246.085V185.227ZM245.882 197.445H243.905V192.203H245.882V197.445ZM251.421 192.656H238.452V191.07H251.421V192.656ZM250.249 185.523H239.616V183.969H250.249V185.523ZM260.167 189.648H257.745V188.016H260.167V189.648ZM256.253 186.891C256.253 188 256.138 189.055 255.909 190.055C255.685 191.055 255.334 191.948 254.854 192.734C254.38 193.521 253.779 194.138 253.05 194.586L251.831 193.102C252.503 192.685 253.055 192.148 253.487 191.492C253.919 190.831 254.232 190.112 254.425 189.336C254.623 188.56 254.722 187.745 254.722 186.891V184.438H256.253V186.891ZM256.651 186.797C256.651 187.635 256.735 188.422 256.901 189.156C257.068 189.885 257.344 190.562 257.729 191.188C258.12 191.812 258.623 192.326 259.237 192.727L258.159 194.258C257.435 193.82 256.852 193.216 256.409 192.445C255.966 191.674 255.646 190.818 255.448 189.875C255.255 188.932 255.159 187.906 255.159 186.797V184.438H256.651V186.797ZM264.425 197.438H262.511V183.203H264.425V197.438ZM261.448 196.781H259.581V183.422H261.448V196.781ZM270.632 194.445H268.655V190.453H270.632V194.445ZM275.866 194.445H273.858V190.453H275.866V194.445ZM278.757 195.773H265.757V194.141H278.757V195.773ZM272.233 183.906C273.259 183.906 274.176 184.065 274.983 184.383C275.796 184.701 276.431 185.148 276.889 185.727C277.353 186.305 277.585 186.969 277.585 187.719C277.585 188.474 277.355 189.141 276.897 189.719C276.439 190.292 275.803 190.737 274.991 191.055C274.184 191.367 273.264 191.526 272.233 191.531C271.207 191.526 270.288 191.367 269.475 191.055C268.668 190.737 268.035 190.292 267.577 189.719C267.118 189.141 266.889 188.474 266.889 187.719C266.889 186.969 267.118 186.305 267.577 185.727C268.035 185.148 268.671 184.701 269.483 184.383C270.296 184.065 271.212 183.906 272.233 183.906ZM272.233 185.484C271.556 185.479 270.965 185.565 270.46 185.742C269.954 185.919 269.561 186.177 269.28 186.516C268.999 186.849 268.858 187.25 268.858 187.719C268.858 188.182 268.999 188.586 269.28 188.93C269.561 189.268 269.954 189.531 270.46 189.719C270.97 189.901 271.561 189.992 272.233 189.992C272.9 189.992 273.488 189.901 273.999 189.719C274.509 189.531 274.905 189.268 275.186 188.93C275.473 188.586 275.616 188.182 275.616 187.719C275.616 187.25 275.475 186.849 275.194 186.516C274.913 186.182 274.517 185.927 274.007 185.75C273.501 185.568 272.91 185.479 272.233 185.484ZM282.424 192.617H280.432L280.221 184.688H282.643L282.424 192.617ZM281.432 196.141C281.198 196.141 280.979 196.081 280.776 195.961C280.573 195.836 280.411 195.674 280.291 195.477C280.177 195.273 280.12 195.055 280.12 194.82C280.12 194.591 280.177 194.378 280.291 194.18C280.411 193.977 280.573 193.818 280.776 193.703C280.979 193.589 281.198 193.531 281.432 193.531C281.661 193.531 281.875 193.589 282.073 193.703C282.276 193.818 282.437 193.977 282.557 194.18C282.682 194.378 282.745 194.591 282.745 194.82C282.745 195.055 282.682 195.273 282.557 195.477C282.437 195.674 282.276 195.836 282.073 195.961C281.875 196.081 281.661 196.141 281.432 196.141ZM45.9249 221.453H43.9484V216.297H45.9249V221.453ZM51.4484 217.359H38.4796V215.727H51.4484V217.359ZM45.6984 210.109C45.6984 210.917 45.4666 211.661 45.0031 212.344C44.5447 213.021 43.8755 213.591 42.9953 214.055C42.115 214.518 41.0682 214.826 39.8546 214.977L39.1281 213.422C40.1489 213.297 41.0213 213.06 41.7453 212.711C42.4744 212.362 43.0239 211.958 43.3937 211.5C43.7635 211.042 43.9484 210.578 43.9484 210.109V209.75H45.6984V210.109ZM45.9484 210.109C45.9484 210.568 46.1307 211.026 46.4953 211.484C46.865 211.943 47.4119 212.349 48.1359 212.703C48.865 213.057 49.7348 213.297 50.7453 213.422L50.0265 214.977C48.8234 214.831 47.7791 214.521 46.8937 214.047C46.0135 213.573 45.3416 212.995 44.8781 212.312C44.4197 211.625 44.1906 210.891 44.1906 210.109V209.75H45.9484V210.109ZM50.2531 210.422H39.6515V208.852H50.2531V210.422ZM45.9249 209.391H43.9484V207.234H45.9249V209.391ZM64.413 210.281H52.7411V208.688H64.413V210.281ZM65.1318 218.031H52.1318V216.414H65.1318V218.031ZM59.5849 221.453H57.6239V217.797H59.5849V221.453ZM58.6083 210.844C59.6344 210.844 60.512 210.938 61.2411 211.125C61.9703 211.307 62.5302 211.583 62.9208 211.953C63.3167 212.318 63.5146 212.763 63.5146 213.289C63.5146 213.799 63.3167 214.237 62.9208 214.602C62.5302 214.961 61.9703 215.234 61.2411 215.422C60.512 215.609 59.6344 215.706 58.6083 215.711C57.5875 215.706 56.7099 215.609 55.9755 215.422C55.2411 215.234 54.6786 214.961 54.288 214.602C53.8974 214.237 53.7021 213.799 53.7021 213.289C53.7021 212.763 53.8974 212.318 54.288 211.953C54.6786 211.583 55.2411 211.307 55.9755 211.125C56.7099 210.938 57.5875 210.844 58.6083 210.844ZM58.6083 212.32C57.9677 212.32 57.4364 212.354 57.0146 212.422C56.5979 212.49 56.2854 212.596 56.0771 212.742C55.8739 212.883 55.7724 213.065 55.7724 213.289C55.7724 213.497 55.8739 213.672 56.0771 213.812C56.2854 213.953 56.5979 214.06 57.0146 214.133C57.4364 214.206 57.9677 214.242 58.6083 214.242C59.2437 214.242 59.7698 214.206 60.1864 214.133C60.6031 214.06 60.9156 213.953 61.1239 213.812C61.3375 213.672 61.4443 213.497 61.4443 213.289C61.4443 213.065 61.3375 212.883 61.1239 212.742C60.9156 212.596 60.6031 212.49 60.1864 212.422C59.7698 212.354 59.2437 212.32 58.6083 212.32ZM59.5849 209.758H57.6239V207.188H59.5849V209.758ZM71.1391 216.406C72.4829 216.406 73.6079 216.378 74.5141 216.32C75.4204 216.258 76.3214 216.143 77.2173 215.977L77.4282 217.586C76.5011 217.768 75.5714 217.891 74.6391 217.953C73.712 218.016 72.5454 218.044 71.1391 218.039H69.9751V216.406H71.1391ZM76.4673 210.086H71.9829V217.016H69.9751V208.461H76.4673V210.086ZM81.3188 221.477H79.3266V207.203H81.3188V221.477ZM80.1782 213.766H75.7641V212.141H80.1782V213.766ZM99.709 214.234H97.1856V212.602H99.709V214.234ZM97.7012 221.414H95.7012V207.203H97.7012V221.414ZM88.9278 217.406H86.9356V208.57H88.9278V217.406ZM88.1699 216.297C89.2637 216.297 90.3548 216.247 91.4434 216.148C92.5371 216.049 93.6361 215.891 94.7403 215.672L94.959 217.328C93.8496 217.552 92.735 217.711 91.6153 217.805C90.5007 217.893 89.3522 217.938 88.1699 217.938H86.9356V216.297H88.1699ZM113.111 216.078H100.142V214.492H113.111V216.078ZM111.635 221.195H101.705V219.586H111.635V221.195ZM103.697 220.102H101.705V217.031H103.697V220.102ZM106.619 207.656C107.65 207.651 108.556 207.766 109.338 208C110.119 208.229 110.721 208.565 111.142 209.008C111.569 209.451 111.783 209.969 111.783 210.562C111.783 211.161 111.569 211.682 111.142 212.125C110.721 212.562 110.119 212.901 109.338 213.141C108.556 213.38 107.65 213.503 106.619 213.508C105.577 213.503 104.666 213.38 103.885 213.141C103.103 212.901 102.499 212.562 102.072 212.125C101.645 211.682 101.431 211.161 101.431 210.562C101.431 209.969 101.645 209.451 102.072 209.008C102.499 208.565 103.103 208.229 103.885 208C104.666 207.766 105.577 207.651 106.619 207.656ZM106.619 209.219C105.963 209.219 105.4 209.271 104.931 209.375C104.468 209.479 104.114 209.633 103.869 209.836C103.624 210.034 103.502 210.276 103.502 210.562C103.502 210.844 103.622 211.086 103.861 211.289C104.106 211.492 104.46 211.643 104.924 211.742C105.392 211.836 105.957 211.883 106.619 211.883C107.275 211.883 107.835 211.836 108.299 211.742C108.762 211.643 109.116 211.492 109.361 211.289C109.606 211.086 109.728 210.844 109.728 210.562C109.728 210.276 109.606 210.034 109.361 209.836C109.116 209.633 108.762 209.479 108.299 209.375C107.835 209.271 107.275 209.219 106.619 209.219ZM128.337 213.297H124.548V211.695H128.337V213.297ZM122.29 210.43C122.29 211.648 122.147 212.792 121.861 213.859C121.574 214.927 121.137 215.872 120.548 216.695C119.96 217.518 119.23 218.148 118.361 218.586L117.111 216.953C117.892 216.599 118.548 216.083 119.079 215.406C119.616 214.729 120.014 213.964 120.275 213.109C120.54 212.255 120.673 211.362 120.673 210.43V208.305H122.29V210.43ZM122.697 210.43C122.697 211.362 122.822 212.242 123.072 213.07C123.322 213.893 123.704 214.625 124.22 215.266C124.736 215.906 125.376 216.396 126.142 216.734L124.923 218.328C124.069 217.906 123.355 217.305 122.783 216.523C122.215 215.737 121.79 214.828 121.509 213.797C121.233 212.766 121.095 211.643 121.095 210.43V208.305H122.697V210.43ZM129.314 221.477H127.337V207.203H129.314V221.477ZM142.872 221.477H140.849V207.203H142.872V221.477ZM133.669 211.812H136.739V208.352H138.7V218.148H131.677V208.352H133.669V211.812ZM136.739 216.523V213.359H133.669V216.523H136.739ZM151.727 209.086C151.727 210.117 151.485 211.083 151.001 211.984C150.517 212.885 149.826 213.656 148.931 214.297C148.04 214.932 146.996 215.37 145.798 215.609L144.946 213.953C145.967 213.76 146.858 213.414 147.618 212.914C148.384 212.414 148.967 211.828 149.368 211.156C149.774 210.484 149.977 209.794 149.977 209.086V208.07H151.727V209.086ZM152.095 209.086C152.095 209.799 152.295 210.495 152.696 211.172C153.102 211.849 153.688 212.438 154.454 212.938C155.225 213.432 156.126 213.771 157.157 213.953L156.282 215.609C155.095 215.37 154.053 214.935 153.157 214.305C152.267 213.674 151.582 212.909 151.102 212.008C150.623 211.107 150.384 210.133 150.384 209.086V208.07H152.095V209.086ZM157.626 219.695H144.626V218.062H157.626V219.695ZM171.278 219.859H158.278V218.227H171.278V219.859ZM165.731 218.906H163.77V215.531H165.731V218.906ZM169.778 212.852H161.762V215.281H159.778V211.289H167.809V209.742H159.755V208.141H169.778V212.852ZM170.114 216.07H159.778V214.453H170.114V216.07ZM177.848 209.547H180.762V207.852H182.762V214.062H175.871V207.852H177.848V209.547ZM180.762 212.492V211.039H177.848V212.492H180.762ZM186.731 214.453H184.739V207.203H186.731V214.453ZM188.653 211.602H185.903V209.984H188.653V211.602ZM186.731 218.852H179.285V220.555H177.324V217.422H184.746V216.531H177.301V214.992H186.731V218.852ZM187.145 221.336H177.324V219.773H187.145V221.336ZM200.148 212.523H196.773V210.906H200.148V212.523ZM201.086 217.617H199.102V207.234H201.086V217.617ZM201.43 221.195H191.648V219.586H201.43V221.195ZM193.648 220.523H191.648V216.703H193.648V220.523ZM194.062 209.992C194.062 210.909 193.914 211.768 193.617 212.57C193.326 213.372 192.878 214.076 192.273 214.68C191.674 215.279 190.935 215.727 190.055 216.023L189.023 214.414C189.773 214.174 190.404 213.826 190.914 213.367C191.43 212.904 191.812 212.385 192.062 211.812C192.312 211.234 192.438 210.628 192.438 209.992V209.07H194.062V209.992ZM194.469 210.008C194.469 210.586 194.589 211.146 194.828 211.688C195.068 212.224 195.43 212.711 195.914 213.148C196.404 213.586 197.013 213.922 197.742 214.156L196.758 215.734C195.898 215.453 195.174 215.023 194.586 214.445C194.003 213.867 193.568 213.198 193.281 212.438C192.995 211.677 192.852 210.867 192.852 210.008V209.07H194.469V210.008ZM197.305 209.789H189.586V208.188H197.305V209.789ZM213.972 221.438H212.004V207.203H213.972V221.438ZM216.082 214.422H213.535V212.789H216.082V214.422ZM211.035 210.938H202.683V209.336H211.035V210.938ZM206.894 211.727C207.587 211.727 208.209 211.872 208.762 212.164C209.314 212.451 209.746 212.852 210.058 213.367C210.376 213.883 210.535 214.466 210.535 215.117C210.535 215.768 210.376 216.352 210.058 216.867C209.746 217.383 209.314 217.786 208.762 218.078C208.209 218.365 207.587 218.508 206.894 218.508C206.202 218.508 205.579 218.365 205.027 218.078C204.475 217.786 204.043 217.383 203.73 216.867C203.418 216.352 203.262 215.768 203.262 215.117C203.262 214.466 203.418 213.883 203.73 213.367C204.043 212.852 204.475 212.451 205.027 212.164C205.579 211.872 206.202 211.727 206.894 211.727ZM206.894 213.352C206.566 213.352 206.269 213.424 206.004 213.57C205.743 213.711 205.538 213.917 205.387 214.188C205.241 214.453 205.168 214.763 205.168 215.117C205.168 215.477 205.241 215.789 205.387 216.055C205.538 216.32 205.743 216.526 206.004 216.672C206.269 216.812 206.566 216.883 206.894 216.883C207.233 216.883 207.532 216.812 207.793 216.672C208.053 216.526 208.254 216.32 208.394 216.055C208.54 215.789 208.613 215.477 208.613 215.117C208.613 214.763 208.54 214.453 208.394 214.188C208.254 213.917 208.053 213.711 207.793 213.57C207.532 213.424 207.233 213.352 206.894 213.352ZM207.887 209.945H205.902V207.43H207.887V209.945ZM227.961 212.656H218.015V211.102H227.961V212.656ZM229.398 215.742H216.398V214.18H229.398V215.742ZM220.007 211.883H218.015V207.719H220.007V211.883ZM228.046 221.125H217.89V219.516H228.046V221.125ZM219.89 219.977H217.89V216.906H219.89V219.977ZM242.378 221.438H240.472V207.203H242.378V221.438ZM238.339 214.039H234.964V212.414H238.339V214.039ZM239.37 220.797H237.519V207.461H239.37V220.797ZM231.472 216.625C232.592 216.625 233.511 216.599 234.23 216.547C234.954 216.495 235.693 216.393 236.449 216.242L236.605 217.875C235.85 218.026 235.089 218.128 234.324 218.18C233.558 218.232 232.607 218.26 231.472 218.266H230.488V216.625H231.472ZM235.933 210.422H232.441V217.32H230.488V208.828H235.933V210.422ZM257.925 209.461H248.831V207.867H257.925V209.461ZM260.214 215.609H247.245V214.008H260.214V215.609ZM258.706 209.18C258.706 209.852 258.698 210.43 258.683 210.914C258.667 211.393 258.625 211.938 258.558 212.547C258.495 213.151 258.391 213.802 258.245 214.5L256.261 214.305C256.406 213.643 256.511 213.021 256.573 212.438C256.636 211.854 256.675 211.336 256.69 210.883C256.711 210.424 256.722 209.857 256.722 209.18V207.867H258.706V209.18ZM248.667 212.531L248.44 210.906L257.354 210.719V212.195L248.667 212.531ZM258.925 221.195H248.745V219.586H258.925V221.195ZM250.745 219.977H248.745V216.648H250.745V219.977ZM276.002 215.164H265.956V213.578H276.002V215.164ZM277.424 219.828H264.424V218.195H277.424V219.828ZM271.877 218.719H269.916V214.305H271.877V218.719ZM275.901 209.805H267.948V214.297H265.956V208.227H275.901V209.805ZM285.53 216.883H283.545V214.609H285.53V216.883ZM284.553 207.398C285.6 207.398 286.511 207.51 287.287 207.734C288.069 207.958 288.668 208.276 289.084 208.688C289.506 209.099 289.717 209.594 289.717 210.172C289.717 210.724 289.506 211.206 289.084 211.617C288.668 212.023 288.069 212.336 287.287 212.555C286.511 212.773 285.6 212.883 284.553 212.883C283.511 212.883 282.6 212.773 281.819 212.555C281.037 212.336 280.433 212.023 280.006 211.617C279.579 211.206 279.365 210.724 279.365 210.172C279.365 209.599 279.579 209.107 280.006 208.695C280.433 208.279 281.037 207.958 281.819 207.734C282.6 207.51 283.511 207.398 284.553 207.398ZM284.553 208.938C283.886 208.932 283.321 208.977 282.858 209.07C282.394 209.159 282.04 209.297 281.795 209.484C281.556 209.667 281.436 209.896 281.436 210.172C281.436 210.427 281.556 210.643 281.795 210.82C282.04 210.997 282.394 211.133 282.858 211.227C283.321 211.315 283.886 211.359 284.553 211.359C285.209 211.359 285.769 211.315 286.233 211.227C286.696 211.133 287.05 210.997 287.295 210.82C287.54 210.643 287.662 210.427 287.662 210.172C287.662 209.896 287.54 209.667 287.295 209.484C287.05 209.297 286.696 209.159 286.233 209.07C285.769 208.977 285.209 208.932 284.553 208.938ZM289.49 221.281H279.576V216.43H289.49V221.281ZM281.537 219.68H287.537V218.008H281.537V219.68ZM291.045 215.203H278.076V213.609H291.045V215.203ZM303.627 221.477H301.604V207.203H303.627V221.477ZM295.9 208.211C296.614 208.211 297.255 208.419 297.822 208.836C298.395 209.253 298.84 209.844 299.158 210.609C299.481 211.375 299.643 212.266 299.643 213.281C299.643 214.302 299.481 215.195 299.158 215.961C298.84 216.727 298.395 217.318 297.822 217.734C297.255 218.146 296.614 218.352 295.9 218.352C295.176 218.352 294.528 218.146 293.955 217.734C293.387 217.318 292.942 216.727 292.619 215.961C292.296 215.195 292.135 214.302 292.135 213.281C292.135 212.266 292.296 211.375 292.619 210.609C292.942 209.844 293.387 209.253 293.955 208.836C294.528 208.419 295.176 208.211 295.9 208.211ZM295.9 210.016C295.536 210.01 295.213 210.135 294.932 210.391C294.656 210.641 294.442 211.013 294.291 211.508C294.145 211.997 294.072 212.589 294.072 213.281C294.072 213.974 294.145 214.565 294.291 215.055C294.442 215.544 294.656 215.917 294.932 216.172C295.213 216.422 295.536 216.547 295.9 216.547C296.26 216.547 296.577 216.422 296.854 216.172C297.13 215.917 297.343 215.544 297.494 215.055C297.645 214.565 297.721 213.974 297.721 213.281C297.721 212.589 297.645 211.997 297.494 211.508C297.343 211.013 297.13 210.641 296.854 210.391C296.583 210.135 296.265 210.01 295.9 210.016ZM314.627 214.312H312.627V211.984H314.627V214.312ZM320.861 215.461H318.845V207.234H320.861V215.461ZM308.931 213.734C310.598 213.734 312.186 213.708 313.697 213.656C315.207 213.599 316.624 213.492 317.947 213.336L318.064 214.711C317.137 214.867 316.163 214.987 315.142 215.07C314.121 215.154 313.176 215.208 312.306 215.234C311.442 215.26 310.4 215.281 309.181 215.297L308.931 213.734ZM317.111 212.578H310.134V211.016H317.111V212.578ZM317.025 209.453H312.134V211.523H310.134V207.859H317.025V209.453ZM313.15 217.125H318.892V216.023H320.861V221.281H311.166V216.023H313.15V217.125ZM318.892 219.68V218.609H313.15V219.68H318.892ZM334.505 221.438H332.529V207.203H334.505V221.438ZM325.286 217.406H323.318V208.57H325.286V217.406ZM324.576 216.234C325.69 216.234 326.818 216.185 327.958 216.086C329.104 215.982 330.24 215.823 331.365 215.609L331.615 217.258C330.443 217.497 329.273 217.669 328.107 217.773C326.945 217.878 325.768 217.93 324.576 217.93H323.318V216.234H324.576ZM347.423 221.477H345.423V207.203H347.423V221.477ZM349.532 214.125H346.985V212.492H349.532V214.125ZM337.97 216.375C339.261 216.38 340.405 216.349 341.399 216.281C342.394 216.214 343.394 216.094 344.399 215.922L344.618 217.594C343.597 217.766 342.582 217.88 341.571 217.938C340.561 217.995 339.36 218.021 337.97 218.016H336.767V216.375H337.97ZM343.439 210.148H338.759V217.188H336.767V208.531H343.439V210.148ZM351.692 220.141C351.458 220.141 351.239 220.081 351.036 219.961C350.833 219.836 350.674 219.674 350.559 219.477C350.445 219.273 350.388 219.055 350.388 218.82C350.388 218.591 350.445 218.378 350.559 218.18C350.674 217.977 350.833 217.818 351.036 217.703C351.239 217.589 351.458 217.531 351.692 217.531C351.927 217.531 352.143 217.589 352.341 217.703C352.544 217.818 352.705 217.977 352.825 218.18C352.945 218.378 353.005 218.591 353.005 218.82C353.005 219.055 352.945 219.273 352.825 219.477C352.705 219.674 352.544 219.836 352.341 219.961C352.143 220.081 351.927 220.141 351.692 220.141Z" fill="white"/>
<path d="M46.752 309.555H43.0898V308.617H46.752V309.555ZM40.8926 307.665C40.8926 308.603 40.7339 309.523 40.4165 310.426C40.0991 311.33 39.6646 312.13 39.1128 312.829C38.561 313.527 37.9434 314.062 37.2598 314.433L36.5127 313.51C37.1475 313.197 37.7261 312.733 38.2485 312.118C38.771 311.503 39.1836 310.802 39.4863 310.016C39.7891 309.23 39.9404 308.446 39.9404 307.665V305.292H40.8926V307.665ZM41.1123 307.665C41.1123 308.437 41.2637 309.198 41.5664 309.95C41.8691 310.702 42.2793 311.369 42.7969 311.95C43.3145 312.531 43.8857 312.968 44.5107 313.261L43.8223 314.198C43.1289 313.837 42.5063 313.322 41.9546 312.653C41.4028 311.984 40.9683 311.215 40.6509 310.346C40.3335 309.477 40.1748 308.583 40.1748 307.665V305.292H41.1123V307.665ZM47.3232 317.216H46.1807V304.164H47.3232V317.216ZM60.0635 317.216H58.9063V304.164H60.0635V317.216ZM51.2305 308.72H55.1123V305.277H56.2403V314.066H50.0879V305.277H51.2305V308.72ZM55.1123 313.1V309.643H51.2305V313.1H55.1123ZM68.4239 306.083C68.4239 306.981 68.17 307.821 67.6622 308.603C67.1544 309.384 66.4976 310.043 65.692 310.58C64.8863 311.117 64.0391 311.488 63.1505 311.693L62.6231 310.727C63.3946 310.57 64.1514 310.265 64.8936 309.811C65.6358 309.357 66.2413 308.8 66.71 308.141C67.1788 307.482 67.4132 306.796 67.4132 306.083V305.087H68.4239V306.083ZM68.6143 306.083C68.6143 306.786 68.8536 307.47 69.3321 308.134C69.8106 308.798 70.4234 309.359 71.1705 309.818C71.9176 310.277 72.672 310.58 73.4337 310.727L72.9063 311.693C72.0274 311.488 71.1851 311.12 70.3795 310.587C69.5738 310.055 68.9146 309.396 68.4019 308.61C67.8892 307.824 67.6329 306.981 67.6329 306.083V305.087H68.6143V306.083ZM74.0489 315.414H62.1251V314.462H74.0489V315.414ZM86.8331 311.122H74.9093V310.214H86.8331V311.122ZM85.339 314.931H77.5167V316.483H76.3595V314.14H84.1964V313.026H76.3448V312.162H85.339V314.931ZM85.7638 317.011H76.3595V316.176H85.7638V317.011ZM85.295 307.255H77.6046V308.69H76.462V306.464H84.1378V305.395H76.4181V304.56H85.295V307.255ZM85.5294 309.232H76.462V308.397H85.5294V309.232ZM95.4973 307.665C95.4973 308.603 95.3386 309.521 95.0212 310.419C94.7038 311.317 94.2692 312.113 93.7175 312.807C93.1657 313.5 92.548 314.032 91.8645 314.403L91.132 313.48C91.7668 313.168 92.343 312.704 92.8605 312.089C93.3781 311.474 93.7907 310.775 94.0983 309.994C94.406 309.213 94.5598 308.437 94.5598 307.665V305.292H95.4973V307.665ZM95.6877 307.665C95.6877 308.407 95.8391 309.152 96.1418 309.899C96.4445 310.646 96.8547 311.312 97.3723 311.898C97.8898 312.484 98.4514 312.929 99.0568 313.231L98.3537 314.154C97.6799 313.793 97.0695 313.278 96.5227 312.609C95.9758 311.94 95.5461 311.173 95.2336 310.309C94.9211 309.445 94.7648 308.563 94.7648 307.665V305.292H95.6877V307.665ZM101.401 317.187H100.258V304.164H101.401V317.187ZM103.583 310.448H101.137V309.452H103.583V310.448ZM108.208 311.049H107.066V308.588H108.208V311.049ZM113.042 311.049H111.9V308.588H113.042V311.049ZM115.987 311.562H104.121V310.609H115.987V311.562ZM110.054 312.558C110.991 312.558 111.795 312.646 112.464 312.821C113.133 312.997 113.645 313.256 114.002 313.598C114.358 313.939 114.536 314.359 114.536 314.857C114.536 315.346 114.358 315.761 114.002 316.103C113.645 316.444 113.133 316.706 112.464 316.886C111.795 317.067 110.991 317.157 110.054 317.157C109.116 317.157 108.311 317.067 107.637 316.886C106.963 316.706 106.448 316.444 106.092 316.103C105.735 315.761 105.557 315.346 105.557 314.857C105.557 314.359 105.735 313.939 106.092 313.598C106.448 313.256 106.963 312.997 107.637 312.821C108.311 312.646 109.116 312.558 110.054 312.558ZM110.054 313.437C109.361 313.437 108.765 313.493 108.267 313.605C107.769 313.717 107.388 313.881 107.124 314.096C106.861 314.311 106.729 314.564 106.729 314.857C106.729 315.15 106.861 315.402 107.124 315.612C107.388 315.822 107.769 315.983 108.267 316.095C108.765 316.208 109.361 316.264 110.054 316.264C110.738 316.264 111.331 316.208 111.834 316.095C112.337 315.983 112.72 315.822 112.984 315.612C113.247 315.402 113.379 315.15 113.379 314.857C113.379 314.564 113.247 314.311 112.984 314.096C112.72 313.881 112.339 313.717 111.841 313.605C111.343 313.493 110.747 313.437 110.054 313.437ZM110.054 304.413C111.001 304.413 111.819 304.508 112.508 304.699C113.196 304.889 113.726 305.165 114.097 305.526C114.468 305.888 114.654 306.322 114.654 306.83C114.654 307.328 114.468 307.758 114.097 308.119C113.726 308.48 113.196 308.756 112.508 308.947C111.819 309.137 111.001 309.232 110.054 309.232C109.107 309.232 108.286 309.137 107.593 308.947C106.9 308.756 106.367 308.48 105.996 308.119C105.625 307.758 105.44 307.328 105.44 306.83C105.44 306.322 105.625 305.888 105.996 305.526C106.367 305.165 106.9 304.889 107.593 304.699C108.286 304.508 109.107 304.413 110.054 304.413ZM110.054 305.321C109.351 305.321 108.74 305.382 108.223 305.504C107.705 305.626 107.31 305.8 107.036 306.024C106.763 306.249 106.626 306.518 106.626 306.83C106.626 307.143 106.763 307.411 107.036 307.636C107.31 307.86 107.705 308.034 108.223 308.156C108.74 308.278 109.351 308.339 110.054 308.339C110.757 308.339 111.365 308.278 111.878 308.156C112.39 308.034 112.786 307.86 113.064 307.636C113.343 307.411 113.482 307.143 113.482 306.83C113.482 306.518 113.343 306.249 113.064 306.024C112.786 305.8 112.39 305.626 111.878 305.504C111.365 305.382 110.757 305.321 110.054 305.321ZM126.998 317.187H125.856V304.164H126.998V317.187ZM129.181 310.492H126.735V309.54H129.181V310.492ZM124.596 307.211H116.847V306.259H124.596V307.211ZM120.787 308.295C121.403 308.295 121.952 308.422 122.435 308.676C122.919 308.93 123.297 309.284 123.571 309.738C123.844 310.192 123.981 310.707 123.981 311.283C123.981 311.859 123.844 312.375 123.571 312.829C123.297 313.283 122.919 313.637 122.435 313.891C121.952 314.145 121.403 314.271 120.787 314.271C120.172 314.271 119.623 314.145 119.139 313.891C118.656 313.637 118.278 313.283 118.004 312.829C117.731 312.375 117.594 311.859 117.594 311.283C117.594 310.707 117.731 310.192 118.004 309.738C118.278 309.284 118.656 308.93 119.139 308.676C119.623 308.422 120.172 308.295 120.787 308.295ZM120.787 309.262C120.387 309.262 120.028 309.347 119.711 309.518C119.393 309.689 119.144 309.928 118.964 310.236C118.783 310.543 118.693 310.893 118.693 311.283C118.693 311.674 118.783 312.021 118.964 312.323C119.144 312.626 119.393 312.863 119.711 313.034C120.028 313.205 120.387 313.29 120.787 313.29C121.188 313.29 121.547 313.205 121.864 313.034C122.181 312.863 122.43 312.626 122.611 312.323C122.792 312.021 122.882 311.674 122.882 311.283C122.882 310.893 122.792 310.543 122.611 310.236C122.43 309.928 122.181 309.689 121.864 309.518C121.547 309.347 121.188 309.262 120.787 309.262ZM121.344 306.698H120.201V304.325H121.344V306.698ZM139.709 307.431H136.018V306.464H139.709V307.431ZM139.739 310.214H136.018V309.262H139.739V310.214ZM136.311 311.386H130.334V305.307H136.311V311.386ZM131.477 310.463H135.183V306.259H131.477V310.463ZM140.515 313.686H139.358V304.179H140.515V313.686ZM140.808 316.908H132.092V315.941H140.808V316.908ZM133.249 316.366H132.092V312.836H133.249V316.366ZM152.743 309.555H149.08V308.617H152.743V309.555ZM146.883 307.665C146.883 308.603 146.724 309.523 146.407 310.426C146.09 311.33 145.655 312.13 145.103 312.829C144.552 313.527 143.934 314.062 143.25 314.433L142.503 313.51C143.138 313.197 143.717 312.733 144.239 312.118C144.762 311.503 145.174 310.802 145.477 310.016C145.78 309.23 145.931 308.446 145.931 307.665V305.292H146.883V307.665ZM147.103 307.665C147.103 308.437 147.254 309.198 147.557 309.95C147.86 310.702 148.27 311.369 148.787 311.95C149.305 312.531 149.876 312.968 150.501 313.261L149.813 314.198C149.119 313.837 148.497 313.322 147.945 312.653C147.393 311.984 146.959 311.215 146.641 310.346C146.324 309.477 146.165 308.583 146.165 307.665V305.292H147.103V307.665ZM153.314 317.216H152.171V304.164H153.314V317.216ZM165.406 312.426H164.263V310.404H165.406V312.426ZM161.641 305.629H168.086V304.384H169.229V308.661H160.498V304.384H161.641V305.629ZM168.086 307.768V306.508H161.641V307.768H168.086ZM170.782 310.697H158.916V309.745H170.782V310.697ZM169.258 314.857H161.524V316.483H160.381V314.008H168.13V312.851H160.352V311.972H169.258V314.857ZM169.654 317.04H160.381V316.132H169.654V317.04ZM182.511 313.861H181.354V304.164H182.511V313.861ZM179.025 306.171H172.111V305.233H179.025V306.171ZM171.745 310.902C173.288 310.893 174.687 310.866 175.941 310.822C177.196 310.778 178.366 310.697 179.45 310.58L179.508 311.444C178.385 311.62 177.184 311.737 175.905 311.796C174.625 311.854 173.288 311.884 171.891 311.884L171.745 310.902ZM174.542 311.093H173.429V306.039H174.542V311.093ZM177.692 311.093H176.579V306.039H177.692V311.093ZM181.955 307.606H179.127V306.654H181.955V307.606ZM181.955 310.082H179.127V309.115H181.955V310.082ZM182.863 316.908H174.118V315.941H182.863V316.908ZM175.275 316.542H174.118V313.056H175.275V316.542ZM195.574 312.25H194.475V304.179H195.574V312.25ZM194.797 308.72H192.278V307.768H194.797V308.72ZM192.776 312.045H191.677V304.384H192.776V312.045ZM191.121 306.61H184.441V305.658H191.121V306.61ZM187.795 307.27C188.342 307.27 188.828 307.36 189.253 307.541C189.678 307.721 190.007 307.98 190.242 308.317C190.476 308.654 190.593 309.047 190.593 309.496C190.593 309.936 190.476 310.324 190.242 310.661C190.007 310.998 189.678 311.259 189.253 311.444C188.828 311.63 188.342 311.723 187.795 311.723C187.258 311.723 186.777 311.63 186.353 311.444C185.928 311.259 185.598 310.998 185.364 310.661C185.129 310.324 185.012 309.936 185.012 309.496C185.012 309.047 185.129 308.654 185.364 308.317C185.598 307.98 185.925 307.721 186.345 307.541C186.765 307.36 187.249 307.27 187.795 307.27ZM187.795 308.134C187.454 308.134 187.148 308.19 186.88 308.302C186.611 308.415 186.404 308.573 186.257 308.778C186.111 308.983 186.038 309.223 186.038 309.496C186.038 309.76 186.113 309.997 186.265 310.207C186.416 310.417 186.624 310.578 186.887 310.69C187.151 310.802 187.454 310.858 187.795 310.858C188.137 310.858 188.442 310.802 188.711 310.69C188.98 310.578 189.187 310.417 189.334 310.207C189.48 309.997 189.553 309.76 189.553 309.496C189.553 309.223 189.48 308.983 189.334 308.778C189.187 308.573 188.982 308.415 188.718 308.302C188.455 308.19 188.147 308.134 187.795 308.134ZM188.367 306.215H187.224V304.223H188.367V306.215ZM188.909 313.085C188.909 313.632 188.787 314.164 188.542 314.682C188.298 315.199 187.952 315.666 187.502 316.081C187.053 316.496 186.521 316.815 185.906 317.04L185.349 316.161C185.876 315.976 186.343 315.717 186.748 315.385C187.153 315.053 187.463 314.684 187.678 314.279C187.893 313.874 188.001 313.476 188.001 313.085V312.616H188.909V313.085ZM189.128 313.085C189.128 313.515 189.216 313.935 189.392 314.345C189.568 314.755 189.832 315.128 190.183 315.465C190.535 315.802 190.964 316.068 191.472 316.264L190.974 317.143C190.378 316.918 189.876 316.593 189.465 316.168C189.055 315.744 188.75 315.265 188.55 314.733C188.35 314.201 188.25 313.651 188.25 313.085V312.616H189.128V313.085ZM193.699 313.085C193.699 313.583 193.596 314.101 193.391 314.638C193.186 315.175 192.878 315.668 192.468 316.117C192.058 316.566 191.56 316.908 190.974 317.143L190.476 316.264C190.974 316.049 191.399 315.763 191.751 315.407C192.102 315.05 192.371 314.667 192.556 314.257C192.742 313.847 192.834 313.456 192.834 313.085V312.616H193.699V313.085ZM193.962 313.085C193.962 313.505 194.067 313.92 194.277 314.33C194.487 314.74 194.795 315.106 195.2 315.429C195.605 315.751 196.077 315.995 196.614 316.161L196.072 317.04C195.447 316.825 194.91 316.515 194.46 316.11C194.011 315.705 193.667 315.241 193.428 314.718C193.188 314.196 193.069 313.651 193.069 313.085V312.616H193.962V313.085ZM199.056 310.814C200.345 310.814 201.412 310.785 202.257 310.727C203.102 310.668 203.949 310.556 204.798 310.39L204.945 311.342C204.037 311.498 203.141 311.608 202.257 311.671C201.373 311.735 200.306 311.767 199.056 311.767H198.075V310.814H199.056ZM204.066 306.215H199.203V311.122H198.075V305.263H204.066V306.215ZM208.109 313.686H206.952V304.179H208.109V313.686ZM207.201 308.734H203.216V307.797H207.201V308.734ZM208.461 316.981H199.715V316.044H208.461V316.981ZM200.873 316.557H199.715V312.968H200.873V316.557ZM223.673 308.397H220.714V307.431H223.673V308.397ZM224.507 311.796H223.35V304.164H224.507V311.796ZM224.507 317.011H215.997V312.44H224.507V317.011ZM217.139 316.073H223.38V313.363H217.139V316.073ZM218.033 306.479C218.033 307.26 217.877 307.995 217.564 308.683C217.252 309.372 216.819 309.975 216.268 310.492C215.716 311.01 215.084 311.4 214.371 311.664L213.77 310.756C214.405 310.521 214.974 310.187 215.477 309.752C215.98 309.318 216.373 308.815 216.656 308.244C216.939 307.672 217.081 307.084 217.081 306.479V305.409H218.033V306.479ZM218.238 306.479C218.238 307.035 218.372 307.577 218.641 308.104C218.909 308.632 219.288 309.101 219.776 309.511C220.264 309.921 220.821 310.238 221.446 310.463L220.845 311.371C220.142 311.117 219.525 310.744 218.992 310.25C218.46 309.757 218.045 309.184 217.747 308.529C217.449 307.875 217.3 307.191 217.3 306.479V305.409H218.238V306.479ZM221.153 305.966H214.136V305.014H221.153V305.966ZM227.507 319.003H226.423L227.228 315.019H228.649L227.507 319.003ZM244.901 317.187H243.773V304.164H244.901V317.187ZM244.198 310.375H241.635V309.423H244.198V310.375ZM239.393 305.863C239.393 307.035 239.237 308.136 238.925 309.167C238.612 310.197 238.092 311.159 237.365 312.052C236.637 312.946 235.673 313.725 234.471 314.389L233.798 313.583C234.872 312.987 235.741 312.299 236.405 311.518C237.069 310.736 237.55 309.892 237.848 308.983C238.146 308.075 238.295 307.099 238.295 306.054V305.863H239.393ZM238.676 306.815H234.296V305.863H238.676V306.815ZM241.971 316.542H240.873V304.516H241.971V316.542ZM256.645 308.207H253.32V307.24H256.645V308.207ZM250.83 306.581C250.83 307.401 250.679 308.175 250.376 308.903C250.073 309.63 249.651 310.265 249.109 310.807C248.567 311.349 247.934 311.767 247.212 312.06L246.596 311.122C247.241 310.878 247.812 310.526 248.31 310.067C248.808 309.608 249.199 309.076 249.482 308.471C249.765 307.865 249.907 307.235 249.907 306.581V304.97H250.83V306.581ZM251.035 306.625C251.035 307.221 251.172 307.799 251.445 308.361C251.719 308.922 252.099 309.418 252.588 309.848C253.076 310.277 253.633 310.609 254.258 310.844L253.613 311.737C252.929 311.464 252.324 311.071 251.797 310.558C251.269 310.045 250.857 309.45 250.559 308.771C250.261 308.092 250.112 307.377 250.112 306.625V304.97H251.035V306.625ZM257.378 313.935H256.221V304.179H257.378V313.935ZM257.671 316.908H248.955V315.941H257.671V316.908ZM250.112 316.366H248.955V312.821H250.112V316.366ZM270.118 317.216H268.961V304.164H270.118V317.216ZM263.189 305.175C263.834 305.175 264.408 305.363 264.91 305.739C265.413 306.115 265.806 306.645 266.09 307.328C266.373 308.012 266.514 308.808 266.514 309.716C266.514 310.624 266.373 311.42 266.09 312.104C265.806 312.787 265.413 313.314 264.91 313.686C264.408 314.057 263.834 314.242 263.189 314.242C262.545 314.242 261.971 314.057 261.468 313.686C260.965 313.314 260.572 312.787 260.289 312.104C260.006 311.42 259.864 310.624 259.864 309.716C259.864 308.808 260.006 308.012 260.289 307.328C260.572 306.645 260.965 306.115 261.468 305.739C261.971 305.363 262.545 305.175 263.189 305.175ZM263.189 306.2C262.76 306.2 262.376 306.347 262.039 306.64C261.702 306.933 261.441 307.343 261.256 307.87C261.07 308.397 260.977 309.013 260.977 309.716C260.977 310.409 261.07 311.022 261.256 311.554C261.441 312.086 261.702 312.497 262.039 312.785C262.376 313.073 262.76 313.217 263.189 313.217C263.619 313.217 264.002 313.073 264.339 312.785C264.676 312.497 264.937 312.086 265.123 311.554C265.308 311.022 265.401 310.409 265.401 309.716C265.401 309.013 265.308 308.397 265.123 307.87C264.937 307.343 264.679 306.933 264.347 306.64C264.014 306.347 263.629 306.2 263.189 306.2ZM286.546 310.932H285.389V304.164H286.546V310.932ZM286.546 314.667H279.192V316.659H278.064V313.803H285.403V312.484H278.02V311.562H286.546V314.667ZM287.044 317.04H278.064V316.103H287.044V317.04ZM283.411 305.98H276.365V305.058H283.411V305.98ZM275.999 309.511C277.395 309.511 278.797 309.481 280.203 309.423C281.609 309.364 282.893 309.267 284.056 309.13L284.114 309.979C282.923 310.155 281.631 310.28 280.24 310.353C278.848 310.426 277.483 310.463 276.145 310.463L275.999 309.511ZM278.782 309.936H277.669V305.482H278.782V309.936ZM282.093 309.936H280.979V305.482H282.093V309.936ZM292.665 314.784H291.537V310.888H292.665V314.784ZM297.543 314.784H296.386V310.888H297.543V314.784ZM300.502 315.517H288.578V314.55H300.502V315.517ZM294.511 304.984C295.438 304.984 296.261 305.124 296.979 305.402C297.697 305.68 298.258 306.073 298.664 306.581C299.069 307.089 299.271 307.675 299.271 308.339C299.271 309.003 299.069 309.586 298.664 310.089C298.258 310.592 297.697 310.983 296.979 311.261C296.261 311.54 295.438 311.679 294.511 311.679C293.593 311.679 292.772 311.54 292.05 311.261C291.327 310.983 290.763 310.592 290.358 310.089C289.953 309.586 289.75 309.003 289.75 308.339C289.75 307.675 289.953 307.089 290.358 306.581C290.763 306.073 291.327 305.68 292.05 305.402C292.772 305.124 293.593 304.984 294.511 304.984ZM294.511 305.937C293.808 305.927 293.18 306.022 292.628 306.222C292.077 306.422 291.644 306.706 291.332 307.072C291.019 307.438 290.863 307.86 290.863 308.339C290.863 308.817 291.019 309.24 291.332 309.606C291.644 309.972 292.077 310.258 292.628 310.463C293.18 310.668 293.808 310.771 294.511 310.771C295.214 310.771 295.841 310.668 296.393 310.463C296.945 310.258 297.377 309.972 297.689 309.606C298.002 309.24 298.158 308.817 298.158 308.339C298.158 307.86 298.002 307.438 297.689 307.072C297.377 306.706 296.945 306.422 296.393 306.222C295.841 306.022 295.214 305.927 294.511 305.937ZM311.558 313.935H310.415V304.179H311.558V313.935ZM313.521 309.438H311.191V308.471H313.521V309.438ZM309.17 306.713H301.406V305.775H309.17V306.713ZM305.288 307.431C305.903 307.431 306.448 307.531 306.921 307.731C307.395 307.931 307.764 308.214 308.027 308.581C308.291 308.947 308.423 309.374 308.423 309.862C308.423 310.341 308.291 310.761 308.027 311.122C307.764 311.483 307.395 311.764 306.921 311.964C306.448 312.165 305.903 312.265 305.288 312.265C304.673 312.265 304.126 312.165 303.647 311.964C303.169 311.764 302.8 311.483 302.542 311.122C302.283 310.761 302.153 310.341 302.153 309.862C302.153 309.374 302.283 308.947 302.542 308.581C302.8 308.214 303.169 307.931 303.647 307.731C304.126 307.531 304.673 307.431 305.288 307.431ZM305.288 308.339C304.888 308.339 304.531 308.4 304.219 308.522C303.906 308.644 303.667 308.822 303.501 309.057C303.335 309.291 303.252 309.56 303.252 309.862C303.252 310.165 303.335 310.429 303.501 310.653C303.667 310.878 303.906 311.051 304.219 311.173C304.531 311.295 304.888 311.356 305.288 311.356C305.688 311.356 306.045 311.295 306.357 311.173C306.67 311.051 306.912 310.878 307.083 310.653C307.253 310.429 307.339 310.165 307.339 309.862C307.339 309.56 307.253 309.291 307.083 309.057C306.912 308.822 306.67 308.644 306.357 308.522C306.045 308.4 305.688 308.339 305.288 308.339ZM305.859 306.259H304.717V304.179H305.859V306.259ZM312.158 316.908H303.413V315.941H312.158V316.908ZM304.541 316.337H303.413V313.158H304.541V316.337ZM327.736 308.397H324.777V307.431H327.736V308.397ZM328.571 311.796H327.414V304.164H328.571V311.796ZM328.571 317.011H320.061V312.44H328.571V317.011ZM321.203 316.073H327.443V313.363H321.203V316.073ZM322.097 306.479C322.097 307.26 321.941 307.995 321.628 308.683C321.316 309.372 320.883 309.975 320.332 310.492C319.78 311.01 319.148 311.4 318.435 311.664L317.834 310.756C318.469 310.521 319.038 310.187 319.541 309.752C320.044 309.318 320.437 308.815 320.72 308.244C321.003 307.672 321.145 307.084 321.145 306.479V305.409H322.097V306.479ZM322.302 306.479C322.302 307.035 322.436 307.577 322.705 308.104C322.973 308.632 323.352 309.101 323.84 309.511C324.328 309.921 324.885 310.238 325.51 310.463L324.909 311.371C324.206 311.117 323.588 310.744 323.056 310.25C322.524 309.757 322.109 309.184 321.811 308.529C321.513 307.875 321.364 307.191 321.364 306.479V305.409H322.302V306.479ZM325.217 305.966H318.2V305.014H325.217V305.966ZM346.054 311.327H334.174V310.36H346.054V311.327ZM344.662 309.115H335.683V308.178H344.662V309.115ZM344.574 305.658H336.811V308.632H335.683V304.691H344.574V305.658ZM340.107 312.47C341.034 312.47 341.835 312.56 342.509 312.741C343.183 312.921 343.698 313.188 344.054 313.539C344.411 313.891 344.589 314.315 344.589 314.813C344.589 315.312 344.411 315.736 344.054 316.088C343.698 316.439 343.185 316.706 342.516 316.886C341.847 317.067 341.044 317.157 340.107 317.157C339.169 317.157 338.363 317.067 337.69 316.886C337.016 316.706 336.501 316.439 336.144 316.088C335.788 315.736 335.61 315.312 335.61 314.813C335.61 314.315 335.788 313.891 336.144 313.539C336.501 313.188 337.016 312.921 337.69 312.741C338.363 312.56 339.169 312.47 340.107 312.47ZM340.107 313.363C339.413 313.363 338.818 313.422 338.319 313.539C337.821 313.656 337.441 313.822 337.177 314.037C336.913 314.252 336.781 314.511 336.781 314.813C336.781 315.116 336.913 315.375 337.177 315.59C337.441 315.805 337.821 315.968 338.319 316.081C338.818 316.193 339.413 316.249 340.107 316.249C340.8 316.249 341.396 316.193 341.894 316.081C342.392 315.968 342.773 315.805 343.036 315.59C343.3 315.375 343.432 315.116 343.432 314.813C343.432 314.511 343.3 314.252 343.036 314.037C342.773 313.822 342.392 313.656 341.894 313.539C341.396 313.422 340.8 313.363 340.107 313.363ZM42.46 327.398C43.4268 327.398 44.2544 327.484 44.9429 327.655C45.6313 327.826 46.1562 328.08 46.5176 328.417C46.8789 328.753 47.0596 329.161 47.0596 329.64C47.0596 330.128 46.8789 330.541 46.5176 330.877C46.1562 331.214 45.6313 331.471 44.9429 331.646C44.2544 331.822 43.4268 331.915 42.46 331.925C41.4932 331.915 40.6655 331.822 39.9771 331.646C39.2886 331.471 38.7612 331.214 38.395 330.877C38.0288 330.541 37.8457 330.128 37.8457 329.64C37.8457 329.161 38.0288 328.753 38.395 328.417C38.7612 328.08 39.2886 327.826 39.9771 327.655C40.6655 327.484 41.4932 327.398 42.46 327.398ZM42.46 328.263C41.7471 328.263 41.1343 328.316 40.6216 328.424C40.1089 328.531 39.7183 328.69 39.4497 328.9C39.1812 329.11 39.0469 329.356 39.0469 329.64C39.0469 329.942 39.1787 330.199 39.4424 330.409C39.7061 330.619 40.0942 330.777 40.6069 330.885C41.1196 330.992 41.7373 331.046 42.46 331.046C43.1826 331.046 43.8003 330.992 44.313 330.885C44.8257 330.777 45.2163 330.616 45.4849 330.401C45.7534 330.187 45.8877 329.933 45.8877 329.64C45.8877 329.356 45.751 329.112 45.4775 328.907C45.2041 328.702 44.811 328.543 44.2983 328.431C43.7856 328.319 43.1729 328.263 42.46 328.263ZM48.3926 333.741H36.5273V332.804H48.3926V333.741ZM46.8691 337.784H39.1348V339.366H37.9922V336.935H45.7412V335.748H37.9629V334.869H46.8691V337.784ZM47.2646 340.04H37.9922V339.132H47.2646V340.04ZM57.13 329.581C57.13 330.362 56.9786 331.095 56.6759 331.778C56.3731 332.462 55.9483 333.055 55.4014 333.558C54.8546 334.061 54.2198 334.444 53.4971 334.708L52.8819 333.814C53.5264 333.58 54.1002 333.248 54.6031 332.818C55.106 332.389 55.4991 331.893 55.7823 331.332C56.0655 330.77 56.2071 330.187 56.2071 329.581V328.512H57.13V329.581ZM57.335 329.581C57.335 330.147 57.4693 330.694 57.7379 331.222C58.0064 331.749 58.3824 332.215 58.8658 332.621C59.3492 333.026 59.9083 333.341 60.543 333.565L59.9571 334.459C59.2442 334.205 58.6192 333.836 58.0821 333.353C57.545 332.87 57.13 332.303 56.837 331.654C56.544 331.004 56.3975 330.313 56.3975 329.581V328.512H57.335V329.581ZM60.2647 329.024H53.2335V328.087H60.2647V329.024ZM63.1065 335.016H61.9639V327.164H63.1065V335.016ZM65.0694 331.588H62.7843V330.606H65.0694V331.588ZM63.1065 340.187H61.9639V336.642H54.5811V335.704H63.1065V340.187ZM70.0021 329.259C70.0021 330.089 69.8507 330.86 69.548 331.573C69.2452 332.286 68.818 332.906 68.2662 333.434C67.7145 333.961 67.0724 334.366 66.34 334.649L65.7101 333.712C66.3741 333.478 66.9601 333.138 67.4679 332.694C67.9757 332.25 68.3688 331.732 68.6471 331.141C68.9254 330.55 69.0646 329.923 69.0646 329.259V327.911H70.0021V329.259ZM70.2071 329.215C70.2071 329.82 70.3414 330.401 70.61 330.958C70.8785 331.515 71.257 332 71.7452 332.416C72.2335 332.831 72.795 333.146 73.4298 333.36L72.7853 334.254C72.0821 333.99 71.4669 333.612 70.9396 333.119C70.4122 332.625 69.9996 332.044 69.7018 331.375C69.4039 330.707 69.255 329.986 69.255 329.215V327.911H70.2071V329.215ZM76.5206 334.884H75.3634V327.164H76.5206V334.884ZM72.1993 335.265C73.1075 335.265 73.8888 335.36 74.5431 335.55C75.1974 335.741 75.6979 336.021 76.0445 336.393C76.3912 336.764 76.5646 337.208 76.5646 337.726C76.5646 338.233 76.3912 338.67 76.0445 339.037C75.6979 339.403 75.1974 339.681 74.5431 339.872C73.8888 340.062 73.1075 340.157 72.1993 340.157C71.3009 340.157 70.5245 340.062 69.8702 339.872C69.2159 339.681 68.713 339.403 68.3614 339.037C68.0099 338.67 67.8341 338.233 67.8341 337.726C67.8341 337.208 68.0099 336.764 68.3614 336.393C68.713 336.021 69.2159 335.741 69.8702 335.55C70.5245 335.36 71.3009 335.265 72.1993 335.265ZM72.1993 336.173C71.545 336.173 70.9737 336.234 70.4855 336.356C69.9972 336.478 69.6237 336.656 69.3649 336.891C69.1061 337.125 68.9767 337.403 68.9767 337.726C68.9767 338.028 69.1061 338.294 69.3649 338.524C69.6237 338.753 69.9972 338.929 70.4855 339.051C70.9737 339.173 71.545 339.234 72.1993 339.234C72.8634 339.234 73.4371 339.173 73.9205 339.051C74.4039 338.929 74.775 338.753 75.0338 338.524C75.2926 338.294 75.422 338.028 75.422 337.726C75.422 337.403 75.2926 337.125 75.0338 336.891C74.775 336.656 74.4039 336.478 73.9205 336.356C73.4371 336.234 72.8634 336.173 72.1993 336.173ZM75.6124 330.914H72.463V329.962H75.6124V330.914ZM85.0275 330.357H78.4943V329.42H85.0275V330.357ZM81.7609 331.236C82.3078 331.236 82.7936 331.361 83.2184 331.61C83.6432 331.859 83.9777 332.208 84.2218 332.657C84.466 333.106 84.588 333.619 84.588 334.195C84.588 334.771 84.466 335.284 84.2218 335.733C83.9777 336.183 83.6432 336.537 83.2184 336.795C82.7936 337.054 82.3078 337.184 81.7609 337.184C81.2238 337.184 80.7428 337.054 80.318 336.795C79.8932 336.537 79.5612 336.18 79.3219 335.726C79.0827 335.272 78.963 334.762 78.963 334.195C78.963 333.629 79.0827 333.119 79.3219 332.665C79.5612 332.21 79.8932 331.859 80.318 331.61C80.7428 331.361 81.2238 331.236 81.7609 331.236ZM81.7609 332.203C81.4289 332.203 81.1261 332.291 80.8527 332.467C80.5793 332.643 80.3669 332.879 80.2155 333.177C80.0641 333.475 79.9884 333.814 79.9884 334.195C79.9884 334.576 80.0666 334.918 80.2228 335.221C80.3791 335.523 80.5915 335.758 80.86 335.924C81.1286 336.09 81.4289 336.173 81.7609 336.173C82.1027 336.173 82.4103 336.09 82.6838 335.924C82.9572 335.758 83.172 335.523 83.3283 335.221C83.4845 334.918 83.5627 334.576 83.5627 334.195C83.5627 333.814 83.4845 333.475 83.3283 333.177C83.172 332.879 82.9572 332.643 82.6838 332.467C82.4103 332.291 82.1027 332.203 81.7609 332.203ZM89.6125 340.187H88.5138V327.164H89.6125V340.187ZM88.88 333.609H86.3898V332.657H88.88V333.609ZM86.7853 339.542H85.7013V327.486H86.7853V339.542ZM82.3468 329.991H81.2043V327.56H82.3468V329.991ZM97.6213 329.01C97.6213 329.752 97.3771 330.436 96.8889 331.061C96.4006 331.686 95.7658 332.206 94.9846 332.621C94.2033 333.036 93.3684 333.321 92.4797 333.478L92.0256 332.569C92.7873 332.452 93.5222 332.22 94.2302 331.874C94.9382 331.527 95.5119 331.102 95.9514 330.599C96.3908 330.096 96.6105 329.566 96.6105 329.01V328.453H97.6213V329.01ZM97.8996 329.01C97.8996 329.566 98.1193 330.096 98.5588 330.599C98.9982 331.102 99.572 331.527 100.28 331.874C100.988 332.22 101.723 332.452 102.485 332.569L102.06 333.478C101.161 333.321 100.319 333.038 99.5329 332.628C98.7468 332.218 98.112 331.698 97.6286 331.068C97.1452 330.438 96.9035 329.752 96.9035 329.01V328.453H97.8996V329.01ZM97.7971 340.187H96.6691V335.206H97.7971V340.187ZM103.188 335.543H91.3225V334.591H103.188V335.543ZM102.06 328.922H92.4357V327.984H102.06V328.922ZM111.856 332.818H109.292V331.837H111.856V332.818ZM107.783 330.914C107.783 331.803 107.659 332.672 107.41 333.521C107.161 334.371 106.804 335.13 106.341 335.799C105.877 336.468 105.332 336.993 104.707 337.374L103.975 336.51C104.561 336.168 105.073 335.699 105.513 335.104C105.952 334.508 106.289 333.846 106.524 333.119C106.758 332.391 106.875 331.656 106.875 330.914V328.395H107.783V330.914ZM107.989 330.87C107.989 331.563 108.098 332.257 108.318 332.95C108.538 333.644 108.855 334.276 109.27 334.847C109.685 335.418 110.171 335.87 110.728 336.202L110.069 337.096C109.453 336.725 108.924 336.209 108.479 335.55C108.035 334.891 107.696 334.156 107.461 333.346C107.227 332.535 107.11 331.71 107.11 330.87V328.395H107.989V330.87ZM115.283 340.187H114.17V327.164H115.283V340.187ZM112.588 339.527H111.504V327.442H112.588V339.527ZM121.007 337.784H119.879V333.888H121.007V337.784ZM125.885 337.784H124.728V333.888H125.885V337.784ZM128.844 338.517H116.92V337.55H128.844V338.517ZM122.853 327.984C123.781 327.984 124.603 328.124 125.321 328.402C126.039 328.68 126.6 329.073 127.006 329.581C127.411 330.089 127.614 330.675 127.614 331.339C127.614 332.003 127.411 332.586 127.006 333.089C126.6 333.592 126.039 333.983 125.321 334.261C124.603 334.54 123.781 334.679 122.853 334.679C121.935 334.679 121.115 334.54 120.392 334.261C119.669 333.983 119.105 333.592 118.7 333.089C118.295 332.586 118.092 332.003 118.092 331.339C118.092 330.675 118.295 330.089 118.7 329.581C119.105 329.073 119.669 328.68 120.392 328.402C121.115 328.124 121.935 327.984 122.853 327.984ZM122.853 328.937C122.15 328.927 121.522 329.022 120.97 329.222C120.419 329.422 119.987 329.706 119.674 330.072C119.362 330.438 119.205 330.86 119.205 331.339C119.205 331.817 119.362 332.24 119.674 332.606C119.987 332.972 120.419 333.258 120.97 333.463C121.522 333.668 122.15 333.771 122.853 333.771C123.556 333.771 124.183 333.668 124.735 333.463C125.287 333.258 125.719 332.972 126.032 332.606C126.344 332.24 126.5 331.817 126.5 331.339C126.5 330.86 126.344 330.438 126.032 330.072C125.719 329.706 125.287 329.422 124.735 329.222C124.183 329.022 123.556 328.927 122.853 328.937ZM131.096 339.088C130.93 339.088 130.774 339.044 130.627 338.956C130.481 338.868 130.366 338.751 130.283 338.604C130.2 338.458 130.159 338.302 130.159 338.136C130.159 337.97 130.2 337.813 130.283 337.667C130.366 337.521 130.481 337.406 130.627 337.323C130.774 337.24 130.93 337.198 131.096 337.198C131.262 337.198 131.418 337.24 131.565 337.323C131.711 337.406 131.826 337.521 131.909 337.667C131.992 337.813 132.034 337.97 132.034 338.136C132.034 338.302 131.992 338.458 131.909 338.604C131.826 338.751 131.711 338.868 131.565 338.956C131.418 339.044 131.262 339.088 131.096 339.088Z" fill="white"/>
<rect x="86" y="729" width="212" height="55" rx="15" stroke="#FFFA87" stroke-width="2"/>
<path d="M190.456 767.656H187.644V746.305H190.456V767.656ZM184.081 756.055H180.484V753.652H184.081V756.055ZM186.097 766.684H183.296V746.68H186.097V766.684ZM178.152 752.035C178.152 753.707 177.98 755.293 177.636 756.793C177.3 758.285 176.78 759.633 176.077 760.836C175.374 762.031 174.476 762.965 173.382 763.637L171.577 761.434C172.585 760.809 173.409 760 174.05 759.008C174.698 758.008 175.167 756.918 175.456 755.738C175.745 754.559 175.89 753.324 175.89 752.035V749.797H178.152V752.035ZM178.773 752.035C178.773 753.293 178.909 754.488 179.183 755.621C179.464 756.746 179.921 757.773 180.554 758.703C181.187 759.625 181.999 760.375 182.991 760.953L181.245 763.145C180.159 762.504 179.269 761.617 178.573 760.484C177.878 759.352 177.37 758.07 177.05 756.641C176.73 755.211 176.569 753.676 176.569 752.035V749.797H178.773V752.035ZM182.007 750.887H172.386V748.496H182.007V750.887ZM203.692 760.25H200.751V757.145H203.692V760.25ZM211.919 757.59H192.548V755.41H211.919V757.59ZM203.681 748.883H200.716V746.305H203.681V748.883ZM203.153 749.434C203.153 750.457 202.809 751.359 202.122 752.141C201.434 752.914 200.415 753.531 199.063 753.992C197.712 754.453 196.063 754.738 194.118 754.848L193.309 752.645C194.95 752.566 196.309 752.375 197.388 752.07C198.473 751.758 199.266 751.375 199.766 750.922C200.274 750.469 200.528 749.973 200.528 749.434V749H203.153V749.434ZM203.88 749.434C203.88 749.973 204.13 750.469 204.63 750.922C205.138 751.375 205.934 751.758 207.02 752.07C208.114 752.375 209.485 752.566 211.134 752.645L210.266 754.848C208.352 754.738 206.72 754.453 205.368 753.992C204.024 753.531 203.001 752.914 202.298 752.141C201.602 751.359 201.255 750.457 201.255 749.434V749H203.88V749.434ZM210.079 750.207H194.376V747.992H210.079V750.207ZM209.587 764.129H197.704V766.203H194.763V762.125H206.634V761.082H194.751V758.938H209.587V764.129ZM210.149 767.504H194.763V765.312H210.149V767.504Z" fill="#FFFA87"/>
<path d="M31 73L18 86L31 99" stroke="#101010" stroke-width="3" stroke-linecap="round" stroke-linejoin="round"/>
</g>
<defs>
<clipPath id="clip0_1043_4840">
<rect width="393" height="852" fill="white"/>
</clipPath>
</defs>
</svg>
